<svg width="18" height="19" viewBox="0 0 18 19" fill="none" xmlns="http://www.w3.org/2000/svg">
<path d="M9 0.5625C7.23233 0.5625 5.50436 1.08668 4.0346 2.06874C2.56483 3.05081 1.41929 4.44665 0.742831 6.07977C0.0663725 7.71288 -0.11062 9.50992 0.234236 11.2436C0.579091 12.9773 1.43031 14.5698 2.68024 15.8198C3.93017 17.0697 5.52268 17.9209 7.25638 18.2658C8.99009 18.6106 10.7871 18.4336 12.4202 17.7572C14.0534 17.0807 15.4492 15.9352 16.4313 14.4654C17.4133 12.9956 17.9375 11.2677 17.9375 9.5C17.935 7.1304 16.9926 4.85856 15.317 3.183C13.6414 1.50743 11.3696 0.565002 9 0.5625ZM9.6875 17.0307V11.5625H11.75C11.9323 11.5625 12.1072 11.4901 12.2361 11.3611C12.3651 11.2322 12.4375 11.0573 12.4375 10.875C12.4375 10.6927 12.3651 10.5178 12.2361 10.3889C12.1072 10.2599 11.9323 10.1875 11.75 10.1875H9.6875V8.125C9.6875 7.76033 9.83237 7.41059 10.0902 7.15273C10.3481 6.89487 10.6978 6.75 11.0625 6.75H12.4375C12.6198 6.75 12.7947 6.67757 12.9236 6.54864C13.0526 6.4197 13.125 6.24484 13.125 6.0625C13.125 5.88016 13.0526 5.7053 12.9236 5.57636C12.7947 5.44743 12.6198 5.375 12.4375 5.375H11.0625C10.3332 5.375 9.63369 5.66473 9.11796 6.18046C8.60224 6.69618 8.3125 7.39565 8.3125 8.125V10.1875H6.25C6.06767 10.1875 5.8928 10.2599 5.76387 10.3889C5.63494 10.5178 5.5625 10.6927 5.5625 10.875C5.5625 11.0573 5.63494 11.2322 5.76387 11.3611C5.8928 11.4901 6.06767 11.5625 6.25 11.5625H8.3125V17.0307C6.37444 16.8538 4.57917 15.9365 3.30015 14.4697C2.02112 13.0029 1.35678 11.0995 1.44534 9.15541C1.53389 7.2113 2.36851 5.37616 3.77559 4.03172C5.18266 2.68727 7.05388 1.93702 9 1.93702C10.9461 1.93702 12.8173 2.68727 14.2244 4.03172C15.6315 5.37616 16.4661 7.2113 16.5547 9.15541C16.6432 11.0995 15.9789 13.0029 14.6999 14.4697C13.4208 15.9365 11.6256 16.8538 9.6875 17.0307Z" fill="#512070"/>
</svg>
