<svg width="19" height="18" viewBox="0 0 19 18" fill="none" xmlns="http://www.w3.org/2000/svg">
<path d="M9.4375 0C7.66983 0 5.94186 0.524175 4.4721 1.50624C3.00233 2.48831 1.85679 3.88415 1.18033 5.51727C0.503872 7.15038 0.32688 8.94742 0.671736 10.6811C1.01659 12.4148 1.86781 14.0073 3.11774 15.2573C4.36767 16.5072 5.96018 17.3584 7.69388 17.7033C9.42759 18.0481 11.2246 17.8711 12.8577 17.1947C14.4909 16.5182 15.8867 15.3727 16.8688 13.9029C17.8508 12.4331 18.375 10.7052 18.375 8.9375C18.3725 6.5679 17.4301 4.29606 15.7545 2.6205C14.0789 0.944933 11.8071 0.00250234 9.4375 0ZM10.125 16.4682V11H12.1875C12.3698 11 12.5447 10.9276 12.6736 10.7986C12.8026 10.6697 12.875 10.4948 12.875 10.3125C12.875 10.1302 12.8026 9.95529 12.6736 9.82636C12.5447 9.69743 12.3698 9.625 12.1875 9.625H10.125V7.5625C10.125 7.19783 10.2699 6.84809 10.5277 6.59023C10.7856 6.33237 11.1353 6.1875 11.5 6.1875H12.875C13.0573 6.1875 13.2322 6.11507 13.3611 5.98614C13.4901 5.8572 13.5625 5.68234 13.5625 5.5C13.5625 5.31766 13.4901 5.1428 13.3611 5.01386C13.2322 4.88493 13.0573 4.8125 12.875 4.8125H11.5C10.7707 4.8125 10.0712 5.10223 9.55546 5.61796C9.03974 6.13368 8.75 6.83315 8.75 7.5625V9.625H6.6875C6.50517 9.625 6.3303 9.69743 6.20137 9.82636C6.07244 9.95529 6 10.1302 6 10.3125C6 10.4948 6.07244 10.6697 6.20137 10.7986C6.3303 10.9276 6.50517 11 6.6875 11H8.75V16.4682C6.81194 16.2913 5.01667 15.374 3.73765 13.9072C2.45862 12.4404 1.79428 10.537 1.88284 8.59291C1.97139 6.6488 2.80601 4.81366 4.21309 3.46922C5.62016 2.12477 7.49138 1.37452 9.4375 1.37452C11.3836 1.37452 13.2548 2.12477 14.6619 3.46922C16.069 4.81366 16.9036 6.6488 16.9922 8.59291C17.0807 10.537 16.4164 12.4404 15.1374 13.9072C13.8583 15.374 12.0631 16.2913 10.125 16.4682Z" fill="white"/>
</svg>
