<svg width="19" height="18" viewBox="0 0 19 18" fill="none" xmlns="http://www.w3.org/2000/svg">
<path d="M9.5 4.875C8.68415 4.875 7.88663 5.11693 7.20827 5.57019C6.52992 6.02345 6.00121 6.66769 5.689 7.42143C5.37679 8.17518 5.2951 9.00458 5.45426 9.80475C5.61343 10.6049 6.00629 11.3399 6.58318 11.9168C7.16008 12.4937 7.89508 12.8866 8.69525 13.0457C9.49542 13.2049 10.3248 13.1232 11.0786 12.811C11.8323 12.4988 12.4766 11.9701 12.9298 11.2917C13.3831 10.6134 13.625 9.81585 13.625 9C13.6239 7.90633 13.1889 6.85778 12.4156 6.08444C11.6422 5.3111 10.5937 4.87614 9.5 4.875ZM9.5 11.75C8.9561 11.75 8.42442 11.5887 7.97218 11.2865C7.51995 10.9844 7.16747 10.5549 6.95933 10.0524C6.75119 9.54988 6.69673 8.99695 6.80284 8.4635C6.90895 7.93005 7.17086 7.44005 7.55546 7.05546C7.94005 6.67086 8.43005 6.40895 8.9635 6.30284C9.49695 6.19673 10.0499 6.25119 10.5524 6.45933C11.0549 6.66747 11.4844 7.01995 11.7865 7.47218C12.0887 7.92442 12.25 8.4561 12.25 9C12.25 9.72935 11.9603 10.4288 11.4445 10.9445C10.9288 11.4603 10.2293 11.75 9.5 11.75ZM13.625 0.0625H5.375C4.09906 0.0638649 2.87578 0.571333 1.97356 1.47356C1.07133 2.37578 0.563865 3.59906 0.5625 4.875V13.125C0.563865 14.4009 1.07133 15.6242 1.97356 16.5264C2.87578 17.4287 4.09906 17.9361 5.375 17.9375H13.625C14.9009 17.9361 16.1242 17.4287 17.0264 16.5264C17.9287 15.6242 18.4361 14.4009 18.4375 13.125V4.875C18.4361 3.59906 17.9287 2.37578 17.0264 1.47356C16.1242 0.571333 14.9009 0.0638649 13.625 0.0625ZM17.0625 13.125C17.0625 14.0367 16.7003 14.911 16.0557 15.5557C15.411 16.2003 14.5367 16.5625 13.625 16.5625H5.375C4.46332 16.5625 3.58898 16.2003 2.94432 15.5557C2.29966 14.911 1.9375 14.0367 1.9375 13.125V4.875C1.9375 3.96332 2.29966 3.08898 2.94432 2.44432C3.58898 1.79966 4.46332 1.4375 5.375 1.4375H13.625C14.5367 1.4375 15.411 1.79966 16.0557 2.44432C16.7003 3.08898 17.0625 3.96332 17.0625 4.875V13.125ZM15 4.53125C15 4.73521 14.9395 4.93459 14.8262 5.10418C14.7129 5.27377 14.5518 5.40595 14.3634 5.484C14.175 5.56205 13.9676 5.58248 13.7676 5.54269C13.5675 5.50289 13.3838 5.40468 13.2395 5.26045C13.0953 5.11623 12.9971 4.93248 12.9573 4.73244C12.9175 4.53239 12.9379 4.32504 13.016 4.13661C13.0941 3.94817 13.2262 3.78711 13.3958 3.6738C13.5654 3.56048 13.7648 3.5 13.9688 3.5C14.2423 3.5 14.5046 3.60865 14.698 3.80205C14.8913 3.99544 15 4.25775 15 4.53125Z" fill="white"/>
</svg>
