<svg width="18" height="19" viewBox="0 0 18 19" fill="none" xmlns="http://www.w3.org/2000/svg">
<path d="M9 5.375C8.18415 5.375 7.38663 5.61693 6.70827 6.07019C6.02992 6.52345 5.50121 7.16769 5.189 7.92143C4.87679 8.67518 4.7951 9.50458 4.95426 10.3047C5.11343 11.1049 5.50629 11.8399 6.08318 12.4168C6.66008 12.9937 7.39508 13.3866 8.19525 13.5457C8.99542 13.7049 9.82482 13.6232 10.5786 13.311C11.3323 12.9988 11.9766 12.4701 12.4298 11.7917C12.8831 11.1134 13.125 10.3158 13.125 9.5C13.1239 8.40633 12.6889 7.35778 11.9156 6.58444C11.1422 5.8111 10.0937 5.37614 9 5.375ZM9 12.25C8.4561 12.25 7.92442 12.0887 7.47218 11.7865C7.01995 11.4844 6.66747 11.0549 6.45933 10.5524C6.25119 10.0499 6.19673 9.49695 6.30284 8.9635C6.40895 8.43005 6.67086 7.94005 7.05546 7.55546C7.44005 7.17086 7.93005 6.90895 8.4635 6.80284C8.99695 6.69673 9.54988 6.75119 10.0524 6.95933C10.5549 7.16747 10.9844 7.51995 11.2865 7.97218C11.5887 8.42442 11.75 8.9561 11.75 9.5C11.75 10.2293 11.4603 10.9288 10.9445 11.4445C10.4288 11.9603 9.72935 12.25 9 12.25ZM13.125 0.5625H4.875C3.59906 0.563865 2.37578 1.07133 1.47356 1.97356C0.571333 2.87578 0.0638649 4.09906 0.0625 5.375V13.625C0.0638649 14.9009 0.571333 16.1242 1.47356 17.0264C2.37578 17.9287 3.59906 18.4361 4.875 18.4375H13.125C14.4009 18.4361 15.6242 17.9287 16.5264 17.0264C17.4287 16.1242 17.9361 14.9009 17.9375 13.625V5.375C17.9361 4.09906 17.4287 2.87578 16.5264 1.97356C15.6242 1.07133 14.4009 0.563865 13.125 0.5625ZM16.5625 13.625C16.5625 14.5367 16.2003 15.411 15.5557 16.0557C14.911 16.7003 14.0367 17.0625 13.125 17.0625H4.875C3.96332 17.0625 3.08898 16.7003 2.44432 16.0557C1.79966 15.411 1.4375 14.5367 1.4375 13.625V5.375C1.4375 4.46332 1.79966 3.58898 2.44432 2.94432C3.08898 2.29966 3.96332 1.9375 4.875 1.9375H13.125C14.0367 1.9375 14.911 2.29966 15.5557 2.94432C16.2003 3.58898 16.5625 4.46332 16.5625 5.375V13.625ZM14.5 5.03125C14.5 5.23521 14.4395 5.43459 14.3262 5.60418C14.2129 5.77377 14.0518 5.90595 13.8634 5.984C13.675 6.06205 13.4676 6.08248 13.2676 6.04269C13.0675 6.00289 12.8838 5.90468 12.7395 5.76045C12.5953 5.61623 12.4971 5.43248 12.4573 5.23244C12.4175 5.03239 12.4379 4.82504 12.516 4.63661C12.5941 4.44817 12.7262 4.28711 12.8958 4.1738C13.0654 4.06048 13.2648 4 13.4688 4C13.7423 4 14.0046 4.10865 14.198 4.30205C14.3913 4.49544 14.5 4.75775 14.5 5.03125Z" fill="#512070"/>
</svg>
