<svg width="19" height="18" viewBox="0 0 19 18" fill="none" xmlns="http://www.w3.org/2000/svg">
<path d="M17.0625 0.0625H1.9375C1.57283 0.0625 1.22309 0.207366 0.965228 0.465228C0.707366 0.723091 0.5625 1.07283 0.5625 1.4375V16.5625C0.5625 16.9272 0.707366 17.2769 0.965228 17.5348C1.22309 17.7926 1.57283 17.9375 1.9375 17.9375H17.0625C17.4272 17.9375 17.7769 17.7926 18.0348 17.5348C18.2926 17.2769 18.4375 16.9272 18.4375 16.5625V1.4375C18.4375 1.07283 18.2926 0.723091 18.0348 0.465228C17.7769 0.207366 17.4272 0.0625 17.0625 0.0625ZM17.0625 16.5625H1.9375V1.4375H17.0625V16.5625ZM6.75 7.625V13.125C6.75 13.3073 6.67757 13.4822 6.54864 13.6111C6.4197 13.7401 6.24484 13.8125 6.0625 13.8125C5.88016 13.8125 5.7053 13.7401 5.57636 13.6111C5.44743 13.4822 5.375 13.3073 5.375 13.125V7.625C5.375 7.44266 5.44743 7.2678 5.57636 7.13886C5.7053 7.00993 5.88016 6.9375 6.0625 6.9375C6.24484 6.9375 6.4197 7.00993 6.54864 7.13886C6.67757 7.2678 6.75 7.44266 6.75 7.625ZM14.3125 10.0312V13.125C14.3125 13.3073 14.2401 13.4822 14.1111 13.6111C13.9822 13.7401 13.8073 13.8125 13.625 13.8125C13.4427 13.8125 13.2678 13.7401 13.1389 13.6111C13.0099 13.4822 12.9375 13.3073 12.9375 13.125V10.0312C12.9375 9.57541 12.7564 9.13824 12.4341 8.81591C12.1118 8.49358 11.6746 8.3125 11.2188 8.3125C10.7629 8.3125 10.3257 8.49358 10.0034 8.81591C9.68108 9.13824 9.5 9.57541 9.5 10.0312V13.125C9.5 13.3073 9.42757 13.4822 9.29864 13.6111C9.1697 13.7401 8.99484 13.8125 8.8125 13.8125C8.63016 13.8125 8.4553 13.7401 8.32636 13.6111C8.19743 13.4822 8.125 13.3073 8.125 13.125V7.625C8.12585 7.4566 8.18848 7.29437 8.30101 7.16909C8.41354 7.0438 8.56814 6.96417 8.73548 6.94531C8.90282 6.92645 9.07126 6.96966 9.20886 7.06675C9.34646 7.16383 9.44363 7.30805 9.48195 7.47203C9.94704 7.15653 10.4893 6.97368 11.0504 6.9431C11.6116 6.91253 12.1705 7.03539 12.6671 7.29849C13.1637 7.56159 13.5793 7.955 13.8692 8.43646C14.159 8.91792 14.3123 9.46925 14.3125 10.0312ZM7.09375 5.21875C7.09375 5.42271 7.03327 5.62209 6.91995 5.79168C6.80664 5.96127 6.64558 6.09345 6.45714 6.1715C6.26871 6.24955 6.06136 6.26998 5.86131 6.23019C5.66127 6.19039 5.47752 6.09218 5.3333 5.94795C5.18907 5.80373 5.09086 5.61998 5.05106 5.41994C5.01127 5.21989 5.0317 5.01254 5.10975 4.82411C5.1878 4.63567 5.31998 4.47461 5.48957 4.3613C5.65916 4.24798 5.85854 4.1875 6.0625 4.1875C6.336 4.1875 6.59831 4.29615 6.7917 4.48955C6.9851 4.68294 7.09375 4.94525 7.09375 5.21875Z" fill="white"/>
</svg>
