<svg width="18" height="19" viewBox="0 0 18 19" fill="none" xmlns="http://www.w3.org/2000/svg">
<path d="M16.5625 0.5625H1.4375C1.07283 0.5625 0.723091 0.707366 0.465228 0.965228C0.207366 1.22309 0.0625 1.57283 0.0625 1.9375V17.0625C0.0625 17.4272 0.207366 17.7769 0.465228 18.0348C0.723091 18.2926 1.07283 18.4375 1.4375 18.4375H16.5625C16.9272 18.4375 17.2769 18.2926 17.5348 18.0348C17.7926 17.7769 17.9375 17.4272 17.9375 17.0625V1.9375C17.9375 1.57283 17.7926 1.22309 17.5348 0.965228C17.2769 0.707366 16.9272 0.5625 16.5625 0.5625ZM16.5625 17.0625H1.4375V1.9375H16.5625V17.0625ZM6.25 8.125V13.625C6.25 13.8073 6.17757 13.9822 6.04864 14.1111C5.9197 14.2401 5.74484 14.3125 5.5625 14.3125C5.38016 14.3125 5.2053 14.2401 5.07636 14.1111C4.94743 13.9822 4.875 13.8073 4.875 13.625V8.125C4.875 7.94266 4.94743 7.7678 5.07636 7.63886C5.2053 7.50993 5.38016 7.4375 5.5625 7.4375C5.74484 7.4375 5.9197 7.50993 6.04864 7.63886C6.17757 7.7678 6.25 7.94266 6.25 8.125ZM13.8125 10.5312V13.625C13.8125 13.8073 13.7401 13.9822 13.6111 14.1111C13.4822 14.2401 13.3073 14.3125 13.125 14.3125C12.9427 14.3125 12.7678 14.2401 12.6389 14.1111C12.5099 13.9822 12.4375 13.8073 12.4375 13.625V10.5312C12.4375 10.0754 12.2564 9.63824 11.9341 9.31591C11.6118 8.99358 11.1746 8.8125 10.7188 8.8125C10.2629 8.8125 9.82574 8.99358 9.50341 9.31591C9.18108 9.63824 9 10.0754 9 10.5312V13.625C9 13.8073 8.92757 13.9822 8.79864 14.1111C8.6697 14.2401 8.49484 14.3125 8.3125 14.3125C8.13016 14.3125 7.9553 14.2401 7.82636 14.1111C7.69743 13.9822 7.625 13.8073 7.625 13.625V8.125C7.62585 7.9566 7.68848 7.79437 7.80101 7.66909C7.91354 7.5438 8.06814 7.46417 8.23548 7.44531C8.40282 7.42645 8.57126 7.46966 8.70886 7.56675C8.84646 7.66383 8.94363 7.80805 8.98195 7.97203C9.44704 7.65653 9.98927 7.47368 10.5504 7.4431C11.1116 7.41253 11.6705 7.53539 12.1671 7.79849C12.6637 8.06159 13.0793 8.455 13.3692 8.93646C13.659 9.41792 13.8123 9.96925 13.8125 10.5312ZM6.59375 5.71875C6.59375 5.92271 6.53327 6.12209 6.41995 6.29168C6.30664 6.46127 6.14558 6.59345 5.95714 6.6715C5.76871 6.74955 5.56136 6.76998 5.36131 6.73019C5.16127 6.69039 4.97752 6.59218 4.8333 6.44795C4.68907 6.30373 4.59086 6.11998 4.55106 5.91994C4.51127 5.71989 4.5317 5.51254 4.60975 5.32411C4.6878 5.13567 4.81998 4.97461 4.98957 4.8613C5.15916 4.74798 5.35854 4.6875 5.5625 4.6875C5.836 4.6875 6.09831 4.79615 6.2917 4.98955C6.4851 5.18294 6.59375 5.44525 6.59375 5.71875Z" fill="#512070"/>
</svg>
