<svg width="20" height="17" viewBox="0 0 20 17" fill="none" xmlns="http://www.w3.org/2000/svg">
<path d="M13.1316 7.92766L9.00656 5.17766C8.903 5.10856 8.78262 5.06889 8.65827 5.06286C8.53392 5.05684 8.41027 5.08469 8.30051 5.14345C8.19075 5.20221 8.09901 5.28967 8.03508 5.3965C7.97115 5.50333 7.93742 5.62551 7.9375 5.75V11.25C7.93742 11.3745 7.97115 11.4967 8.03508 11.6035C8.09901 11.7103 8.19075 11.7978 8.30051 11.8566C8.41027 11.9153 8.53392 11.9432 8.65827 11.9371C8.78262 11.9311 8.903 11.8914 9.00656 11.8223L13.1316 9.07235C13.2259 9.00959 13.3032 8.9245 13.3567 8.82465C13.4102 8.7248 13.4382 8.61328 13.4382 8.5C13.4382 8.38673 13.4102 8.27521 13.3567 8.17536C13.3032 8.0755 13.2259 7.99042 13.1316 7.92766ZM9.3125 9.96524V7.03907L11.5108 8.5L9.3125 9.96524ZM19.1377 3.47438C19.0568 3.15757 18.9016 2.86455 18.6851 2.6195C18.4686 2.37445 18.1969 2.18439 17.8925 2.065C14.9466 0.927191 10.2578 0.937503 10 0.937503C9.74219 0.937503 5.05344 0.927191 2.1075 2.065C1.80308 2.18439 1.5314 2.37445 1.31489 2.6195C1.09838 2.86455 0.943241 3.15757 0.862266 3.47438C0.639688 4.33203 0.375 5.89953 0.375 8.5C0.375 11.1005 0.639688 12.668 0.862266 13.5256C0.94312 13.8426 1.09821 14.1358 1.31472 14.381C1.53124 14.6262 1.80298 14.8164 2.1075 14.9359C4.92969 16.0247 9.34687 16.0625 9.94328 16.0625H10.0567C10.6531 16.0625 15.0729 16.0247 17.8925 14.9359C18.197 14.8164 18.4688 14.6262 18.6853 14.381C18.9018 14.1358 19.0569 13.8426 19.1377 13.5256C19.3603 12.6663 19.625 11.1005 19.625 8.5C19.625 5.89953 19.3603 4.33203 19.1377 3.47438ZM17.8066 13.1853C17.7804 13.2908 17.7296 13.3885 17.6583 13.4705C17.5871 13.5525 17.4974 13.6165 17.3966 13.6571C14.6767 14.7073 10.0507 14.6884 10.006 14.6884H10C9.95359 14.6884 5.33102 14.7056 2.60938 13.6571C2.50863 13.6165 2.41896 13.5525 2.3477 13.4705C2.27645 13.3885 2.22564 13.2908 2.19945 13.1853C1.99062 12.4007 1.75 10.9552 1.75 8.5C1.75 6.04477 1.99063 4.5993 2.19344 3.81899C2.21914 3.71292 2.26973 3.6145 2.34101 3.53187C2.41229 3.44923 2.50222 3.38475 2.60336 3.34375C5.22617 2.33055 9.62102 2.3125 9.98109 2.3125H10.0043C10.0507 2.3125 14.6776 2.29703 17.3949 3.34375C17.4957 3.38441 17.5853 3.44837 17.6566 3.53038C17.7278 3.61239 17.7787 3.71011 17.8048 3.81555C18.0094 4.5993 18.25 6.04477 18.25 8.5C18.25 10.9552 18.0094 12.4007 17.8066 13.181V13.1853Z" fill="#512070"/>
</svg>
