<svg width="21" height="16" viewBox="0 0 21 16" fill="none" xmlns="http://www.w3.org/2000/svg">
<path d="M13.6316 7.42766L9.50656 4.67766C9.403 4.60856 9.28262 4.56889 9.15827 4.56286C9.03392 4.55684 8.91027 4.58469 8.80051 4.64345C8.69075 4.70221 8.59901 4.78967 8.53508 4.8965C8.47115 5.00333 8.43742 5.12551 8.4375 5.25V10.75C8.43742 10.8745 8.47115 10.9967 8.53508 11.1035C8.59901 11.2103 8.69075 11.2978 8.80051 11.3566C8.91027 11.4153 9.03392 11.4432 9.15827 11.4371C9.28262 11.4311 9.403 11.3914 9.50656 11.3223L13.6316 8.57235C13.7259 8.50959 13.8032 8.4245 13.8567 8.32465C13.9102 8.2248 13.9382 8.11328 13.9382 8C13.9382 7.88673 13.9102 7.77521 13.8567 7.67536C13.8032 7.5755 13.7259 7.49042 13.6316 7.42766ZM9.8125 9.46524V6.53907L12.0108 8L9.8125 9.46524ZM19.6377 2.97438C19.5568 2.65757 19.4016 2.36455 19.1851 2.1195C18.9686 1.87445 18.6969 1.68439 18.3925 1.565C15.4466 0.427191 10.7578 0.437503 10.5 0.437503C10.2422 0.437503 5.55344 0.427191 2.6075 1.565C2.30308 1.68439 2.0314 1.87445 1.81489 2.1195C1.59838 2.36455 1.44324 2.65757 1.36227 2.97438C1.13969 3.83203 0.875 5.39953 0.875 8C0.875 10.6005 1.13969 12.168 1.36227 13.0256C1.44312 13.3426 1.59821 13.6358 1.81472 13.881C2.03124 14.1262 2.30298 14.3164 2.6075 14.4359C5.42969 15.5247 9.84687 15.5625 10.4433 15.5625H10.5567C11.1531 15.5625 15.5729 15.5247 18.3925 14.4359C18.697 14.3164 18.9688 14.1262 19.1853 13.881C19.4018 13.6358 19.5569 13.3426 19.6377 13.0256C19.8603 12.1663 20.125 10.6005 20.125 8C20.125 5.39953 19.8603 3.83203 19.6377 2.97438ZM18.3066 12.6853C18.2804 12.7908 18.2296 12.8885 18.1583 12.9705C18.0871 13.0525 17.9974 13.1165 17.8966 13.1571C15.1767 14.2073 10.5507 14.1884 10.506 14.1884H10.5C10.4536 14.1884 5.83102 14.2056 3.10938 13.1571C3.00863 13.1165 2.91896 13.0525 2.8477 12.9705C2.77645 12.8885 2.72564 12.7908 2.69945 12.6853C2.49062 11.9007 2.25 10.4552 2.25 8C2.25 5.54477 2.49063 4.0993 2.69344 3.31899C2.71914 3.21292 2.76973 3.1145 2.84101 3.03187C2.91229 2.94923 3.00222 2.88475 3.10336 2.84375C5.72617 1.83055 10.121 1.8125 10.4811 1.8125H10.5043C10.5507 1.8125 15.1776 1.79703 17.8949 2.84375C17.9957 2.88441 18.0853 2.94837 18.1566 3.03038C18.2278 3.11239 18.2787 3.21011 18.3048 3.31555C18.5094 4.0993 18.75 5.54477 18.75 8C18.75 10.4552 18.5094 11.9007 18.3066 12.681V12.6853Z" fill="white"/>
</svg>
