<svg width="75" height="70" viewBox="0 0 75 70" fill="none" xmlns="http://www.w3.org/2000/svg">
<path d="M60.3071 39.0031L62.4849 36.0484L62.9374 39.9122L66.1616 38.7758L64.7475 42.2825L68 43.354L65.1152 45.3996L67.3778 48.3218L63.9839 48.2893L64.493 52.1207L61.6647 50.0102L60.3071 53.5494L58.9213 50.0102L56.093 52.1207L56.6021 48.2893L53.2082 48.3218L55.4708 45.3996L52.5859 43.354L55.8385 42.2825L54.4243 38.7758L57.6485 39.9122L58.1011 36.0484L60.3071 39.0031Z" stroke="#D8AE3A" stroke-width="6" stroke-miterlimit="10"/>
<path d="M34.5978 32.8664C34.5978 32.4767 34.3433 32.1845 34.0321 32.1845H32.1372L33.919 33.5158H34.0321C34.3433 33.5158 34.5978 33.2235 34.5978 32.8664Z" fill="#F7941E"/>
<path d="M2.66698 49.8803L2.52556 49.8153C1.98819 49.6854 1.6488 49.0685 1.79021 48.4516L2.66698 44.1657C2.80839 43.5488 3.34576 43.1591 3.88314 43.3215L4.02455 43.3539L2.66698 49.8803Z" fill="#ED1C24"/>
<path d="M53.8021 53.1597L53.9435 53.1272C54.4809 52.9324 54.792 52.3155 54.6506 51.6986L53.5758 47.4775C53.4344 46.8606 52.8688 46.5035 52.3597 46.6658L52.2183 46.7308L53.8021 53.1597Z" fill="#565656"/>
<path d="M2.35571 52.4129C2.35571 52.4129 2.52541 43.4838 7.4466 36.2432C9.28498 33.5482 11.3496 32.0871 13.5557 32.0871H33.3536C34.3435 32.0871 34.3152 32.8339 34.3435 33.4508L34.5697 33.7755L39.5758 40.0421C40.0283 40.5941 40.4243 40.9837 41.0465 41.146L49.0222 43.7111C50.0404 44.0358 52.0767 44.7177 52.8687 47.2503L54.4525 53.7441L53.406 55.3676H50.4929C50.4646 55.2377 50.606 55.1078 50.606 54.978C50.804 54.1662 50.8606 53.1272 50.8606 52.8999C50.8606 48.6789 47.8626 45.2696 44.1859 45.2696C40.0849 45.2696 37.0303 49.4582 37.6243 54.0039C37.6243 54.0039 36.9172 54.5234 37.0021 54.8481C36.9738 54.978 36.8606 55.2377 36.8324 55.3676H20.2587C20.2398 55.2377 20.221 55.1078 20.2021 54.978C20.3718 54.3286 20.4567 53.6143 20.4567 52.8999C20.4567 48.6789 17.487 45.2696 13.8102 45.2696C10.1335 45.2696 7.16378 48.6789 7.16378 52.8999C7.16378 53.6143 7.24862 54.3286 7.41832 54.978C7.39947 55.1078 7.38061 55.2377 7.36175 55.3676H2.35571V52.4129Z" fill="#D44626"/>
<path d="M28.1494 35.9509C28.1494 35.3016 28.6019 34.782 29.1393 34.782H31.9676C32.5898 34.782 33.1837 35.1392 33.5797 35.7237L36.9453 40.2694C37.1999 40.6265 36.9736 41.1785 36.5494 41.1785H29.1393C28.6019 41.1785 28.1494 40.659 28.1494 40.0421V35.9509Z" fill="#82B79E"/>
<path d="M12.0002 41.1785C12.5659 41.1785 13.0467 40.6915 13.1032 40.0421L13.4426 35.9509C13.4992 35.334 13.0749 34.782 12.5376 34.782H11.1234C10.5012 34.782 9.85071 34.9119 8.35173 37.1198C7.2487 38.7758 6.73961 40.2369 6.73961 40.2369C6.48507 40.6265 6.71133 41.1785 7.13557 41.1785H12.0002Z" fill="#82B79E"/>
<path d="M28.5171 43.1267C28.5171 43.5812 28.8282 43.9709 29.2242 43.9709H30.6666C31.0625 43.9709 31.4019 43.5812 31.4019 43.1267C31.4019 42.6721 31.0625 42.3149 30.6666 42.3149H29.2242C28.8282 42.3149 28.5171 42.6721 28.5171 43.1267Z" fill="#D2D3CD"/>
<path fill-rule="evenodd" clip-rule="evenodd" d="M27.0469 51.796V34.9444C27.0469 34.2625 27.556 33.6781 28.1499 33.6781H32.4489C33.1277 33.6781 33.7499 34.0353 34.1741 34.5872L38.8973 40.8538C39.3216 41.4383 39.5761 42.1526 39.5761 42.9319V45.8541C39.5761 46.5035 38.4448 47.1853 37.9357 47.8672C36.9741 49.1335 36.7478 50.692 36.6913 51.796C36.663 52.5103 36.2105 53.0623 35.6448 53.0623H28.1499C27.556 53.0623 27.0469 52.5103 27.0469 51.796ZM28.1499 33.9054C27.6408 33.9054 27.2166 34.36 27.2166 34.9444V51.796C27.2166 52.3804 27.6408 52.8675 28.1499 52.8675H35.6448C36.0973 52.8675 36.4933 52.3804 36.5216 51.796C36.5499 50.6596 36.8044 49.0361 37.7943 47.7373C38.2751 47.0879 39.4064 46.471 39.4064 45.8541V42.9319C39.4064 42.2175 39.1802 41.5357 38.7559 40.9837L34.0327 34.7171C33.6367 34.1976 33.0711 33.9054 32.4489 33.9054H28.1499Z" fill="#565656"/>
<path d="M25.3494 35.9509C25.3494 35.3016 24.8968 34.782 24.3595 34.782H16.5817C16.0161 34.782 15.5635 35.3016 15.5352 35.9509L15.309 40.0421C15.2524 40.659 15.7049 41.1785 16.2423 41.1785H24.3595C24.8968 41.1785 25.3494 40.659 25.3494 40.0421V35.9509Z" fill="#82B79E"/>
<path d="M17.7979 43.1267C17.7979 43.5812 17.4868 43.9709 17.0909 43.9709H15.6202C15.2242 43.9709 14.9131 43.5812 14.9131 43.1267C14.9131 42.6721 15.2242 42.3149 15.6202 42.3149H17.0909C17.4868 42.3149 17.7979 42.6721 17.7979 43.1267Z" fill="#D2D3CD"/>
<path fill-rule="evenodd" clip-rule="evenodd" d="M21.1924 51.8284C20.8813 49.3283 19.3823 46.2762 16.752 45.0099C15.847 44.5878 13.9237 44.6852 14.0086 43.5163L14.4611 34.9444C14.4894 34.2301 14.9985 33.6781 15.5924 33.6781H25.4065C26.0005 33.6781 26.4813 34.2625 26.4813 34.9444V51.796C26.4813 52.5103 26.0005 53.0623 25.4065 53.0623H22.3237C21.758 53.0623 21.2772 52.5428 21.1924 51.8284ZM15.5924 33.9054C15.0833 33.9054 14.6591 34.36 14.6308 34.9444L14.2066 43.5163C14.2066 44.4904 15.847 44.393 16.8368 44.8151C19.552 46.0164 21.051 49.2309 21.3621 51.796C21.4469 52.4129 21.8429 52.8675 22.3237 52.8675H25.4065C25.9156 52.8675 26.3116 52.3804 26.3116 51.796V34.9444C26.3116 34.36 25.9156 33.9054 25.4065 33.9054H15.5924Z" fill="#565656"/>
<path d="M19.9193 53.0623C19.9193 56.8612 17.2324 59.9782 13.8951 59.9782C10.5577 59.9782 7.87085 56.8612 7.87085 53.0623C7.87085 49.2309 10.5577 46.1463 13.8951 46.1463C17.2324 46.1463 19.9193 49.2309 19.9193 53.0623Z" fill="#2D2A2F"/>
<path fill-rule="evenodd" clip-rule="evenodd" d="M10.5012 53.0623C10.5012 50.9193 12.0285 49.166 13.8951 49.166C15.7618 49.166 17.2608 50.9193 17.2608 53.0623C17.2608 55.1728 15.7618 56.9261 13.8951 56.9261C12.0285 56.9261 10.5012 55.1728 10.5012 53.0623ZM10.6992 53.0623C10.6992 55.0754 12.1133 56.7313 13.8951 56.7313C15.6487 56.7313 17.0911 55.0754 17.0911 53.0623C17.0911 51.0167 15.6487 49.3608 13.8951 49.3608C12.1133 49.3608 10.6992 51.0167 10.6992 53.0623Z" fill="black"/>
<path d="M17.9679 53.0622C17.9679 55.6273 16.1578 57.7378 13.8952 57.7378C11.6326 57.7378 9.82251 55.6273 9.82251 53.0622C9.82251 50.4647 11.6326 48.3542 13.8952 48.3542C16.1578 48.3542 17.9679 50.4647 17.9679 53.0622Z" fill="#B9B9B9"/>
<path d="M17.1761 53.0622C17.1761 55.1403 15.7054 56.8287 13.8953 56.8287C12.0852 56.8287 10.6145 55.1403 10.6145 53.0622C10.6145 50.9517 12.0852 49.2633 13.8953 49.2633C15.7054 49.2633 17.1761 50.9517 17.1761 53.0622Z" fill="#73716B"/>
<path d="M15.7901 53.0623C15.7901 54.2636 14.9416 55.2377 13.8952 55.2377C12.8487 55.2377 12.0002 54.2636 12.0002 53.0623C12.0002 51.8285 12.8487 50.8544 13.8952 50.8544C14.9416 50.8544 15.7901 51.8285 15.7901 53.0623Z" fill="#F9F8F9"/>
<path d="M49.814 45.8216C50.0402 45.3671 50.6342 45.2372 50.917 45.6593C51.3978 46.3736 51.6523 46.7632 52.0483 47.9321C52.218 48.4192 51.7938 48.9387 51.3412 48.9387C50.8604 47.9646 51.1715 48.5815 49.814 45.8216Z" fill="#B3F9FA"/>
<path d="M20.0039 56.1144H35.7574C36.7756 56.1144 37.624 55.1728 37.624 54.0039H36.8038H20.3716L20.0039 56.1144Z" fill="#565656"/>
<path d="M50.1534 53.0623C50.1534 56.8612 47.4383 59.9782 44.1292 59.9782C40.7918 59.9782 38.105 56.8612 38.105 53.0623C38.105 49.2309 40.7918 46.1463 44.1292 46.1463C47.4383 46.1463 50.1534 49.2309 50.1534 53.0623Z" fill="#2D2A2F"/>
<path fill-rule="evenodd" clip-rule="evenodd" d="M40.7354 53.0623C40.7354 50.9193 42.2626 49.166 44.1293 49.166C45.9959 49.166 47.4949 50.9193 47.4949 53.0623C47.4949 55.1728 45.9959 56.9261 44.1293 56.9261C42.2626 56.9261 40.7354 55.1728 40.7354 53.0623ZM40.905 53.0623C40.905 55.0754 42.3475 56.7313 44.1293 56.7313C45.8828 56.7313 47.3252 55.0754 47.3252 53.0623C47.3252 51.0167 45.8828 49.3608 44.1293 49.3608C42.3475 49.3608 40.905 51.0167 40.905 53.0623Z" fill="black"/>
<path d="M48.202 53.0622C48.202 55.6273 46.3637 57.7378 44.1293 57.7378C41.8667 57.7378 40.0283 55.6273 40.0283 53.0622C40.0283 50.4647 41.8667 48.3542 44.1293 48.3542C46.3637 48.3542 48.202 50.4647 48.202 53.0622Z" fill="#B9B9B9"/>
<path d="M47.4097 53.0622C47.4097 55.1403 45.939 56.8287 44.1289 56.8287C42.2905 56.8287 40.8198 55.1403 40.8198 53.0622C40.8198 50.9517 42.2905 49.2633 44.1289 49.2633C45.939 49.2633 47.4097 50.9517 47.4097 53.0622Z" fill="#73716B"/>
<path d="M46.0242 53.0623C46.0242 54.2636 45.1757 55.2377 44.1293 55.2377C43.0828 55.2377 42.2061 54.2636 42.2061 53.0623C42.2061 51.8285 43.0828 50.8544 44.1293 50.8544C45.1757 50.8544 46.0242 51.8285 46.0242 53.0623Z" fill="#F9F8F9"/>
<path d="M7.24864 51.6011C6.9941 53.3869 7.27693 55.1078 7.984 56.5689H2.32745C1.7618 56.5689 1.33755 56.0494 1.36584 55.4325L1.47897 52.7376C1.50725 52.0882 1.98806 51.6011 2.52543 51.6011H7.24864Z" fill="#565656"/>
<path d="M50.7476 51.6011H54.5657C55.1031 51.6011 55.5556 52.1206 55.5556 52.7376V55.4325C55.5556 56.0494 55.1031 56.5689 54.5657 56.5689H50.0122C50.7193 55.0754 51.0021 53.3869 50.7476 51.6011Z" fill="#565656"/>
<path d="M55.1592 14.5212C55.0273 13.98 54.8199 13.4605 54.537 12.9627C52.8966 10.008 49.4744 9.13129 46.8724 11.0145C45.9956 11.6639 45.3169 12.5406 44.8926 13.5471C43.1391 13.0601 41.2159 13.3848 39.5472 14.5861C36.323 16.9564 35.3896 21.8593 37.426 25.5608C37.69 26.037 37.9916 26.4699 38.331 26.8595L38.2462 26.892C37.7371 29.1973 38.0199 31.7299 39.2078 33.9054C41.4421 37.8991 46.0239 39.1654 49.5593 36.7951C49.6724 36.7302 49.7855 36.6544 49.8987 36.5679C51.9067 38.6459 54.933 39.0355 57.3087 37.3146C58.1289 36.6977 58.7512 35.9185 59.232 35.0418C59.2508 35.0201 59.2697 34.9985 59.2885 34.9769C61.9754 33.0287 62.8522 29.0674 61.3815 25.9179C62.6259 23.5152 62.6542 20.4631 61.2683 17.9629C59.9107 15.5277 57.535 14.2939 55.1592 14.5212Z" fill="#469105"/>
<path d="M51.7085 29.6843L53.3772 28.4505L61.7771 43.5812L60.1085 44.7826L51.7085 29.6843Z" fill="#605113"/>
<path d="M57.7614 39.9122C56.8281 39.6849 56.0362 39.068 55.5271 38.1588L49.5312 27.379L49.1069 27.6713L55.2443 38.7433C56.0362 40.1719 57.3089 41.1785 58.7513 41.5356L57.7614 39.9122Z" fill="#605113"/>
<path d="M52.2462 33.3858L50.323 32.8663C49.7291 32.7364 49.022 32.5416 48.2301 31.0155L44.8362 24.9438L44.6382 25.1061L48.1735 31.4376C48.9654 32.8663 49.5311 33.0936 50.4079 33.3209C51.7089 33.6456 52.1048 33.8404 52.6705 34.0027L52.4159 33.5157L52.2462 33.3858Z" fill="#605113"/>
<path d="M56.9417 37.8666L57.4225 35.2041C57.5922 34.4249 57.7619 33.4183 56.7437 31.665L52.7275 24.4568L52.9538 24.2944L57.1396 31.8273C58.073 33.5157 58.0447 34.3599 57.7901 35.5613C57.4508 37.3146 57.4508 37.8991 57.3093 38.6783L56.9699 38.0939L56.9417 37.8666Z" fill="#605113"/>
<path d="M57.5348 20.3332C56.8843 19.1967 55.9792 18.4175 54.9611 18.0278C54.8668 17.833 54.7725 17.6382 54.6782 17.4434C52.7833 14.0666 48.852 13.06 45.8823 15.2355C43.4783 16.9888 42.4601 20.3332 43.1954 23.3528C41.951 25.236 41.7813 27.866 42.9409 29.9766C44.4399 32.6715 47.551 33.4508 49.8985 31.7299C50.2756 31.4485 50.615 31.1238 50.9166 30.7558C52.0197 31.9247 53.6883 32.1195 55.0176 31.1779C56.0075 30.4311 56.5449 29.2298 56.5732 27.9959L56.4883 27.8011C58.4116 25.9828 58.8924 22.8008 57.5348 20.3332Z" fill="#469105"/>
<path d="M44.6096 25.9179C43.8742 22.8982 44.8924 19.5539 47.3247 17.8006C50.2661 15.6251 54.1974 16.5992 56.0924 20.0085C56.2055 20.2033 56.2998 20.3981 56.3752 20.5929C56.9974 20.8202 57.5914 21.2098 58.0722 21.7293C57.959 21.2531 57.7799 20.7877 57.5348 20.3332C56.8843 19.1967 55.9792 18.4175 54.9611 18.0278C54.8668 17.833 54.7725 17.6382 54.6782 17.4434C52.7833 14.0666 48.852 13.06 45.8823 15.2355C43.4783 16.9888 42.4601 20.3332 43.1954 23.3528C41.951 25.236 41.7813 27.866 42.9409 29.9766C43.186 30.4095 43.4688 30.7991 43.7894 31.1454C43.3086 29.3596 43.6197 27.379 44.6096 25.9179Z" fill="#5EB725"/>
<path d="M60.3066 46.0164H62.2581V59.9782H60.3066V46.0164Z" fill="#605113"/>
</svg>
