<svg width="70" height="70" viewBox="0 0 70 70" fill="none" xmlns="http://www.w3.org/2000/svg">
<path fill-rule="evenodd" clip-rule="evenodd" d="M53.2006 62.1382V57.4258H42.9513V62.1382C42.9513 63.4933 44.0465 64.6091 45.3947 64.6398H50.7606C52.109 64.6089 53.2006 63.4933 53.2006 62.1382ZM19.2258 62.1382L19.2326 57.0562H8.98337L8.97657 62.1382C8.97317 63.4933 10.0682 64.6091 11.4199 64.6398H16.7824C18.1307 64.6089 19.2224 63.4933 19.2258 62.1382Z" fill="#736572"/>
<path fill-rule="evenodd" clip-rule="evenodd" d="M19.2258 62.1382L19.2326 57.0562H8.98336L8.97656 60.7043H16.625V62.1382C16.6216 63.4933 15.5299 64.6091 14.1817 64.6398H16.7825C18.1307 64.6089 19.2224 63.4933 19.2258 62.1382ZM53.2005 62.1382V57.4258H42.9513V60.7043H50.5998V62.1382C50.5998 63.4933 49.5082 64.6091 48.1564 64.6398H50.7607C52.1089 64.6089 53.2005 63.4933 53.2005 62.1382Z" fill="#615260"/>
<path fill-rule="evenodd" clip-rule="evenodd" d="M10.6363 41.5912L13.7264 34.9727H8.28523C6.49203 34.9727 5.02051 36.4374 5 38.2375V38.323C5.02051 40.1266 6.49203 41.5913 8.28523 41.5913H10.6363V41.5912Z" fill="#E2D8EC"/>
<path fill-rule="evenodd" clip-rule="evenodd" d="M10.6363 41.5912L11.5945 39.5412H9.23996C7.44676 39.5412 5.97863 38.0765 5.95473 36.2764V36.1908C5.95813 36.1053 5.96152 36.0231 5.96844 35.941C5.3798 36.5297 5.01031 37.3442 5 38.2374V38.3229C5.02051 40.1264 6.49203 41.5912 8.28523 41.5912H10.6363Z" fill="#D5C6E4"/>
<path fill-rule="evenodd" clip-rule="evenodd" d="M31.1418 29.5142L39.1084 27.7997L36.9525 23.036C36.8225 22.7793 36.7164 22.5124 36.4289 22.5124H25.8238C25.355 22.5124 25.3721 22.5876 25.1668 22.9881L22.9902 27.7997L31.1418 29.5142Z" fill="#9DC6FB"/>
<path fill-rule="evenodd" clip-rule="evenodd" d="M57.0984 38.2819C57.0984 36.4613 55.6201 34.9727 53.8132 34.9727H48.3721L51.4623 41.5912H53.8133C55.6201 41.5912 57.0984 40.1024 57.0984 38.2819Z" fill="#E2D8EC"/>
<path fill-rule="evenodd" clip-rule="evenodd" d="M53.813 41.5912C55.62 41.5912 57.0983 40.1026 57.0983 38.282C57.0983 37.3683 56.7253 36.5401 56.1298 35.9412C56.1366 36.037 56.1402 36.1328 56.1402 36.232C56.1402 38.0526 54.6618 39.5413 52.8549 39.5413H50.5039L51.4621 41.5912H53.813Z" fill="#D5C6E4"/>
<path fill-rule="evenodd" clip-rule="evenodd" d="M55.2436 56.4949V48.7949C55.2436 47.1591 55.312 47.2481 54.6174 45.7697L52.6668 41.5912L49.5765 34.9727L47.8004 31.1637C46.3118 27.9742 46.0449 27.7997 43.1909 27.7997H18.9041C16.0535 27.7997 15.7866 27.9742 14.2979 31.1637L12.5185 34.9727L9.42833 41.5912L7.47775 45.7697C6.78646 47.2516 6.8549 47.1591 6.8549 48.7949V56.4949C6.8549 57.6037 7.76181 58.514 8.87052 58.514H53.228C54.3367 58.514 55.2436 57.6037 55.2436 56.4949Z" fill="#F05543"/>
<path fill-rule="evenodd" clip-rule="evenodd" d="M20.7519 53.254C23.1338 53.2027 23.0824 50.5778 21.4227 49.541L17.8979 47.3507C16.2553 46.331 12.6416 45.5575 12.6416 49.4349V51.0468C12.6416 52.2583 13.6305 53.2542 14.8352 53.2542H20.7519V53.254Z" fill="#F9F3F1"/>
<path fill-rule="evenodd" clip-rule="evenodd" d="M14.9585 41.5912H47.1401L43.2628 33.282C43.1978 33.1417 43.1225 32.9808 43.0438 32.8098H19.0514C18.9726 32.9808 18.9008 33.1417 18.8358 33.282L14.9585 41.5912Z" fill="#9DC6FB"/>
<path fill-rule="evenodd" clip-rule="evenodd" d="M49.5763 34.9726L47.8002 31.1636C46.3115 27.9741 46.0446 27.7996 43.1906 27.7996H36.6235H36.6338C39.4229 27.803 39.6967 27.9981 41.175 31.1636L41.9415 32.8097H43.0434C43.1222 32.9808 43.1974 33.1417 43.2624 33.282L47.1397 41.5912H46.0412L47.9918 45.7697C48.2621 46.3447 48.4161 46.6834 48.5051 46.9778C49.0732 47.4091 49.4564 48.1756 49.4564 49.435V51.0469C49.4564 51.745 49.1279 52.3714 48.6179 52.7786V56.4951C48.6179 57.6039 47.711 58.5142 46.6023 58.5142H53.2276C54.3363 58.5142 55.2432 57.6039 55.2432 56.4951V48.7952C55.2432 47.1593 55.3117 47.2483 54.617 45.77L52.6664 41.5914L49.5763 34.9726Z" fill="#FC6559"/>
<path fill-rule="evenodd" clip-rule="evenodd" d="M49.457 49.4349C49.457 45.5575 45.8432 46.331 44.2006 47.3507L40.6759 49.541C39.0127 50.5778 38.9648 53.2027 41.3466 53.254H47.2634C48.468 53.254 49.4571 52.2582 49.4571 51.0467L49.457 49.4349Z" fill="#F9F3F1"/>
<path fill-rule="evenodd" clip-rule="evenodd" d="M47.1396 41.5912L43.2624 33.282C43.1973 33.1417 43.1221 32.9808 43.0433 32.8098H39.1558C39.2345 32.9808 39.3063 33.1417 39.3714 33.282L43.2521 41.5912H47.1396Z" fill="#80B4FB"/>
<path fill-rule="evenodd" clip-rule="evenodd" d="M20.752 53.2541C22.5589 53.2164 22.9662 51.697 22.333 50.5129C22.0489 50.9442 21.5254 51.2452 20.7349 51.2623H14.8181C13.7059 51.2623 12.782 50.4171 12.6416 49.3357V51.0468C12.6416 52.2583 13.6305 53.2542 14.8352 53.2542H20.752V53.2541ZM48.6184 52.7784C49.1283 52.3712 49.4569 51.7449 49.4569 51.0467V49.4348C49.4569 49.2808 49.4501 49.1336 49.4398 48.9933V49.055C49.4398 50.2665 48.4508 51.2623 47.2461 51.2623H41.3293C40.5559 51.2452 40.0392 50.9578 39.7518 50.5402C39.1392 51.7209 39.5532 53.2164 41.3464 53.2541H47.2632C47.7731 53.2541 48.2454 53.0762 48.6184 52.7784Z" fill="#E2D8EC"/>
<path d="M35.7271 48.1946H26.5524C26.4335 48.1946 26.3157 48.1712 26.2059 48.1257C26.096 48.0802 25.9962 48.0135 25.9121 47.9294C25.828 47.8453 25.7614 47.7455 25.7159 47.6357C25.6704 47.5258 25.647 47.4081 25.647 47.2892C25.647 47.1703 25.6704 47.0525 25.7159 46.9427C25.7614 46.8328 25.828 46.733 25.9121 46.6489C25.9962 46.5649 26.096 46.4982 26.2059 46.4527C26.3157 46.4072 26.4335 46.3838 26.5524 46.3838H35.7271C35.846 46.3838 35.9637 46.4072 36.0736 46.4527C36.1834 46.4982 36.2833 46.5649 36.3673 46.6489C36.4514 46.733 36.5181 46.8328 36.5636 46.9427C36.6091 47.0525 36.6325 47.1703 36.6325 47.2892C36.6325 47.4081 36.6091 47.5258 36.5636 47.6357C36.5181 47.7455 36.4514 47.8453 36.3673 47.9294C36.2833 48.0135 36.1834 48.0802 36.0736 48.1257C35.9637 48.1712 35.846 48.1946 35.7271 48.1946ZM33.6431 52.0547H28.6401C28.5212 52.0547 28.4034 52.0313 28.2936 51.9858C28.1837 51.9403 28.0839 51.8737 27.9998 51.7896C27.9157 51.7055 27.849 51.6057 27.8036 51.4958C27.7581 51.386 27.7347 51.2682 27.7347 51.1493C27.7347 51.0304 27.7581 50.9127 27.8036 50.8028C27.849 50.693 27.9157 50.5932 27.9998 50.5091C28.0839 50.425 28.1837 50.3583 28.2936 50.3128C28.4034 50.2673 28.5212 50.2439 28.6401 50.2439H33.6431C33.8833 50.2439 34.1136 50.3393 34.2834 50.5091C34.4531 50.6789 34.5485 50.9092 34.5485 51.1493C34.5485 51.3895 34.4531 51.6198 34.2834 51.7895C34.1136 51.9593 33.8833 52.0547 33.6431 52.0547Z" fill="#615260"/>
<path fill-rule="evenodd" clip-rule="evenodd" d="M50.0317 5.36023C58.2995 5.36023 65.0001 12.0609 65.0001 20.3255C65.0001 28.5936 58.2995 35.2943 50.0317 35.2943C47.6876 35.2943 45.4666 34.7535 43.4921 33.7919L35.9498 35.4174L37.7635 28.8982C36.0627 26.4718 35.0635 23.515 35.0635 20.3255C35.0634 12.0609 41.7673 5.36023 50.0317 5.36023Z" fill="#F9F3F1"/>
<path fill-rule="evenodd" clip-rule="evenodd" d="M41.945 14.833C40.9628 15.3053 40.7062 16.8179 41.3769 18.2107C42.0475 19.6035 43.3891 20.3496 44.3746 19.874C45.3568 19.4017 45.6134 17.8856 44.9428 16.4963C44.272 15.1034 42.9305 14.3572 41.945 14.833ZM50.0759 11.0993C48.9808 11.0993 48.0945 12.3518 48.0945 13.8987C48.0945 15.4456 48.9808 16.6981 50.0759 16.6981C51.1675 16.6981 52.0539 15.4456 52.0539 13.8987C52.0539 12.3518 51.1675 11.0993 50.0759 11.0993ZM55.2091 16.4961C54.5383 17.8855 54.7916 19.4016 55.7772 19.8738C56.7628 20.3495 58.1042 19.6035 58.775 18.2106C59.4458 16.8177 59.189 15.3052 58.2035 14.8329C57.2213 14.3572 55.8764 15.1034 55.2091 16.4961ZM50.0348 20.3359C49.5009 20.3359 48.9671 20.5788 48.4401 21.0717L46.1678 23.173C44.7203 24.5146 44.6518 27.5535 47.4136 27.5535C48.5394 27.5535 48.6798 26.9032 50.0349 26.9032C51.3901 26.9032 51.5304 27.5535 52.6563 27.5535C55.4179 27.5535 55.3495 24.5146 53.8985 23.173L51.6296 21.0717C51.0991 20.5788 50.5687 20.3359 50.0348 20.3359Z" fill="#5E5EEF"/>
<path fill-rule="evenodd" clip-rule="evenodd" d="M44.9432 16.4961C44.2724 15.1032 42.931 14.3572 41.9454 14.8329C41.7469 14.9288 41.5792 15.0656 41.439 15.2367C42.2158 15.3805 43.0199 16.0375 43.4888 17.0162C44.0227 18.125 43.9714 19.3125 43.4272 19.9901C43.7556 20.0482 44.0808 20.014 44.3751 19.8737C45.3572 19.4016 45.6139 17.8855 44.9432 16.4961ZM49.6622 11.1609C51.0277 12.1602 50.9353 15.952 49.3714 16.5132C49.5904 16.633 49.8265 16.6981 50.0764 16.6981C51.168 16.6981 52.0544 15.4456 52.0544 13.8987C52.0544 12.3518 51.1681 11.0993 50.0764 11.0993C49.9326 11.0993 49.7957 11.1233 49.6622 11.1609ZM57.783 14.7029C58.1184 15.3976 58.091 16.3969 57.6358 17.3414C57.0575 18.5426 55.9795 19.2647 55.0624 19.1346C55.2197 19.4631 55.4628 19.7232 55.7776 19.8738C56.7631 20.3495 58.1046 19.6035 58.7753 18.2106C59.4461 16.8177 59.1894 15.3052 58.2038 14.8329C58.0704 14.7645 57.9267 14.7234 57.783 14.7029ZM50.0353 20.3359C49.5013 20.3359 48.9676 20.5788 48.4406 21.0717L48.1907 21.3011C48.6288 21.3729 49.0668 21.6124 49.5049 22.0163L51.7771 24.1175C52.7079 24.9799 53.0672 26.5405 52.4752 27.5466C52.5333 27.5534 52.5916 27.5534 52.6566 27.5534C55.4183 27.5534 55.3498 24.5145 53.8988 23.1729L51.6299 21.0716C51.0996 20.5788 50.5692 20.3359 50.0353 20.3359Z" fill="#BEBEFB"/>
<path fill-rule="evenodd" clip-rule="evenodd" d="M53.1353 34.9726C59.9146 33.5422 64.9998 27.5293 64.9998 20.3255C64.9998 12.5914 59.1309 6.22602 51.6057 5.44238C57.4061 7.50254 61.5606 13.0396 61.5606 19.5487C61.5606 26.9064 56.2495 33.0254 49.2546 34.2813C48.3759 34.4384 47.485 34.5174 46.5923 34.5174C46.0619 34.5174 45.5383 34.49 45.0215 34.4353C46.1406 34.8328 47.3033 35.0948 48.4847 35.2155C48.8954 35.2565 49.3095 35.2839 49.7269 35.2907C49.8296 35.2941 49.9288 35.2941 50.0315 35.2941C51.0958 35.2943 52.1361 35.1848 53.1353 34.9726Z" fill="#E2D8EC"/>
</svg>
