<svg width="70" height="70" viewBox="0 0 70 70" fill="none" xmlns="http://www.w3.org/2000/svg">
<path d="M16.0403 21.385H22.9444C25.0893 21.385 27.1688 22.1231 28.8337 23.4753L33.8501 27.5494H5.18262L10.1167 23.5032C11.7869 22.1335 13.8802 21.385 16.0403 21.385Z" fill="#9DC6FB"/>
<path d="M28.8338 23.4753C27.1689 22.1231 25.0894 21.385 22.9445 21.385H17.686C19.8309 21.385 21.9104 22.1231 23.5753 23.4753L28.5917 27.5494H33.8502L28.8338 23.4753Z" fill="#80B4FB"/>
<path d="M29.4801 22.6793C27.6381 21.1835 25.3171 20.3596 22.9443 20.3596H16.0401C13.6434 20.3618 11.321 21.1923 9.46629 22.7104L2.31494 28.5748H36.7388L29.4801 22.6793ZM28.1872 24.2713L30.9609 26.5241H20.1331V22.4105H22.9443C24.8534 22.4125 26.704 23.0693 28.1872 24.2713ZM10.7668 24.2962C12.2545 23.0783 14.1175 22.4121 16.0401 22.4104H18.0824V26.524H8.05002L10.7668 24.2962Z" fill="#F05543"/>
<path d="M55.7539 13.1671C54.5647 13.1671 53.6006 14.1313 53.6006 15.3204V20.0495H57.9072V15.3204C57.9072 14.1313 56.9432 13.1671 55.7539 13.1671Z" fill="#FFD064"/>
<path d="M55.7539 13.1671C55.3612 13.1671 54.9942 13.2739 54.6772 13.4575C55.3202 13.8299 55.7539 14.5238 55.7539 15.3204V20.0495H57.9072V15.3204C57.9072 14.1313 56.9432 13.1671 55.7539 13.1671Z" fill="#FFC250"/>
<path d="M44.2817 42.1948L46.3578 37.0483C46.6892 36.2267 47.2587 35.5229 47.993 35.0273C48.7274 34.5316 49.5931 34.2668 50.4791 34.2668V42.1948H44.2817Z" fill="#30579D"/>
<path d="M48.0395 34.9982V37.4353C48.0395 38.5655 47.1232 39.4818 45.9929 39.4818H45.376L44.2817 42.1947H50.4791V34.2667C49.6119 34.267 48.7637 34.5213 48.0395 34.9982Z" fill="#26457D"/>
<path d="M69.3164 43.844H49.9989L49.9522 20.4135C49.9497 19.2792 50.8686 18.3582 52.0029 18.3582H54.4051C54.4051 18.3582 69.5691 29.642 69.7144 30.066C69.9035 30.6177 70 31.1968 70 31.78V33.6242L68.7867 35.9314L70 38.2385V41.4022L69.3164 43.844Z" fill="#F05543"/>
<path d="M57.0288 36.9568H54.4561C53.8896 36.9568 53.4307 36.4977 53.4307 35.9314C53.4307 35.3651 53.8896 34.906 54.4561 34.906H57.0288C57.3008 34.906 57.5616 35.014 57.7539 35.2063C57.9462 35.3986 58.0542 35.6594 58.0542 35.9314C58.0542 36.2033 57.9462 36.4641 57.7539 36.6564C57.5616 36.8487 57.3008 36.9568 57.0288 36.9568ZM62.5829 20.6104L59.9759 18.7312L57.0313 18.3582C57.4826 18.3582 57.9268 18.4699 58.3244 18.6833C58.7221 18.8967 59.0607 19.2052 59.3101 19.5813L65.4625 28.8586C66.0368 29.7247 66.3431 30.7408 66.3431 31.78V43.844H69.3163L69.9999 41.4022V38.2385L68.7865 35.9314L69.9999 33.6242V31.78C69.9999 31.1938 69.9024 30.6148 69.7143 30.066C69.5689 29.6422 62.5829 20.6104 62.5829 20.6104Z" fill="#E4936B"/>
<path d="M56.319 30.0672H69.7109C69.5659 29.6408 69.3671 29.2347 69.1191 28.8587L62.9667 19.5814C62.7172 19.2053 62.3786 18.8968 61.981 18.6834C61.5834 18.47 61.1391 18.3583 60.6878 18.3583H54.4048V28.1531C54.4049 29.2103 55.2619 30.0672 56.319 30.0672Z" fill="#9DC6FB"/>
<path d="M59.3102 19.5814L65.4626 28.8587C65.7105 29.2347 65.9094 29.6408 66.0543 30.0672H69.711C69.566 29.6408 69.3672 29.2347 69.1192 28.8587L62.9668 19.5814C62.7173 19.2053 62.3787 18.8968 61.9811 18.6834C61.5835 18.47 61.1392 18.3583 60.6879 18.3583H57.0312C57.4825 18.3583 57.9268 18.47 58.3245 18.6834C58.7221 18.8968 59.0608 19.2053 59.3102 19.5814Z" fill="#80B4FB"/>
<path d="M69.9998 33.6242H66.8652C65.591 33.6242 64.5581 34.6571 64.5581 35.9313C64.5581 37.2056 65.591 38.2385 66.8652 38.2385H69.9998V33.6242Z" fill="#FFE07D"/>
<path d="M68.5091 33.6242V35.7872C68.5091 36.042 68.4079 36.2863 68.2278 36.4665C68.0476 36.6466 67.8033 36.7478 67.5485 36.7478H65.3746C65.1283 36.7478 64.8915 36.7084 64.6689 36.6369C64.9671 37.5658 65.8372 38.2385 66.8652 38.2385H69.9999V33.6242H68.5091Z" fill="#FFD064"/>
<path d="M0 43.4531V47.638C0 48.7706 0.918203 49.6888 2.05078 49.6888H68.0261C69.1162 49.6888 70 48.7147 70 47.5129V41.4023H2.05078C0.918203 41.4023 0 42.3203 0 43.4531Z" fill="#FC6559"/>
<path d="M66.3433 41.4023L66.3463 45.3447C66.3464 45.4346 66.3287 45.5237 66.2943 45.6068C66.26 45.6899 66.2096 45.7654 66.146 45.829C66.0825 45.8926 66.007 45.943 65.9239 45.9775C65.8409 46.0119 65.7518 46.0296 65.6619 46.0297H0V47.638C0 48.7706 0.918203 49.6888 2.05078 49.6888H68.0261C69.1162 49.6888 70 48.7147 70 47.5129V41.4023H66.3433Z" fill="#30579D"/>
<path d="M56.3357 55.8074C58.7049 55.8074 60.6255 53.8867 60.6255 51.5175C60.6255 49.1483 58.7049 47.2277 56.3357 47.2277C53.9665 47.2277 52.0459 49.1483 52.0459 51.5175C52.0459 53.8867 53.9665 55.8074 56.3357 55.8074Z" fill="#F9F6F9"/>
<path d="M58.013 47.5684C58.2385 48.099 58.3544 48.6696 58.3537 49.2461C58.3537 51.6153 56.4331 53.5359 54.0639 53.5359C53.4874 53.5367 52.9168 53.4208 52.3862 53.1952C53.0393 54.7306 54.5616 55.8074 56.3353 55.8074C58.7045 55.8074 60.6252 53.8867 60.6252 51.5175C60.6252 49.7438 59.5485 48.2215 58.013 47.5684Z" fill="#DDDAEC"/>
<path d="M56.3354 56.8329C53.4044 56.8329 51.02 54.4485 51.02 51.5177C51.02 48.5868 53.4044 46.2025 56.3354 46.2025C59.2662 46.2025 61.6506 48.5868 61.6506 51.5177C61.6506 54.4485 59.2662 56.8329 56.3354 56.8329ZM56.3354 48.2531C54.5353 48.2531 53.0708 49.7175 53.0708 51.5175C53.0708 53.3176 54.5353 54.782 56.3354 54.782C58.1354 54.782 59.5998 53.3176 59.5998 51.5175C59.5998 49.7175 58.1354 48.2531 56.3354 48.2531Z" fill="#26457D"/>
<path d="M9.29349 55.8074C11.6627 55.8074 13.5833 53.8867 13.5833 51.5175C13.5833 49.1483 11.6627 47.2277 9.29349 47.2277C6.92428 47.2277 5.00366 49.1483 5.00366 51.5175C5.00366 53.8867 6.92428 55.8074 9.29349 55.8074Z" fill="#F9F6F9"/>
<path d="M10.9715 47.5684C11.197 48.099 11.3129 48.6696 11.3122 49.2461C11.3122 51.6153 9.3916 53.5359 7.0224 53.5359C6.44592 53.5367 5.87525 53.4208 5.34473 53.1952C5.99783 54.7306 7.52006 55.8074 9.29385 55.8074C11.663 55.8074 13.5837 53.8867 13.5837 51.5175C13.5837 49.7438 12.5069 48.2215 10.9715 47.5684Z" fill="#DDDAEC"/>
<path d="M9.29349 56.8329C6.36265 56.8329 3.97827 54.4485 3.97827 51.5177C3.97827 48.5868 6.36265 46.2025 9.29349 46.2025C12.2243 46.2025 14.6087 48.5868 14.6087 51.5177C14.6087 54.4485 12.2243 56.8329 9.29349 56.8329ZM9.29349 48.2531C7.49345 48.2531 6.02905 49.7175 6.02905 51.5175C6.02905 53.3176 7.49345 54.782 9.29349 54.782C11.0935 54.782 12.5579 53.3176 12.5579 51.5175C12.5579 49.7175 11.0935 48.2531 9.29349 48.2531Z" fill="#26457D"/>
<path d="M21.1326 55.8074C23.5018 55.8074 25.4224 53.8867 25.4224 51.5175C25.4224 49.1483 23.5018 47.2277 21.1326 47.2277C18.7634 47.2277 16.8428 49.1483 16.8428 51.5175C16.8428 53.8867 18.7634 55.8074 21.1326 55.8074Z" fill="#F9F6F9"/>
<path d="M22.8104 47.5684C23.0359 48.099 23.1518 48.6696 23.1511 49.2461C23.1511 51.6153 21.2305 53.5359 18.8613 53.5359C18.2848 53.5367 17.7141 53.4208 17.1836 53.1952C17.8367 54.7306 19.3589 55.8074 21.1327 55.8074C23.5019 55.8074 25.4225 53.8867 25.4225 51.5175C25.4225 49.7438 24.3459 48.2215 22.8104 47.5684Z" fill="#DDDAEC"/>
<path d="M21.1326 56.8329C18.2018 56.8329 15.8174 54.4485 15.8174 51.5177C15.8174 48.5868 18.2018 46.2025 21.1326 46.2025C24.0634 46.2025 26.4478 48.5868 26.4478 51.5177C26.4478 54.4485 24.0634 56.8329 21.1326 56.8329ZM21.1326 48.2531C19.3326 48.2531 17.8682 49.7175 17.8682 51.5175C17.8682 53.3176 19.3326 54.782 21.1326 54.782C22.9326 54.782 24.397 53.3176 24.397 51.5175C24.397 49.7175 22.9326 48.2531 21.1326 48.2531Z" fill="#26457D"/>
<path d="M33.4449 46.8099H29.3257C28.7593 46.8099 28.3003 46.3508 28.3003 45.7845C28.3003 45.2183 28.7593 44.7592 29.3257 44.7592H33.4449C33.7168 44.7592 33.9776 44.8672 34.1699 45.0595C34.3622 45.2518 34.4703 45.5126 34.4703 45.7845C34.4703 46.0565 34.3622 46.3173 34.1699 46.5096C33.9776 46.7019 33.7168 46.8099 33.4449 46.8099ZM42.4422 46.8099H38.323C37.7566 46.8099 37.2976 46.3508 37.2976 45.7845C37.2976 45.2183 37.7566 44.7592 38.323 44.7592H42.4422C43.0086 44.7592 43.4676 45.2183 43.4676 45.7845C43.4676 46.3508 43.0086 46.8099 42.4422 46.8099Z" fill="#E7A561"/>
<path d="M42.2289 28.875C40.5936 28.1392 35.6994 26.989 33.3855 26.4666C32.5763 26.2839 31.7493 26.1918 30.9197 26.1919H1.834C0.873691 26.1919 0.0952148 26.9704 0.0952148 27.9307V30.2077L1.09791 31.9912L0.0952148 33.7747V34.0062C0.0951996 34.3157 0.160235 34.6217 0.286102 34.9044C0.41197 35.1871 0.595858 35.4402 0.82584 35.6472L2.82453 37.447C3.2529 37.8327 3.8089 38.0461 4.38531 38.0461H43.0613C43.7885 38.0461 44.3781 37.4566 44.3781 36.7292V33.7709L43.1262 32.1189C43.1262 32.1189 44.1679 30.7978 43.7941 30.2196C43.4128 29.63 42.8693 29.1631 42.2289 28.875Z" fill="#FC6559"/>
<path d="M42.2289 28.875C42.0751 28.807 41.9192 28.7438 41.7615 28.6857C41.9241 29.1052 42.0075 29.5511 42.0074 30.001V34.5315C42.0074 35.2587 41.4179 35.8484 40.6905 35.8484H2.01458C1.46639 35.8482 0.935762 35.655 0.515869 35.3026C0.606104 35.427 0.709736 35.5427 0.825811 35.6471L2.8245 37.4469C3.25287 37.8326 3.80887 38.046 4.38528 38.046H43.0612C43.7885 38.046 44.3781 37.4565 44.3781 36.7291V33.7709L43.1262 32.119C43.1262 32.119 44.1678 30.7978 43.7941 30.2197C43.4128 29.63 42.8693 29.1631 42.2289 28.875Z" fill="#F05543"/>
<path d="M44.3782 32.1988C44.3782 31.4917 44.1724 30.7998 43.7858 30.2078H40.147C39.6546 30.2078 39.3655 30.7617 39.6472 31.1656L40.8201 32.8474C41.0189 33.1325 41.2837 33.3653 41.5919 33.5261C41.9 33.6869 42.2425 33.7709 42.59 33.7709H44.3783V32.1988H44.3782Z" fill="#F9F6F9"/>
<path d="M43.7859 30.2078H42.9236C42.9548 30.3993 42.9724 30.5947 42.9724 30.7929V31.398C42.9724 31.6545 42.8705 31.9005 42.6892 32.0818C42.5078 32.2632 42.2619 32.365 42.0054 32.365H41.1843C40.9019 32.365 40.6271 32.309 40.3726 32.2056L40.8202 32.8475C41.019 33.1326 41.2838 33.3655 41.5919 33.5263C41.9001 33.6871 42.2425 33.771 42.5901 33.7711H44.3784V32.1989C44.3784 31.4918 44.1725 30.7999 43.7859 30.2078Z" fill="#DDDAEC"/>
<path d="M0.095459 33.7747H1.78831C2.55954 33.7747 3.2389 33.2675 3.45806 32.5281L3.98962 30.7347C4.00777 30.6735 4.01138 30.6089 4.00018 30.546C3.98898 30.4832 3.96326 30.4238 3.92508 30.3727C3.8869 30.3215 3.83731 30.28 3.78025 30.2514C3.72319 30.2228 3.66025 30.2079 3.59642 30.2079H0.095459V33.7747Z" fill="#E28086"/>
<path d="M3.59628 30.2078H2.54956L2.22677 31.2969C2.12003 31.6569 1.8998 31.9728 1.5989 32.1975C1.298 32.4221 0.932546 32.5436 0.557021 32.5436H0.095459V33.7748H1.78831C2.55954 33.7748 3.2389 33.2675 3.45806 32.528L3.98962 30.7345C4.00777 30.6733 4.01139 30.6087 4.00017 30.5459C3.98896 30.483 3.96323 30.4237 3.92504 30.3725C3.88684 30.3214 3.83723 30.2798 3.78016 30.2512C3.72308 30.2226 3.66012 30.2077 3.59628 30.2078Z" fill="#DD636E"/>
<path d="M21.1335 31.4429H19.1279C18.5615 31.4429 18.1025 30.9838 18.1025 30.4175C18.1025 29.8512 18.5615 29.3921 19.1279 29.3921H21.1335C21.4054 29.3921 21.6662 29.5001 21.8585 29.6924C22.0508 29.8847 22.1588 30.1455 22.1588 30.4175C22.1588 30.6894 22.0508 30.9502 21.8585 31.1425C21.6662 31.3348 21.4054 31.4429 21.1335 31.4429Z" fill="#FFC250"/>
<path d="M30.3408 29.4018H26.7861C26.7202 29.4018 26.6549 29.3888 26.594 29.3636C26.5331 29.3384 26.4778 29.3014 26.4311 29.2548C26.3845 29.2082 26.3476 29.1529 26.3223 29.092C26.2971 29.0311 26.2842 28.9658 26.2842 28.8999V26.2267C26.2842 26.1608 26.2971 26.0956 26.3223 26.0347C26.3476 25.9738 26.3845 25.9184 26.4311 25.8718C26.4778 25.8252 26.5331 25.7882 26.594 25.763C26.6549 25.7378 26.7202 25.7248 26.7861 25.7249H28.2957C29.7023 25.7249 30.8427 26.8651 30.8427 28.2718V28.8999C30.8426 29.033 30.7897 29.1606 30.6956 29.2547C30.6015 29.3488 30.4739 29.4017 30.3408 29.4018Z" fill="#FFD064"/>
<path d="M28.2954 25.725H26.7857C26.7394 25.725 26.6954 25.7333 26.6528 25.7451C27.915 25.8963 28.8941 26.969 28.8941 28.2719V28.9C28.8941 28.9659 28.8811 29.0312 28.8559 29.0921C28.8307 29.153 28.7937 29.2083 28.7471 29.2549C28.7005 29.3015 28.6452 29.3385 28.5843 29.3637C28.5234 29.3889 28.4581 29.4019 28.3922 29.4019H30.3404C30.4735 29.4019 30.6011 29.349 30.6953 29.2548C30.7894 29.1607 30.8423 29.0331 30.8423 28.9V28.2719C30.8423 26.8652 29.7021 25.725 28.2954 25.725Z" fill="#FFC250"/>
<path d="M32.4898 40.5437C34.2372 40.5437 35.6538 39.1271 35.6538 37.3796C35.6538 35.6321 34.2372 34.2155 32.4898 34.2155C30.7423 34.2155 29.3257 35.6321 29.3257 37.3796C29.3257 39.1271 30.7423 40.5437 32.4898 40.5437Z" fill="#F9F6F9"/>
<path d="M33.7274 34.4668C33.8937 34.8581 33.9792 35.279 33.9787 35.7042C33.9787 37.4518 32.562 38.8683 30.8146 38.8683C30.3894 38.8689 29.9685 38.7834 29.5771 38.617C30.0589 39.7495 31.1817 40.5437 32.4899 40.5437C34.2375 40.5437 35.654 39.127 35.654 37.3796C35.6542 36.0713 34.86 34.9486 33.7274 34.4668Z" fill="#DDDAEC"/>
<path d="M32.4899 41.5692C30.1799 41.5692 28.3003 39.6897 28.3003 37.3796C28.3003 35.0696 30.1798 33.1901 32.4899 33.1901C34.8 33.1901 36.6795 35.0696 36.6795 37.3796C36.6795 39.6897 34.8 41.5692 32.4899 41.5692ZM32.4899 35.2409C31.3106 35.2409 30.3511 36.2004 30.3511 37.3796C30.3511 38.5589 31.3106 39.5184 32.4899 39.5184C33.6692 39.5184 34.6287 38.5589 34.6287 37.3796C34.6287 36.2004 33.6692 35.2409 32.4899 35.2409Z" fill="#26457D"/>
<path d="M10.323 40.5437C12.0705 40.5437 13.4871 39.1271 13.4871 37.3796C13.4871 35.6321 12.0705 34.2155 10.323 34.2155C8.57554 34.2155 7.15894 35.6321 7.15894 37.3796C7.15894 39.1271 8.57554 40.5437 10.323 40.5437Z" fill="#F9F6F9"/>
<path d="M11.5604 34.4668C11.7267 34.8581 11.8122 35.279 11.8117 35.7042C11.8117 37.4518 10.395 38.8683 8.6476 38.8683C8.22239 38.8689 7.80147 38.7834 7.41016 38.617C7.89195 39.7495 9.01469 40.5437 10.3229 40.5437C12.0705 40.5437 13.487 39.127 13.487 37.3796C13.487 36.0713 12.693 34.9486 11.5604 34.4668Z" fill="#DDDAEC"/>
<path d="M10.323 41.5692C8.01302 41.5692 6.13354 39.6897 6.13354 37.3796C6.13354 35.0696 8.01288 33.1901 10.323 33.1901C12.6332 33.1901 14.5126 35.0696 14.5126 37.3796C14.5125 39.6897 12.633 41.5692 10.323 41.5692ZM10.323 35.2409C9.14382 35.2409 8.18433 36.2004 8.18433 37.3796C8.18433 38.5589 9.14382 39.5184 10.323 39.5184C11.5024 39.5184 12.4618 38.5589 12.4618 37.3796C12.4617 36.2004 11.5024 35.2409 10.323 35.2409Z" fill="#26457D"/>
</svg>
