<svg width="70" height="70" viewBox="0 0 70 70" fill="none" xmlns="http://www.w3.org/2000/svg">
<path d="M2.1875 44.1146L33.6331 33.6327L33.6055 32.6621L2.1875 16.9531V44.1146Z" fill="#FFEFD6"/>
<path d="M37.1875 33.3594H61.4779V47.0312H37.1875V33.3594Z" fill="#3E454D"/>
<path d="M67.8125 30.625V47.0312H60.1562V44.8438C60.1562 41.9429 59.0039 39.1609 56.9527 37.1098C54.9016 35.0586 52.1196 33.9062 49.2188 33.9062C46.3179 33.9062 43.5359 35.0586 41.4848 37.1098C39.4336 39.1609 38.2812 41.9429 38.2812 44.8438V47.0312H29.5312V35C29.5314 33.8397 29.9924 32.727 30.8128 31.9066C31.6333 31.0861 32.746 30.6251 33.9062 30.625H47.0312L59.0625 26.25L67.8125 30.625Z" fill="#E04446"/>
<path d="M67.8125 30.625H49.2188V33.9062C52.1196 33.9062 54.9016 35.0586 56.9527 37.1098C59.0039 39.1609 60.1562 41.9429 60.1562 44.8438V47.0312H67.8125V30.625Z" fill="#C5161F"/>
<path d="M26.25 40.4688H35V47.0312H26.25V40.4688Z" fill="#4F5761"/>
<path d="M67.8125 19.6875V30.625H47.0312L57.9688 19.6875H67.8125Z" fill="#D4E4F0"/>
<path d="M47.0312 30.625L51.4062 26.25H55.7812V30.625H47.0312Z" fill="#4F5761"/>
<path d="M37.1875 36.0938L29.5312 37.1875V35C29.5312 33.8397 29.9922 32.7269 30.8127 31.9064C31.6331 31.0859 32.7459 30.625 33.9062 30.625L37.1875 36.0938Z" fill="#FDCA77"/>
<path d="M63.4375 33.9062H67.8125V36.0938H63.4375V33.9062Z" fill="#4F5761"/>
<path d="M56.8751 44.8438C56.8762 46.4969 56.3413 48.1058 55.3507 49.4293C54.1346 51.0555 52.3224 52.132 50.3126 52.4221C49.3173 52.5657 48.3035 52.5119 47.3291 52.2637C46.3546 52.0155 45.4386 51.5778 44.6333 50.9756C43.0071 49.7595 41.9306 47.9473 41.6405 45.9375C41.4969 44.9422 41.5507 43.9284 41.7989 42.954C42.0471 41.9795 42.4848 41.0635 43.087 40.2582C44.3031 38.632 46.1153 37.5555 48.1251 37.2654C49.1204 37.1218 50.1342 37.1756 51.1086 37.4238C52.0831 37.672 52.9991 38.1097 53.8044 38.7119C55.4306 39.928 56.5071 41.7402 56.7972 43.75C56.8495 44.1122 56.8755 44.4778 56.8751 44.8438Z" fill="#68737F"/>
<path d="M50.3125 37.2654V40.4688H48.125V37.2654C48.8505 37.1615 49.587 37.1615 50.3125 37.2654ZM46.8986 40.9774L45.3524 42.5236L43.0869 40.2582C43.5259 39.6716 44.0466 39.1509 44.6332 38.7119L46.8986 40.9774ZM44.8438 43.75V45.9375H41.6404C41.5365 45.212 41.5365 44.4755 41.6404 43.75H44.8438ZM46.8986 48.7102L44.6332 50.9756C44.0466 50.5366 43.5259 50.0159 43.0869 49.4293L45.3524 47.1639L46.8986 48.7102ZM50.3125 49.2188V52.4221C49.587 52.526 48.8505 52.526 48.125 52.4221V49.2188H50.3125ZM55.3506 49.4293C54.9116 50.0159 54.3909 50.5366 53.8043 50.9756L51.5389 48.7102L53.0852 47.1639L55.3506 49.4293ZM56.875 44.8438C56.8755 45.2097 56.8494 45.5753 56.7971 45.9375H53.5938V43.75H56.7971C56.8494 44.1122 56.8755 44.4778 56.875 44.8438ZM55.3506 40.2582L53.0852 42.5236L51.5389 40.9774L53.8043 38.7119C54.3909 39.1509 54.9116 39.6716 55.3506 40.2582Z" fill="#4F5761"/>
<path d="M49.2188 47.0312C50.4269 47.0312 51.4062 46.0519 51.4062 44.8438C51.4062 43.6356 50.4269 42.6562 49.2188 42.6562C48.0106 42.6562 47.0312 43.6356 47.0312 44.8438C47.0312 46.0519 48.0106 47.0312 49.2188 47.0312Z" fill="#D4E4F0"/>
<path d="M49.2188 48.125C48.5698 48.125 47.9354 47.9326 47.3958 47.572C46.8562 47.2115 46.4356 46.699 46.1873 46.0994C45.9389 45.4999 45.8739 44.8401 46.0005 44.2036C46.1272 43.5671 46.4397 42.9825 46.8986 42.5236C47.3575 42.0647 47.9421 41.7522 48.5786 41.6255C49.2151 41.4989 49.8749 41.5639 50.4744 41.8123C51.074 42.0606 51.5865 42.4812 51.947 43.0208C52.3076 43.5604 52.5 44.1948 52.5 44.8438C52.499 45.7137 52.153 46.5477 51.5379 47.1629C50.9227 47.778 50.0887 48.124 49.2188 48.125ZM49.2188 43.75C49.0024 43.75 48.791 43.8141 48.6111 43.9343C48.4312 44.0545 48.291 44.2253 48.2083 44.4252C48.1255 44.625 48.1038 44.845 48.146 45.0571C48.1882 45.2693 48.2924 45.4642 48.4454 45.6172C48.5983 45.7701 48.7932 45.8743 49.0054 45.9165C49.2175 45.9587 49.4375 45.937 49.6373 45.8542C49.8372 45.7715 50.008 45.6313 50.1282 45.4514C50.2484 45.2715 50.3125 45.0601 50.3125 44.8438C50.3121 44.5538 50.1968 44.2758 49.9918 44.0708C49.7867 43.8657 49.5087 43.7504 49.2188 43.75Z" fill="#4F5761"/>
<path d="M2.92608 42.7264L25.9025 35.0756L26.5939 37.1517L3.61733 44.8025L2.92608 42.7264ZM11.6803 35.4352L18.2449 33.2493L18.9363 35.3254L12.3716 37.5113L11.6803 35.4352ZM2.92663 38.3506L9.49132 36.1647L10.1826 38.2408L3.61802 40.4266L2.92663 38.3506ZM2.78485 18.4822L3.76267 16.5266L27.8137 28.5521L26.8359 30.5077L2.78485 18.4822ZM2.78198 23.9449L3.7598 21.9893L10.3193 25.2689L9.34148 27.2245L2.78198 23.9449ZM11.5738 28.3683L12.5516 26.4127L19.111 29.6923L18.1332 31.6479L11.5738 28.3683Z" fill="#FDCA77"/>
</svg>
