<svg width="70" height="70" viewBox="0 0 70 70" fill="none" xmlns="http://www.w3.org/2000/svg">
<path d="M34.9995 63.999C51.0155 63.999 63.999 51.0155 63.999 34.9995C63.999 18.9835 51.0155 6 34.9995 6C18.9835 6 6 18.9835 6 34.9995C6 51.0155 18.9835 63.999 34.9995 63.999Z" fill="#FC4747"/>
<path d="M63.9998 35.0001C63.9998 51.0161 51.0159 64 34.9999 64C24.5686 64 15.4237 58.4923 10.3147 50.2254C15.0691 53.6352 20.8988 55.6433 27.1959 55.6433C43.2131 55.6433 56.1959 42.6594 56.1959 26.6433C56.1959 21.0598 54.6181 15.8436 51.8823 11.4193C59.2197 16.681 63.9998 25.2824 63.9998 35.0001Z" fill="#E03636"/>
<path d="M34.9995 57.3553C47.3463 57.3553 57.3553 47.3462 57.3553 34.9994C57.3553 22.6526 47.3463 12.6435 34.9995 12.6435C22.6526 12.6435 12.6436 22.6526 12.6436 34.9994C12.6436 47.3462 22.6526 57.3553 34.9995 57.3553Z" fill="#1F43AA"/>
<path d="M57.355 35.0003C57.355 47.3463 47.346 57.3555 34.9998 57.3555C26.467 57.3555 19.0503 52.5742 15.2837 45.5447C19.0341 48.3925 23.7127 50.0823 28.7854 50.0823C41.1316 50.0823 51.1406 40.0732 51.1406 27.727C51.1406 23.9138 50.1856 20.3232 48.5017 17.1815C53.8811 21.264 57.355 27.7257 57.355 35.0003Z" fill="#103589"/>
<path d="M57.8633 52.0108L41.2725 35.4201C41.1631 35.3107 41.1017 35.1624 41.1017 35.0078C41.1017 34.8531 41.1631 34.7048 41.2725 34.5954L57.8164 18.052C57.9253 17.9431 57.9867 17.7954 57.9872 17.6414C57.9877 17.4873 57.9272 17.3394 57.8189 17.2298L52.8135 12.1634C52.7595 12.1087 52.6952 12.0653 52.6243 12.0355C52.5534 12.0058 52.4774 11.9903 52.4005 11.9901C52.3236 11.9899 52.2474 12.0049 52.1764 12.0342C52.1053 12.0635 52.0407 12.1065 51.9864 12.1609L35.4122 28.7353C35.3029 28.8446 35.1545 28.9061 34.9999 28.9061C34.8452 28.9061 34.6969 28.8446 34.5875 28.7353L18.0135 12.161C17.9591 12.1067 17.8946 12.0636 17.8235 12.0343C17.7524 12.005 17.6763 11.99 17.5994 11.9902C17.5225 11.9905 17.4465 12.0059 17.3756 12.0356C17.3047 12.0654 17.2404 12.1088 17.1863 12.1635L12.1809 17.23C12.0726 17.3396 12.0121 17.4875 12.0126 17.6416C12.0131 17.7956 12.0745 17.9432 12.1834 18.0521L28.7274 34.5955C28.8367 34.7049 28.8982 34.8532 28.8982 35.0079C28.8982 35.1625 28.8367 35.3109 28.7274 35.4202L12.1366 52.0108C11.9266 52.2208 11.9094 52.554 12.0931 52.7874C13.5951 54.6965 15.3302 56.41 17.2579 57.8879C17.4912 58.0667 17.8202 58.0471 18.028 57.8393L34.5876 41.2801C34.697 41.1708 34.8453 41.1093 35 41.1093C35.1546 41.1093 35.303 41.1708 35.4123 41.2801L51.972 57.8393C52.1797 58.0471 52.5088 58.0667 52.7421 57.8879C54.6698 56.41 56.4049 54.6965 57.9069 52.7874C58.0904 52.554 58.0732 52.2208 57.8633 52.0108Z" fill="#FC4747"/>
</svg>
