<svg width="70" height="70" viewBox="0 0 70 70" fill="none" xmlns="http://www.w3.org/2000/svg">
<path d="M53.5015 23.1813C53.3359 22.9051 52.9107 23.0435 52.9441 23.3638C53.1755 25.5773 52.8332 27.8798 51.8343 30.0477C51.5113 30.7493 51.1257 31.4203 50.6822 32.0526C50.487 32.3308 50.0538 32.2093 50.0343 31.8698C49.3777 20.4129 43.1994 10.3558 33.9886 4.06571C33.6697 3.84786 33.2724 4.2132 33.4696 4.54524C34.8407 6.85317 35.6281 9.54835 35.6281 12.4276C35.6281 14.6689 35.1503 16.7982 34.2921 18.7206C34.1888 18.952 33.8809 19.004 33.7084 18.8181C30.1296 14.9606 25.5554 12.0898 20.4734 10.4545C20.168 10.3563 19.9421 10.7438 20.1774 10.9619C21.8088 12.4736 23.0679 14.4299 23.7452 16.7172C25.2578 21.8256 23.4383 27.1286 19.5522 30.2968C17.5515 31.928 16.1796 34.2217 15.8481 36.7818C15.6279 38.4816 15.7473 40.2529 16.2572 42.0027C16.4768 42.7571 16.7657 43.4896 17.1203 44.1908C17.1515 44.2521 17.169 44.3195 17.1715 44.3883C17.1741 44.457 17.1617 44.5256 17.1352 44.5891C16.5654 45.957 16.1951 47.3998 16.0356 48.8731C15.1286 57.1943 21.0954 64.7798 29.3951 65.8674C33.814 66.4465 38.043 65.0953 41.2334 62.4657C41.3145 62.3988 41.4155 62.361 41.5206 62.358C44.2501 62.2766 46.883 61.3292 49.0387 59.6529C49.0387 59.6529 52.5051 57.2575 55.2776 51.24C59.5437 41.9803 58.5346 31.5805 53.5015 23.1813Z" fill="url(#paint0_linear_105_4247)"/>
<path d="M53.5015 23.1814C53.336 22.9052 52.9107 23.0436 52.9441 23.3639C53.1612 25.4409 52.8731 27.5962 52.0116 29.6451C53.755 36.1571 53.3501 43.1835 50.3692 49.6537C47.5967 55.6712 44.1303 58.0666 44.1303 58.0666C41.9746 59.7428 39.3417 60.6902 36.6122 60.7717C36.5071 60.7749 36.4063 60.8124 36.3251 60.8794C33.1345 63.509 28.9056 64.8602 24.4867 64.2811C24.4151 64.2718 24.3442 64.2607 24.2729 64.2504C25.8718 65.0867 27.6058 65.6341 29.3951 65.8675C33.8141 66.4465 38.043 65.0954 41.2335 62.4657C41.3146 62.3989 41.4156 62.361 41.5206 62.358C44.2501 62.2766 46.883 61.3292 49.0387 59.6529C49.0387 59.6529 52.5051 57.2576 55.2776 51.24C59.5437 41.9803 58.5347 31.5806 53.5015 23.1814Z" fill="#FA9801"/>
<path d="M20.6196 42.0416L29.5631 34.9443C30.4743 34.2212 31.6033 33.8277 32.7666 33.8277H43.0391C44.1051 33.8277 45.1448 34.1583 46.0151 34.7738L56.2895 42.0416H20.6196Z" fill="#766E6E"/>
<path d="M46.015 34.7739C45.1447 34.1583 44.1049 33.8278 43.039 33.8278H35.896C36.962 33.8278 38.0017 34.1584 38.872 34.7739L49.1465 42.0417H56.2894L46.015 34.7739Z" fill="#5B5353"/>
<path d="M59.1446 42.9493H18.0156L28.9991 34.2333C30.0716 33.3845 31.3989 32.9219 32.7667 32.92H43.0392C44.2933 32.9179 45.5168 33.3069 46.5394 34.0328L59.1446 42.9493ZM23.2239 41.1339H53.4344L45.4909 35.515C44.7746 35.0065 43.9175 34.7339 43.0391 34.7354H32.7666C31.8084 34.7367 30.8787 35.0608 30.1274 35.6555L23.2239 41.1339Z" fill="#9BD069"/>
<path d="M63.5921 56.1124H6.4074C5.59958 56.1124 4.94482 55.4575 4.94482 54.6498V46.5403C4.94482 45.7903 5.19289 45.0614 5.65038 44.4671C6.10787 43.8729 6.74909 43.4466 7.47411 43.2549L16.9531 40.7158C18.145 40.3965 19.3736 40.2348 20.6076 40.2348H63.0171C64.1425 40.2348 65.0547 41.1471 65.0547 42.2724V54.6498C65.0547 55.4575 64.3999 56.1124 63.5921 56.1124Z" fill="#9BD069"/>
<path d="M65.0548 47.4126H60.6249C59.6396 47.4126 58.8408 46.6139 58.8408 45.6285V45.46C58.8408 44.4746 59.6396 43.6759 60.6249 43.6759H65.0548V47.4126Z" fill="#FF6930"/>
<path d="M33.9217 45.6784H32.0195C31.7788 45.6784 31.5479 45.5828 31.3777 45.4125C31.2075 45.2423 31.1118 45.0114 31.1118 44.7707C31.1118 44.53 31.2075 44.2991 31.3777 44.1288C31.5479 43.9586 31.7788 43.863 32.0195 43.863H33.9217C34.1624 43.863 34.3933 43.9586 34.5635 44.1288C34.7338 44.2991 34.8294 44.53 34.8294 44.7707C34.8294 45.0114 34.7338 45.2423 34.5635 45.4125C34.3933 45.5828 34.1624 45.6784 33.9217 45.6784Z" fill="#F9F6F6"/>
<path d="M63.0171 40.2346H61.039V51.5471C61.039 52.3549 60.3842 53.0097 59.5765 53.0097H4.94482V54.6497C4.94482 55.4575 5.5997 56.1122 6.4074 56.1122H63.5922C64.4 56.1122 65.0547 55.4574 65.0547 54.6497V42.2724C65.0549 41.147 64.1425 40.2346 63.0171 40.2346Z" fill="#69AF81"/>
<path d="M61.0391 43.676H65.0548V47.4126H61.0391V43.676Z" fill="#FF5426"/>
<path d="M19.1368 48.1337C22.9538 48.1337 26.0482 51.228 26.0482 55.0452V55.7972C26.0482 55.8808 26.015 55.961 25.9559 56.0201C25.8967 56.0793 25.8165 56.1125 25.7329 56.1125H12.5407C12.457 56.1125 12.3768 56.0793 12.3177 56.0201C12.2586 55.961 12.2253 55.8808 12.2253 55.7972V55.0452C12.2255 51.228 15.3198 48.1337 19.1368 48.1337Z" fill="#766E6E"/>
<path d="M19.1368 48.1337C18.5427 48.1337 17.9661 48.2088 17.416 48.3498C20.4005 49.1145 22.6067 51.8221 22.6067 55.045V55.797C22.6067 55.8807 22.5735 55.9609 22.5143 56.02C22.4552 56.0791 22.375 56.1124 22.2914 56.1124H25.7329C25.7743 56.1124 25.8153 56.1042 25.8535 56.0884C25.8918 56.0725 25.9266 56.0493 25.9558 56.02C25.9851 55.9907 26.0083 55.956 26.0242 55.9177C26.04 55.8794 26.0482 55.8384 26.0482 55.797V55.045C26.0482 51.228 22.9539 48.1337 19.1368 48.1337Z" fill="#5B5353"/>
<path d="M19.137 60.4359C21.7046 60.4359 23.7861 58.3544 23.7861 55.7867C23.7861 53.2191 21.7046 51.1376 19.137 51.1376C16.5693 51.1376 14.4878 53.2191 14.4878 55.7867C14.4878 58.3544 16.5693 60.4359 19.137 60.4359Z" fill="#C9BEB9"/>
<path d="M20.71 51.4111C21.2641 52.1941 21.5611 53.13 21.5599 54.0892C21.5599 56.6569 19.4785 58.7384 16.9108 58.7384C16.3585 58.7384 15.8289 58.6415 15.3374 58.4649C16.1791 59.6568 17.5664 60.4359 19.1365 60.4359C21.7042 60.4359 23.7856 58.3544 23.7856 55.7867C23.7858 53.7714 22.5033 52.0561 20.71 51.4111Z" fill="#9E9595"/>
<path d="M19.137 57.4232C20.0407 57.4232 20.7734 56.6905 20.7734 55.7867C20.7734 54.8829 20.0407 54.1503 19.137 54.1503C18.2332 54.1503 17.5005 54.8829 17.5005 55.7867C17.5005 56.6905 18.2332 57.4232 19.137 57.4232Z" fill="#766E6E"/>
<path d="M19.7305 54.2629C19.8023 54.4471 19.8431 54.6467 19.8431 54.8562C19.8431 55.7601 19.1104 56.4927 18.2066 56.4927C17.997 56.4927 17.7973 56.4519 17.6133 56.3801C17.8511 56.9902 18.4429 57.4232 19.1371 57.4232C20.041 57.4232 20.7736 56.6906 20.7736 55.7867C20.7736 55.0925 20.3406 54.5007 19.7305 54.2629Z" fill="#5B5353"/>
<path d="M8.64533 49.8895C9.6275 49.8895 10.4237 49.0933 10.4237 48.1111C10.4237 47.1289 9.6275 46.3327 8.64533 46.3327C7.66315 46.3327 6.86694 47.1289 6.86694 48.1111C6.86694 49.0933 7.66315 49.8895 8.64533 49.8895Z" fill="#F9F6F6"/>
<path d="M9.10746 46.3955C9.13919 46.5284 9.15772 46.6663 9.15772 46.809C9.15772 47.7911 8.36152 48.5873 7.37933 48.5873C7.2232 48.5868 7.06783 48.5657 6.91724 48.5245C7.10384 49.3069 7.8057 49.8895 8.64525 49.8895C9.62744 49.8895 10.4236 49.0933 10.4236 48.1111C10.4238 47.289 9.86515 46.5992 9.10746 46.3955Z" fill="#EEDFDA"/>
<path d="M37.2588 33.8277H39.0742V41.0718H37.2588V33.8277Z" fill="#9BD069"/>
<path d="M40.9778 29.1855C40.7325 29.0876 40.5215 29.39 40.7026 29.5823C41.9595 30.9178 42.8849 32.5982 43.3124 34.5183C44.2664 38.8026 42.4706 43.0582 39.097 45.4422C37.3535 46.6743 36.0944 48.493 35.6803 50.5874C35.4081 51.9646 35.4079 53.4185 35.7259 54.8767C36.9637 60.5514 42.627 64.1851 48.3009 62.9433C52.3074 62.0663 55.2771 59.0245 56.257 55.3185C56.257 55.3185 57.3334 52.0182 56.147 46.6902C54.3215 38.4914 48.4692 32.1785 40.9778 29.1855Z" fill="#FFC50D"/>
<path d="M42.4937 46.8297C42.401 46.7634 42.2815 46.8684 42.3376 46.9676C42.7402 47.6794 42.9428 48.4869 42.924 49.3045C42.8834 51.198 41.6933 52.7969 40.0344 53.4493C39.1771 53.7864 38.4624 54.4192 38.0737 55.2544C37.8108 55.8198 37.6672 56.4333 37.6519 57.0567C37.5874 59.5621 39.5872 61.6671 42.0928 61.7298C43.8621 61.7741 45.4192 60.8046 46.2108 59.3521C46.2108 59.3521 47.0012 58.0797 47.0517 55.7247C47.1294 52.1013 45.3256 48.8541 42.4937 46.8297Z" fill="#FFE541"/>
<path d="M56.1468 46.6902C54.3213 38.4914 48.469 32.1786 40.9775 29.1855C40.7322 29.0876 40.5212 29.39 40.7023 29.5823C41.9592 30.9178 42.8846 32.5982 43.3121 34.5183C43.451 35.1429 43.5332 35.7787 43.5576 36.4181C47.1407 39.6937 49.7657 44.0009 50.8823 49.0156C52.0686 54.3437 50.9922 57.6439 50.9922 57.6439C50.428 59.7721 49.2154 61.6719 47.5228 63.0799C47.7818 63.0432 48.0412 63.0001 48.3007 62.9433C52.3072 62.0663 55.2769 59.0245 56.2568 55.3185C56.2567 55.3185 57.3332 52.018 56.1468 46.6902Z" fill="#FA9801"/>
<defs>
<linearGradient id="paint0_linear_105_4247" x1="36.8486" y1="3.99991" x2="36.8486" y2="66" gradientUnits="userSpaceOnUse">
<stop stop-color="#FF1F1F"/>
<stop offset="1" stop-color="#FFC716"/>
</linearGradient>
</defs>
</svg>
