<svg width="70" height="70" viewBox="0 0 70 70" fill="none" xmlns="http://www.w3.org/2000/svg">
<path d="M5.28467 14.099V55.8997C5.28467 57.5173 5.92724 59.0686 7.07104 60.2124C8.21483 61.3562 9.76615 61.9987 11.3837 61.9987H58.6161C60.2336 61.9987 61.785 61.3562 62.9288 60.2124C64.0725 59.0686 64.7151 57.5173 64.7151 55.8997V34.5295C64.7151 32.6995 63.893 30.9649 62.4741 29.8072L37.4601 9.37555C36.3709 8.48645 35.008 8.00095 33.602 8.00122H11.3837C9.76658 8.00122 8.21564 8.64346 7.07191 9.78672C5.92819 10.93 5.28532 12.4807 5.28467 14.0978V14.099Z" fill="#FC6559"/>
<path d="M64.7151 38.8258V55.9009C64.7151 57.5185 64.0725 59.0698 62.9288 60.2136C61.785 61.3574 60.2336 62 58.6161 62H11.3837C10.5827 62 9.78948 61.8422 9.04943 61.5356C8.30938 61.229 7.63697 60.7796 7.0706 60.2132C6.50424 59.6467 6.05501 58.9742 5.74858 58.2341C5.44214 57.494 5.28451 56.7007 5.28467 55.8997V38.8258H64.7151Z" fill="#F05543"/>
<path opacity="0.3" d="M54.488 44.338H55.0328C55.2764 44.338 55.5101 44.2412 55.6824 44.0689C55.8547 43.8966 55.9515 43.663 55.9515 43.4193C55.9515 43.1757 55.8547 42.942 55.6824 42.7697C55.5101 42.5974 55.2764 42.5006 55.0328 42.5006H54.488C54.2444 42.5006 54.0107 42.5974 53.8384 42.7697C53.6661 42.942 53.5693 43.1757 53.5693 43.4193C53.5693 43.663 53.6661 43.8966 53.8384 44.0689C54.0107 44.2412 54.2444 44.338 54.488 44.338ZM42.9919 44.338H50.1385C50.3821 44.338 50.6158 44.2412 50.7881 44.0689C50.9604 43.8966 51.0571 43.663 51.0571 43.4193C51.0571 43.1757 50.9604 42.942 50.7881 42.7697C50.6158 42.5974 50.3821 42.5006 50.1385 42.5006H42.9919C42.7483 42.5006 42.5146 42.5974 42.3423 42.7697C42.17 42.942 42.0732 43.1757 42.0732 43.4193C42.0732 43.663 42.17 43.8966 42.3423 44.0689C42.5146 44.2412 42.7483 44.338 42.9919 44.338ZM60.1215 54.4474C60.6292 54.4474 61.0402 54.0363 61.0402 53.5287V47.0408C61.0402 46.7972 60.9434 46.5635 60.7711 46.3912C60.5989 46.2189 60.3652 46.1222 60.1215 46.1222C59.8779 46.1222 59.6442 46.2189 59.4719 46.3912C59.2996 46.5635 59.2028 46.7972 59.2028 47.0408V53.5287C59.2028 54.0363 59.6139 54.4474 60.1215 54.4474Z" fill="white"/>
<path d="M5.28467 53.7738V55.9046C5.28516 56.7052 5.44334 57.4978 5.75019 58.2372C6.05704 58.9766 6.50654 59.6484 7.07302 60.214C7.6395 60.7797 8.31186 61.2283 9.05171 61.5341C9.79156 61.8399 10.5844 61.9969 11.385 61.9963H58.6148C59.4154 61.9969 60.2082 61.8399 60.9481 61.5341C61.6879 61.2283 62.3603 60.7797 62.9268 60.214C63.4933 59.6484 63.9428 58.9766 64.2496 58.2372C64.5565 57.4978 64.7146 56.7052 64.7151 55.9046V53.7738C64.7156 54.575 64.5582 55.3685 64.2518 56.1089C63.9454 56.8492 63.496 57.5219 62.9295 58.0884C62.3629 58.655 61.6902 59.1043 60.9499 59.4107C60.2095 59.7171 59.4161 59.8746 58.6148 59.8741H11.385C10.5837 59.8746 9.79024 59.7171 9.0499 59.4107C8.30956 59.1043 7.63687 58.655 7.07031 58.0884C6.50375 57.5219 6.05443 56.8492 5.74803 56.1089C5.44164 55.3685 5.28418 54.575 5.28467 53.7738Z" fill="#E24B40"/>
<path opacity="0.3" d="M5.28467 14.1003V16.2225C5.28516 15.4219 5.44334 14.6293 5.75019 13.8899C6.05703 13.1504 6.50653 12.4787 7.07301 11.913C7.63949 11.3474 8.31186 10.8988 9.05171 10.593C9.79156 10.2872 10.5844 10.1302 11.385 10.1308H33.5983C35.0048 10.1308 36.373 10.6088 37.4576 11.5002L62.4729 31.9319C63.1727 32.5041 63.7368 33.2245 64.1245 34.0411C64.5122 34.8577 64.714 35.7502 64.7151 36.6541V34.532C64.7141 33.6281 64.5126 32.7357 64.1251 31.9191C63.7375 31.1025 63.1737 30.3821 62.4741 29.8097L37.4564 9.37805C36.368 8.48626 35.0042 7.99927 33.5971 8H11.385C9.76726 8.00066 8.21601 8.64358 7.07213 9.78746C5.92824 10.9313 5.28532 12.4826 5.28467 14.1003Z" fill="white"/>
<path d="M10.7969 16.272V28.8304C10.7975 29.5635 11.089 30.2665 11.6073 30.785C12.1256 31.3036 12.8285 31.5954 13.5616 31.5963H51.872C53.2401 31.5963 53.8654 29.8778 52.8006 29.0049L34.7362 14.1411C34.2412 13.7363 33.6212 13.5154 32.9818 13.5159H13.5616C13.0107 13.5159 12.5055 13.6731 12.0734 13.9492C11.6883 14.1968 11.3751 14.5274 11.146 14.9224C10.9256 15.3174 10.7969 15.7767 10.7969 16.272Z" fill="#A2A2F9"/>
<g opacity="0.3">
<path d="M25.1654 13.5159L44.2277 31.5963H46.184L27.113 13.5159H25.1654ZM17.567 13.5159L36.6306 31.5963H41.7292L22.6681 13.5159H17.567ZM11.146 14.9224L28.73 31.5951H30.6863L12.0734 13.948C11.6883 14.1956 11.3751 14.5274 11.146 14.9224ZM10.7969 16.9517V21.7928L21.1316 31.5963H26.2315L10.7969 16.9517Z" fill="white"/>
</g>
<path d="M10.98 15.2988C11.4678 14.8394 12.1191 14.5633 12.8545 14.5633H32.2672C32.9098 14.5633 33.5338 14.7837 34.0303 15.1886L52.0922 30.0524C52.533 30.4201 52.6804 30.9352 52.5974 31.4032C53.4245 30.9451 53.6535 29.7032 52.7992 29.0049L34.7373 14.1411C34.2423 13.7363 33.6223 13.5154 32.9829 13.5159H13.5615C12.3766 13.5159 11.3663 14.2513 10.98 15.2988Z" fill="#5E5EEF"/>
<path d="M43.4922 31.4998C43.4321 32.0868 43.4958 32.6799 43.6792 33.2407C43.8626 33.8016 44.1617 34.3177 44.557 34.7557C44.9523 35.1938 45.4352 35.544 45.9743 35.7838C46.5134 36.0236 47.0969 36.1476 47.687 36.1478H51.8174C52.4996 36.1478 53.0518 35.5943 53.0518 34.9134V28.9394C53.0518 28.612 52.9217 28.298 52.6902 28.0665C52.4587 27.835 52.1448 27.705 51.8174 27.705H47.8813C45.6799 27.705 43.7088 29.3083 43.4922 31.4998Z" fill="#E24B40"/>
<path d="M11.7043 36.1478C11.7043 37.1333 12.5029 37.9307 13.4873 37.9307H20.4963C20.9695 37.9307 21.4233 37.7427 21.7579 37.4081C22.0925 37.0735 22.2805 36.6197 22.2805 36.1465C22.2805 35.6733 22.0925 35.2195 21.7579 34.8849C21.4233 34.5503 20.9695 34.3624 20.4963 34.3624H13.4885C12.5029 34.3624 11.7043 35.1622 11.7043 36.1478Z" fill="#474646"/>
<path d="M11.9966 35.1734C12.2727 35.0099 12.5847 34.9097 12.9351 34.9097H19.9516C20.9272 34.9097 21.7271 35.7107 21.7271 36.6988C21.7271 37.0492 21.628 37.3859 21.4522 37.662C21.9524 37.3364 22.2781 36.7867 22.2781 36.1478C22.2781 35.1598 21.477 34.3599 20.5013 34.3599H13.4861C12.8596 34.3599 12.3098 34.6856 11.9966 35.1734Z" fill="#2D2C2C"/>
<path d="M10.8438 41.0755C10.8438 42.0165 11.6015 42.7841 12.5425 42.7841C12.9865 42.7722 13.4084 42.5874 13.7182 42.269C14.0281 41.9507 14.2015 41.5241 14.2015 41.0798C14.2015 40.6356 14.0281 40.209 13.7182 39.8906C13.4084 39.5723 12.9865 39.3875 12.5425 39.3755C11.6015 39.3755 10.8438 40.1444 10.8438 41.0755Z" fill="#F7F363"/>
<path d="M11.2339 40.0008C11.4964 39.8126 11.822 39.7123 12.1724 39.7123C13.1109 39.7123 13.8612 40.4874 13.8612 41.4135C13.8612 41.8258 13.7102 42.2134 13.4601 42.5142C13.6986 42.3576 13.8944 42.1441 14.0299 41.8929C14.1655 41.6418 14.2364 41.3609 14.2364 41.0755C14.2364 40.1506 13.4861 39.3755 12.5475 39.3755C12.0102 39.3755 11.5471 39.6244 11.2351 40.0008H11.2339Z" fill="#EDD318"/>
<path d="M44.4604 30.8065C44.4003 31.3936 44.4641 31.9868 44.6476 32.5477C44.831 33.1086 45.1302 33.6247 45.5257 34.0628C45.9211 34.5009 46.4041 34.8511 46.9434 35.0908C47.4827 35.3305 48.0663 35.4544 48.6565 35.4544H52.7869C53.4678 35.4544 54.0213 34.9022 54.0213 34.22V28.246C54.0213 27.9186 53.8912 27.6046 53.6597 27.3732C53.4282 27.1417 53.1143 27.0116 52.7869 27.0116H48.8496C46.6482 27.0116 44.6783 28.6162 44.4604 30.8065Z" fill="#F05543"/>
<path opacity="0.3" d="M51.8238 33.071C52.2039 33.071 52.5135 32.7614 52.5135 32.3826V30.4598C52.5135 29.5324 51.7582 28.7796 50.8321 28.7796H49.5618C49.3841 28.7871 49.2162 28.863 49.0931 28.9914C48.97 29.1198 48.9013 29.2908 48.9013 29.4686C48.9013 29.6465 48.97 29.8174 49.0931 29.9458C49.2162 30.0742 49.3841 30.1501 49.5618 30.1576H50.8321C50.9992 30.1576 51.1354 30.2926 51.1354 30.4598V32.3826C51.1354 32.7627 51.4437 33.071 51.8238 33.071ZM27.1775 36.1477H40.4355C40.6791 36.1477 40.9128 36.0509 41.0851 35.8787C41.2574 35.7064 41.3542 35.4727 41.3542 35.229C41.3542 34.9854 41.2574 34.7517 41.0851 34.5794C40.9128 34.4071 40.6791 34.3103 40.4355 34.3103H27.175C26.9314 34.3103 26.6977 34.4071 26.5254 34.5794C26.3531 34.7517 26.2563 34.9854 26.2563 35.229C26.2563 35.4727 26.3531 35.7064 26.5254 35.8787C26.6977 36.0509 26.9314 36.1477 27.175 36.1477H27.1775Z" fill="white"/>
</svg>
