<svg width="449" height="509" viewBox="0 0 449 509" fill="none" xmlns="http://www.w3.org/2000/svg">
<path d="M291.364 -101.625C446.677 -145.8 463.77 13.1925 417.673 128.391C394.028 195.579 469.543 238.988 440.195 322.22C410.847 405.453 315.569 306.698 268.068 434.075C220.566 561.452 3.08625 501.157 -0.284982 390.18C-3.65622 279.203 -39.9158 309.989 -124.285 199.648C-208.653 89.3065 -94.1246 -98.5983 28.7366 -53.0613C151.598 -7.52439 123.234 -53.8036 291.364 -101.625Z" stroke="url(#paint0_linear_9_379)" stroke-opacity="0.1" stroke-width="2"/>
<path d="M172.104 138.217C186.89 133.145 210.988 156.171 200.928 174.917C191.716 192.083 198.156 209.44 194.079 220.972C183.347 251.332 177.453 240.242 164.531 253.878C148.807 270.47 107.355 278.654 107.058 240.795C106.813 209.657 91.7629 219.092 84.8788 195.828C77.9947 172.564 89.1937 146.033 119.224 145.797C130.502 145.708 147.477 146.666 172.104 138.217Z" stroke="url(#paint1_linear_9_379)" stroke-opacity="0.1" stroke-width="2"/>
<path d="M281.278 -79.8297C423.817 -120.451 441.546 26.1816 398.725 132.612C376.392 195.252 445.627 236.292 418.577 313.007C390.922 391.433 303.769 300.648 259.411 417.685C214.799 534.99 13.3214 480.921 10.2296 376.591C7.14259 272.872 -27.1888 301.716 -104.514 199.291C-181.838 96.8664 -76.7032 -76.3681 37.7189 -34.9923C150.436 6.3969 126.194 -35.5881 281.278 -79.8297Z" stroke="url(#paint2_linear_9_379)" stroke-opacity="0.1" stroke-width="2"/>
<path d="M271.192 -58.0348C400.955 -95.1008 419.322 39.1707 379.777 136.833C358.756 194.926 421.711 233.597 396.959 303.794C370.996 377.414 291.969 294.598 250.755 401.294C209.031 508.528 23.556 460.684 20.7437 363.001C17.941 266.541 -14.4623 293.444 -84.7429 198.935C-155.024 104.426 -59.2821 -54.1378 46.7008 -16.9231C149.274 20.3183 129.153 -17.3725 271.192 -58.0348Z" stroke="url(#paint3_linear_9_379)" stroke-opacity="0.1" stroke-width="2"/>
<path d="M261.105 -36.2397C378.093 -69.7509 397.097 52.16 360.828 141.054C341.119 194.599 397.795 230.902 375.34 294.581C351.069 363.394 280.168 288.547 242.098 384.904C203.262 482.067 33.7902 440.448 31.2573 349.412C28.7388 260.209 -1.73635 285.172 -64.9729 198.579C-128.209 111.987 -41.8617 -31.9073 55.6822 1.14617C148.111 34.2398 132.113 0.843235 261.105 -36.2397Z" stroke="url(#paint4_linear_9_379)" stroke-opacity="0.1" stroke-width="2"/>
<path d="M251.018 -14.4444C355.231 -44.4008 374.871 65.1495 341.878 145.275C323.481 194.273 373.878 228.208 353.72 285.368C331.142 349.374 268.367 282.497 233.44 368.514C197.493 455.605 44.0235 420.212 41.7701 335.823C39.5359 253.878 10.9888 276.9 -45.2037 198.224C-101.396 119.547 -24.442 -9.67669 64.6627 19.2156C146.948 48.1615 135.071 19.0592 251.018 -14.4444Z" stroke="url(#paint5_linear_9_379)" stroke-opacity="0.1" stroke-width="2"/>
<path d="M240.411 7.35517C331.848 -19.0463 352.125 78.1433 322.409 149.5C305.324 193.951 349.441 225.517 331.58 276.159C310.694 335.359 256.045 276.452 224.262 352.128C191.204 429.148 53.7372 399.98 51.7633 322.238C49.8133 247.552 23.1943 268.633 -25.9541 197.872C-75.1025 127.112 -7.54195 12.5583 73.1236 37.2894C145.265 62.0875 137.51 37.2794 240.411 7.35517Z" stroke="url(#paint6_linear_9_379)" stroke-opacity="0.1" stroke-width="2"/>
<path d="M229.189 29.1599C307.851 6.31328 328.765 91.1423 302.325 153.731C286.552 193.634 324.39 222.832 308.826 266.956C289.633 321.349 243.109 270.411 214.469 335.747C184.301 402.696 62.8362 379.754 61.1417 308.659C59.476 241.23 34.7851 260.37 -7.31923 197.526C-49.4236 134.682 8.74339 34.7984 80.9698 55.3684C142.967 76.0187 139.334 55.5049 229.189 29.1599Z" stroke="url(#paint7_linear_9_379)" stroke-opacity="0.1" stroke-width="2"/>
<path d="M217.933 50.9655C283.82 31.6737 305.371 104.142 282.206 157.962C267.746 193.318 299.304 220.148 286.038 257.753C268.537 307.34 230.139 264.371 204.643 319.367C177.363 376.245 71.9009 359.528 70.4859 295.08C69.1045 234.91 46.3417 252.109 11.2814 197.181C-23.7789 142.252 24.9945 57.0393 88.7817 73.4482C140.635 89.9508 141.123 73.7311 217.933 50.9655Z" stroke="url(#paint8_linear_9_379)" stroke-opacity="0.1" stroke-width="2"/>
<path d="M206.628 72.7723C259.74 57.0354 281.927 117.143 262.039 162.195C248.89 193.003 274.169 217.465 263.2 248.552C247.391 293.332 217.12 258.333 194.767 302.989C170.376 349.795 80.9165 339.303 79.781 281.503C78.6838 228.59 57.8491 243.849 29.8329 196.836C1.81662 149.824 41.1964 79.2815 96.5445 91.5293C138.254 103.884 142.864 91.9586 206.628 72.7723Z" stroke="url(#paint9_linear_9_379)" stroke-opacity="0.1" stroke-width="2"/>
<path d="M195.25 94.5813C235.587 82.3992 258.411 130.146 241.799 166.429C229.962 192.69 248.962 214.784 240.29 239.352C226.174 279.326 204.028 252.297 184.819 286.612C163.317 323.348 89.8596 319.081 89.0035 267.927C88.1906 222.273 69.2841 235.59 48.3119 196.494C27.3397 157.398 57.3258 101.526 104.235 109.612C135.8 117.819 144.532 110.188 195.25 94.5813Z" stroke="url(#paint10_linear_9_379)" stroke-opacity="0.1" stroke-width="2"/>
<path d="M183.762 116.394C211.324 107.767 234.785 143.154 221.449 170.668C210.924 192.382 223.644 212.107 217.27 230.157C204.846 265.324 190.826 246.264 174.76 270.24C156.147 296.904 98.6926 298.863 98.116 254.356C97.5873 215.96 80.6089 227.336 66.6808 196.156C52.7526 164.976 73.3452 123.774 111.815 127.7C133.236 131.759 146.09 128.422 183.762 116.394Z" stroke="url(#paint11_linear_9_379)" stroke-opacity="0.1" stroke-width="2"/>
<defs>
<linearGradient id="paint0_linear_9_379" x1="446.396" y1="196.658" x2="-152.593" y2="201.36" gradientUnits="userSpaceOnUse">
<stop stop-color="#0066FF"/>
<stop offset="1" stop-color="#F400F9"/>
</linearGradient>
<linearGradient id="paint1_linear_9_379" x1="203.603" y1="202.263" x2="83.08" y2="203.209" gradientUnits="userSpaceOnUse">
<stop stop-color="#0066FF"/>
<stop offset="1" stop-color="#F400F9"/>
</linearGradient>
<linearGradient id="paint2_linear_9_379" x1="424.324" y1="197.145" x2="-130.399" y2="201.499" gradientUnits="userSpaceOnUse">
<stop stop-color="#0066FF"/>
<stop offset="1" stop-color="#F400F9"/>
</linearGradient>
<linearGradient id="paint3_linear_9_379" x1="402.252" y1="197.632" x2="-108.206" y2="201.639" gradientUnits="userSpaceOnUse">
<stop stop-color="#0066FF"/>
<stop offset="1" stop-color="#F400F9"/>
</linearGradient>
<linearGradient id="paint4_linear_9_379" x1="380.179" y1="198.121" x2="-86.0136" y2="201.78" gradientUnits="userSpaceOnUse">
<stop stop-color="#0066FF"/>
<stop offset="1" stop-color="#F400F9"/>
</linearGradient>
<linearGradient id="paint5_linear_9_379" x1="358.107" y1="198.611" x2="-63.8229" y2="201.923" gradientUnits="userSpaceOnUse">
<stop stop-color="#0066FF"/>
<stop offset="1" stop-color="#F400F9"/>
</linearGradient>
<linearGradient id="paint6_linear_9_379" x1="336.035" y1="199.103" x2="-42.1528" y2="202.072" gradientUnits="userSpaceOnUse">
<stop stop-color="#0066FF"/>
<stop offset="1" stop-color="#F400F9"/>
</linearGradient>
<linearGradient id="paint7_linear_9_379" x1="313.962" y1="199.599" x2="-21.0987" y2="202.229" gradientUnits="userSpaceOnUse">
<stop stop-color="#0066FF"/>
<stop offset="1" stop-color="#F400F9"/>
</linearGradient>
<linearGradient id="paint8_linear_9_379" x1="291.89" y1="200.1" x2="-0.0808903" y2="202.391" gradientUnits="userSpaceOnUse">
<stop stop-color="#0066FF"/>
<stop offset="1" stop-color="#F400F9"/>
</linearGradient>
<linearGradient id="paint9_linear_9_379" x1="269.818" y1="200.607" x2="20.8843" y2="202.562" gradientUnits="userSpaceOnUse">
<stop stop-color="#0066FF"/>
<stop offset="1" stop-color="#F400F9"/>
</linearGradient>
<linearGradient id="paint10_linear_9_379" x1="247.746" y1="201.128" x2="41.7706" y2="202.745" gradientUnits="userSpaceOnUse">
<stop stop-color="#0066FF"/>
<stop offset="1" stop-color="#F400F9"/>
</linearGradient>
<linearGradient id="paint11_linear_9_379" x1="225.674" y1="201.671" x2="62.5327" y2="202.952" gradientUnits="userSpaceOnUse">
<stop stop-color="#0066FF"/>
<stop offset="1" stop-color="#F400F9"/>
</linearGradient>
</defs>
</svg>
