<svg width="453" height="377" viewBox="0 0 453 377" fill="none" xmlns="http://www.w3.org/2000/svg">
<g clip-path="url(#clip0_1_2)">
<g clip-path="url(#clip1_1_2)">
<path d="M291.364 -233.625C446.677 -277.8 463.77 -118.808 417.673 -3.60901C394.028 63.579 469.543 106.988 440.195 190.22C410.847 273.453 315.569 174.698 268.068 302.075C220.566 429.452 3.08624 369.157 -0.284988 258.18C-3.65623 147.203 -39.9158 177.989 -124.285 67.648C-208.653 -42.6935 -94.1246 -230.598 28.7366 -185.061C151.598 -139.524 123.234 -185.804 291.364 -233.625Z" stroke="url(#paint0_linear_1_2)" stroke-opacity="0.1" stroke-width="2"/>
<path d="M172.104 6.217C186.89 1.145 210.988 24.171 200.928 42.917C191.716 60.083 198.156 77.44 194.079 88.972C183.347 119.332 177.453 108.242 164.531 121.878C148.807 138.47 107.355 146.654 107.058 108.795C106.813 77.657 91.7629 87.092 84.8788 63.828C77.9947 40.564 89.1937 14.033 119.224 13.797C130.502 13.708 147.477 14.666 172.104 6.217Z" stroke="url(#paint1_linear_1_2)" stroke-opacity="0.1" stroke-width="2"/>
<path d="M281.278 -211.83C423.817 -252.451 441.546 -105.818 398.725 0.612C376.392 63.252 445.627 104.292 418.577 181.007C390.922 259.433 303.769 168.648 259.411 285.685C214.799 402.99 13.3214 348.921 10.2296 244.591C7.1426 140.872 -27.1888 169.716 -104.514 67.291C-181.838 -35.1336 -76.7032 -208.368 37.7189 -166.992C150.436 -125.603 126.194 -167.588 281.278 -211.83Z" stroke="url(#paint2_linear_1_2)" stroke-opacity="0.1" stroke-width="2"/>
<path d="M271.192 -190.035C400.955 -227.101 419.322 -92.8293 379.777 4.83301C358.756 62.926 421.711 101.597 396.959 171.794C370.996 245.414 291.969 162.598 250.755 269.294C209.031 376.528 23.556 328.684 20.7437 231.001C17.941 134.541 -14.4623 161.444 -84.7429 66.935C-155.024 -27.574 -59.2821 -186.138 46.7008 -148.923C149.274 -111.682 129.153 -149.372 271.192 -190.035Z" stroke="url(#paint3_linear_1_2)" stroke-opacity="0.1" stroke-width="2"/>
<path d="M261.105 -168.24C378.093 -201.751 397.097 -79.84 360.828 9.05399C341.119 62.599 397.795 98.902 375.34 162.581C351.069 231.394 280.168 156.547 242.098 252.904C203.262 350.067 33.7902 308.448 31.2573 217.412C28.7388 128.209 -1.73634 153.172 -64.9729 66.579C-128.209 -20.013 -41.8617 -163.907 55.6822 -130.854C148.111 -97.7602 132.113 -131.157 261.105 -168.24Z" stroke="url(#paint4_linear_1_2)" stroke-opacity="0.1" stroke-width="2"/>
<path d="M251.018 -146.444C355.231 -176.401 374.871 -66.8505 341.878 13.275C323.481 62.273 373.878 96.208 353.72 153.368C331.142 217.374 268.367 150.497 233.44 236.514C197.493 323.605 44.0235 288.212 41.7701 203.823C39.5359 121.878 10.9888 144.9 -45.2037 66.224C-101.396 -12.453 -24.442 -141.677 64.6627 -112.784C146.948 -83.8385 135.071 -112.941 251.018 -146.444Z" stroke="url(#paint5_linear_1_2)" stroke-opacity="0.1" stroke-width="2"/>
<path d="M240.411 -124.645C331.848 -151.046 352.125 -53.8567 322.409 17.5C305.324 61.951 349.441 93.517 331.58 144.159C310.694 203.359 256.045 144.452 224.262 220.128C191.204 297.148 53.7372 267.98 51.7633 190.238C49.8133 115.552 23.1943 136.633 -25.9541 65.872C-75.1025 -4.88802 -7.54195 -119.442 73.1236 -94.7106C145.265 -69.9125 137.51 -94.7206 240.411 -124.645Z" stroke="url(#paint6_linear_1_2)" stroke-opacity="0.1" stroke-width="2"/>
<path d="M229.189 -102.84C307.851 -125.687 328.765 -40.8577 302.325 21.731C286.552 61.634 324.39 90.832 308.826 134.956C289.633 189.349 243.109 138.411 214.469 203.747C184.301 270.696 62.8362 247.754 61.1417 176.659C59.476 109.23 34.7851 128.37 -7.31924 65.526C-49.4236 2.68198 8.74338 -97.2016 80.9698 -76.6316C142.967 -55.9813 139.334 -76.4951 229.189 -102.84Z" stroke="url(#paint7_linear_1_2)" stroke-opacity="0.1" stroke-width="2"/>
<path d="M217.933 -81.0345C283.82 -100.326 305.371 -27.858 282.206 25.962C267.746 61.318 299.304 88.148 286.038 125.753C268.537 175.34 230.139 132.371 204.643 187.367C177.363 244.245 71.9009 227.528 70.4859 163.08C69.1045 102.91 46.3417 120.109 11.2814 65.181C-23.7789 10.252 24.9945 -74.9607 88.7817 -58.5518C140.635 -42.0492 141.123 -58.2689 217.933 -81.0345Z" stroke="url(#paint8_linear_1_2)" stroke-opacity="0.1" stroke-width="2"/>
<path d="M206.628 -59.2277C259.74 -74.9646 281.927 -14.857 262.039 30.195C248.89 61.003 274.169 85.465 263.2 116.552C247.391 161.332 217.12 126.333 194.767 170.989C170.376 217.795 80.9165 207.303 79.781 149.503C78.6838 96.59 57.8491 111.849 29.8329 64.836C1.81661 17.824 41.1964 -52.7185 96.5445 -40.4707C138.254 -28.116 142.864 -40.0414 206.628 -59.2277Z" stroke="url(#paint9_linear_1_2)" stroke-opacity="0.1" stroke-width="2"/>
<path d="M195.25 -37.4187C235.587 -49.6008 258.411 -1.854 241.799 34.429C229.962 60.69 248.962 82.784 240.29 107.352C226.174 147.326 204.028 120.297 184.819 154.612C163.317 191.348 89.8596 187.081 89.0035 135.927C88.1906 90.273 69.2841 103.59 48.3119 64.494C27.3397 25.398 57.3258 -30.474 104.235 -22.388C135.8 -14.181 144.532 -21.812 195.25 -37.4187Z" stroke="url(#paint10_linear_1_2)" stroke-opacity="0.1" stroke-width="2"/>
<path d="M183.762 -15.606C211.324 -24.233 234.785 11.154 221.449 38.668C210.924 60.382 223.644 80.107 217.27 98.157C204.846 133.324 190.826 114.264 174.76 138.24C156.147 164.904 98.6926 166.863 98.116 122.356C97.5873 83.96 80.6089 95.336 66.6808 64.156C52.7526 32.976 73.3452 -8.22601 111.815 -4.30001C133.236 -0.241012 146.09 -3.57801 183.762 -15.606Z" stroke="url(#paint11_linear_1_2)" stroke-opacity="0.1" stroke-width="2"/>
</g>
</g>
<defs>
<linearGradient id="paint0_linear_1_2" x1="446.396" y1="64.658" x2="-152.593" y2="69.36" gradientUnits="userSpaceOnUse">
<stop stop-color="#0066FF"/>
<stop offset="1" stop-color="#F400F9"/>
</linearGradient>
<linearGradient id="paint1_linear_1_2" x1="203.603" y1="70.263" x2="83.08" y2="71.209" gradientUnits="userSpaceOnUse">
<stop stop-color="#0066FF"/>
<stop offset="1" stop-color="#F400F9"/>
</linearGradient>
<linearGradient id="paint2_linear_1_2" x1="424.324" y1="65.145" x2="-130.399" y2="69.499" gradientUnits="userSpaceOnUse">
<stop stop-color="#0066FF"/>
<stop offset="1" stop-color="#F400F9"/>
</linearGradient>
<linearGradient id="paint3_linear_1_2" x1="402.252" y1="65.632" x2="-108.206" y2="69.639" gradientUnits="userSpaceOnUse">
<stop stop-color="#0066FF"/>
<stop offset="1" stop-color="#F400F9"/>
</linearGradient>
<linearGradient id="paint4_linear_1_2" x1="380.179" y1="66.121" x2="-86.0136" y2="69.78" gradientUnits="userSpaceOnUse">
<stop stop-color="#0066FF"/>
<stop offset="1" stop-color="#F400F9"/>
</linearGradient>
<linearGradient id="paint5_linear_1_2" x1="358.107" y1="66.611" x2="-63.8229" y2="69.923" gradientUnits="userSpaceOnUse">
<stop stop-color="#0066FF"/>
<stop offset="1" stop-color="#F400F9"/>
</linearGradient>
<linearGradient id="paint6_linear_1_2" x1="336.035" y1="67.103" x2="-42.1528" y2="70.072" gradientUnits="userSpaceOnUse">
<stop stop-color="#0066FF"/>
<stop offset="1" stop-color="#F400F9"/>
</linearGradient>
<linearGradient id="paint7_linear_1_2" x1="313.962" y1="67.599" x2="-21.0987" y2="70.229" gradientUnits="userSpaceOnUse">
<stop stop-color="#0066FF"/>
<stop offset="1" stop-color="#F400F9"/>
</linearGradient>
<linearGradient id="paint8_linear_1_2" x1="291.89" y1="68.1" x2="-0.080877" y2="70.391" gradientUnits="userSpaceOnUse">
<stop stop-color="#0066FF"/>
<stop offset="1" stop-color="#F400F9"/>
</linearGradient>
<linearGradient id="paint9_linear_1_2" x1="269.818" y1="68.607" x2="20.8843" y2="70.562" gradientUnits="userSpaceOnUse">
<stop stop-color="#0066FF"/>
<stop offset="1" stop-color="#F400F9"/>
</linearGradient>
<linearGradient id="paint10_linear_1_2" x1="247.746" y1="69.128" x2="41.7706" y2="70.745" gradientUnits="userSpaceOnUse">
<stop stop-color="#0066FF"/>
<stop offset="1" stop-color="#F400F9"/>
</linearGradient>
<linearGradient id="paint11_linear_1_2" x1="225.674" y1="69.671" x2="62.5327" y2="70.952" gradientUnits="userSpaceOnUse">
<stop stop-color="#0066FF"/>
<stop offset="1" stop-color="#F400F9"/>
</linearGradient>
<clipPath id="clip0_1_2">
<rect width="453" height="377" fill="white"/>
</clipPath>
<clipPath id="clip1_1_2">
<rect width="449" height="509" fill="white" transform="translate(0 -132)"/>
</clipPath>
</defs>
</svg>
