<svg width="48" height="48" viewBox="0 0 48 48" fill="none" xmlns="http://www.w3.org/2000/svg">
<g clip-path="url(#clip0_39_212)">
<path d="M29.6283 25.4075C29.6283 29.287 26.4721 32.4431 22.5926 32.4431C18.7132 32.4431 15.557 29.287 15.557 25.4075C15.557 21.5279 18.7132 18.3716 22.5926 18.3716C24.0248 18.3716 25.3578 18.8029 26.4705 19.5408L30.5507 15.4606C30.4585 15.3929 30.3656 15.3262 30.272 15.2605C27.5049 13.3269 24.7331 12.3496 22.0218 12.3496C21.7734 12.3496 21.5258 12.3578 21.2784 12.3742C18.0069 12.5968 14.9591 14.0532 12.6985 16.4749C10.4323 18.8987 9.18469 22.0706 9.18469 25.4075C9.18469 28.9876 10.5797 32.3544 13.1126 34.8873C15.6458 37.4204 19.0124 38.8153 22.5925 38.8153C26.1727 38.8153 29.5394 37.4203 32.0724 34.8873C34.6054 32.3543 36.0003 28.9876 36.0003 25.4075C36.0003 22.4605 34.8102 19.6314 32.6617 17.3269L28.4589 21.5295C29.1971 22.6422 29.6283 23.9753 29.6283 25.4075Z" fill="#522070"/>
<path d="M21.5983 24.4131L24.4138 21.5976C23.8455 21.3248 23.2231 21.1834 22.5927 21.1841C20.2641 21.1841 18.3696 23.0787 18.3696 25.4075C18.3696 27.7361 20.2641 29.6306 22.5927 29.6306C24.9214 29.6306 26.8159 27.7361 26.8159 25.4075C26.8166 24.7771 26.6753 24.1546 26.4025 23.5863L23.5871 26.4017L21.5983 24.4131Z" fill="#522070"/>
<path d="M36.4016 13.5871L34.6519 15.3368C37.3278 18.17 38.813 21.701 38.813 25.4074C38.813 29.7389 37.1255 33.8118 34.0612 36.876C30.9969 39.9403 26.924 41.6279 22.5926 41.6279C18.2613 41.6279 14.1883 39.9403 11.124 36.876C8.05969 33.8118 6.37219 29.7388 6.37219 25.4074C6.37219 21.3548 7.88916 17.5007 10.6434 14.5549C13.3915 11.6107 17.1019 9.83932 21.0899 9.56791C24.6947 9.32969 28.3247 10.4685 31.883 12.9551C32.112 13.1157 32.3375 13.2815 32.5592 13.4522L34.413 11.5984L34.7099 6.33044C31.1217 4.04144 26.9516 2.81482 22.5927 2.81482C16.558 2.81482 10.8845 5.16485 6.61734 9.43198C2.35003 13.6991 0 19.3727 0 25.4074C0 31.442 2.35003 37.1156 6.61725 41.3827C10.8845 45.6498 16.5579 48 22.5926 48C28.6273 48 34.3009 45.6499 38.568 41.3827C42.8351 37.1155 45.1852 31.442 45.1852 25.4074C45.1852 21.0484 43.9584 16.8783 41.6695 13.2902L36.4016 13.5871Z" fill="#522070"/>
<path d="M37.2793 10.7207L43.026 10.3968L48 5.42269L42.5774 0L37.6033 4.974L37.2793 10.7207Z" fill="#522070"/>
</g>
<defs>
<clipPath id="clip0_39_212">
<rect width="48" height="48" fill="white"/>
</clipPath>
</defs>
</svg>
