<svg width="48" height="48" viewBox="0 0 48 48" fill="none" xmlns="http://www.w3.org/2000/svg">
<g clip-path="url(#clip0_39_220)">
<path d="M30.2761 26.191V19.1183H37.1319L22.1152 0L5.60315 19.1183H12.3194L22.8737 34.0009C24.0642 30.4336 26.7963 27.5652 30.2761 26.191ZM22.2344 38.5111H19.6348V48H27.0828C24.2475 45.7676 22.3832 42.3556 22.2344 38.5111Z" fill="#522070"/>
<path d="M3.08502 35.7923H6.97987V48H16.9161V35.7923H20.8327L12.3263 23.7117L3.08502 35.7923ZM34.9287 28.0275C29.4223 28.0275 24.9425 32.5074 24.9425 38.0138C24.9425 43.5202 29.4223 48 34.9287 48C40.4351 48 44.915 43.5202 44.915 38.0138C44.915 32.5074 40.4351 28.0275 34.9287 28.0275ZM33.7752 42.5848L30.0513 38.8608L32.0308 36.8814L33.7752 38.6258L37.8267 34.5744L39.8061 36.5539L33.7752 42.5848Z" fill="#522070"/>
</g>
<defs>
<clipPath id="clip0_39_220">
<rect width="48" height="48" fill="white"/>
</clipPath>
</defs>
</svg>
