<svg width="48" height="48" viewBox="0 0 48 48" fill="none" xmlns="http://www.w3.org/2000/svg">
<path d="M20.9344 44.3438H17.5594C16.9219 44.3438 16.4063 43.8281 16.4063 43.1906V42.0375H22.0969V43.1906C22.0875 43.8281 21.5719 44.3438 20.9344 44.3438ZM25.3781 39.3656C25.3781 38.7281 24.8625 38.2125 24.225 38.2125H14.25C13.6125 38.2219 13.1063 38.7281 13.1063 39.3656C13.1063 40.0031 13.6219 40.5188 14.2594 40.5188H24.225C24.8625 40.5281 25.3781 40.0031 25.3781 39.3656ZM14.25 34.3875C12.7125 34.4156 12.7406 36.675 14.2594 36.7031H24.225C24.8438 36.7031 25.3875 36.1781 25.3781 35.55C25.3781 34.9125 24.8625 34.3969 24.225 34.3969H14.25V34.3875ZM34.8844 26.9438L32.85 26.5406L32.7 26.5125C32.6156 26.9625 32.1844 29.175 32.1 29.5781L34.8844 26.9438ZM26.3438 24.45C27.3188 25.7344 29.4938 28.6313 30.4875 29.9438L31.3688 25.4813C31.3875 25.3875 31.4344 25.2844 31.4813 25.2C31.4906 25.2 31.4906 25.1906 31.4906 25.1906C33.0656 22.95 35.4938 19.4719 37.05 17.2781L26.3438 24.45ZM19.0219 22.275L25.0969 23.475L39.5625 13.7719C39.8625 13.5938 40.275 13.6219 40.5188 13.875C40.5188 13.875 40.5188 13.8844 40.5281 13.8844C40.7906 14.1281 40.8188 14.55 40.6125 14.8313C38.2031 18.2531 35.7938 21.6938 33.3844 25.1156C35.3438 25.5 38.9625 26.2125 40.9594 26.6063L46.8469 7.51876C34.1531 14.2313 29.2313 17.0438 19.0219 22.275ZM23.8313 32.8781C23.9438 30.6281 24.8344 28.5094 26.3344 26.9531L25.0781 25.2844L24.825 24.9469L16.6125 23.3344C15.9281 23.2219 15.7875 22.2188 16.4156 21.9281C20.9063 19.5938 25.4531 17.2313 29.9344 14.8875C28.3969 9.99376 23.6531 6.73126 18.525 7.05939C8.85938 7.69689 4.44375 19.7813 11.5781 26.4094C13.4531 28.1625 14.5406 30.45 14.6531 32.8781H23.8313ZM8.11875 28.2469L6.44063 29.925C5.9625 30.375 6.32813 31.2375 6.975 31.2094C7.17188 31.2094 7.35938 31.1344 7.50938 30.9844L9.1875 29.3156C9.88125 28.6031 8.83125 27.5625 8.11875 28.2469ZM29.8406 8.35314C30.0375 8.35314 30.225 8.27814 30.375 8.12814L32.0531 6.45001C32.7469 5.73751 31.6969 4.69689 30.9844 5.38126L29.3063 7.05939C28.8188 7.50939 29.1938 8.37189 29.8406 8.35314ZM4.26563 17.4375H1.89375C0.9 17.4563 0.9 18.9281 1.89375 18.9469H4.26563C5.25938 18.9281 5.25938 17.4563 4.26563 17.4375ZM8.11875 8.12814C8.26875 8.27814 8.45625 8.35314 8.65313 8.35314C9.3 8.37189 9.66563 7.50939 9.1875 7.06876L7.50938 5.39064C7.21875 5.10001 6.74063 5.10001 6.44063 5.39064C6.15 5.68126 6.15 6.15939 6.44063 6.45939L8.11875 8.12814ZM19.2469 3.96564C19.6594 3.96564 19.9969 3.62814 19.9969 3.21564V0.843762C19.9781 -0.149988 18.5063 -0.149988 18.4875 0.843762V3.21564C18.4875 3.62814 18.825 3.96564 19.2469 3.96564ZM32.775 42.0469C32.775 41.7938 32.9156 41.6156 33.2063 41.2969C33.5438 40.9125 34.0125 40.3781 34.05 39.5156C34.0969 38.5031 33.4406 37.875 32.8594 37.3219C31.3688 36.0563 30.9844 34.4156 31.6313 32.2219C31.7438 31.8188 31.5094 31.4063 31.1156 31.2938C30.7125 31.1813 30.3 31.4063 30.1781 31.8094C29.6531 33.6563 29.7094 35.2594 30.3563 36.5719C30.7781 37.4156 31.3594 37.9688 31.8188 38.4094C32.3531 38.9156 32.55 39.1406 32.5406 39.45C32.5219 39.7594 32.3625 39.9563 32.0625 40.3031C30.1688 42.3188 31.9219 44.0156 33.7688 45.0938C31.5563 45.2156 29.8406 45.15 26.6344 45.8344C24.6281 46.3969 22.4531 46.7531 20.6531 45.6563H18.6094C19.0688 46.8188 20.7469 47.4188 21.7781 47.6906C23.5688 48.1969 25.2375 47.7 26.9625 47.3063C29.3906 46.7719 31.3313 46.6969 32.7563 46.6406C34.4156 46.5844 35.5125 46.5469 35.7094 45.5344C36.0563 43.9313 32.8875 43.3875 32.775 42.0469Z" fill="#522070"/>
</svg>
