<svg width="20" height="21" viewBox="0 0 20 21" fill="none" xmlns="http://www.w3.org/2000/svg">
<path fill-rule="evenodd" clip-rule="evenodd" d="M10 13.4167C9.78667 13.4167 9.57334 13.335 9.41084 13.1725L6.0775 9.83917C5.75167 9.51333 5.75167 8.98667 6.0775 8.66083C6.40334 8.335 6.93 8.335 7.25584 8.66083L10.01 11.415L12.7542 8.765C13.0867 8.44583 13.6125 8.455 13.9325 8.78583C14.2525 9.11667 14.2433 9.645 13.9125 9.96417L10.5792 13.1825C10.4167 13.3392 10.2083 13.4167 10 13.4167Z" fill="#933490"/>
<mask id="mask0_88_386" style="mask-type:luminance" maskUnits="userSpaceOnUse" x="5" y="8" width="10" height="6">
<path fill-rule="evenodd" clip-rule="evenodd" d="M10 13.4167C9.78667 13.4167 9.57334 13.335 9.41084 13.1725L6.0775 9.83917C5.75167 9.51333 5.75167 8.98667 6.0775 8.66083C6.40334 8.335 6.93 8.335 7.25584 8.66083L10.01 11.415L12.7542 8.765C13.0867 8.44583 13.6125 8.455 13.9325 8.78583C14.2525 9.11667 14.2433 9.645 13.9125 9.96417L10.5792 13.1825C10.4167 13.3392 10.2083 13.4167 10 13.4167Z" fill="white"/>
</mask>
<g mask="url(#mask0_88_386)">
<rect y="0.5" width="20" height="20" fill="#6C727E"/>
</g>
</svg>
