<svg width="152" height="80" viewBox="0 0 152 80" fill="none" xmlns="http://www.w3.org/2000/svg">
<g clip-path="url(#clip0_47_2124)">
<path d="M89.9736 21.762C87.3718 19.6147 84.0119 21.0897 83.2669 24.1613C83.0835 24.2785 82.9398 24.2033 82.7806 24.0817C82.553 23.907 82.2833 23.7809 82.0622 23.5974C81.136 22.8345 80.0418 22.8743 78.9852 23.0512C78.1917 23.1839 77.5351 23.7102 76.9626 24.2917C76.4056 24.8578 76.1956 25.5942 75.9701 26.3417C75.5767 26.1028 75.2053 25.8596 74.8185 25.6473C74.646 25.5522 74.4471 25.4991 74.2526 25.4527C73.9144 25.3731 73.5739 25.3112 73.2335 25.247C73.1252 25.2271 73.0125 25.2072 72.9042 25.2205C71.5801 25.3908 70.4439 25.9326 69.7277 27.0913C69.2989 27.7857 69.0248 28.584 69.0778 29.4265C69.1132 29.9838 69.248 30.5322 69.5332 31.0319C69.6481 31.2354 69.7034 31.4742 69.7896 31.7064C68.9363 32.5224 68.0853 33.3229 67.2519 34.1367C66.4341 34.935 65.6361 35.7554 64.8182 36.5559C63.8986 37.4559 62.968 38.3449 62.0396 39.2338C61.6616 39.5943 61.2262 39.78 60.6868 39.8287C59.6854 39.9216 58.9781 39.508 58.3923 38.7451C58.1116 38.378 58.1071 37.9247 57.9215 37.5289C57.8684 37.4161 58.0276 37.2215 58.0408 37.0623C58.0895 36.4166 58.4454 35.9544 58.8852 35.521C60.0015 34.4264 61.1068 33.3207 62.2164 32.2194C63.2731 31.1712 64.3341 30.1275 65.3885 29.0771C65.7997 28.668 66.2064 28.2545 66.6131 27.841C66.8099 27.6419 66.9624 27.4274 66.9823 27.1311C67.0287 26.4168 66.4562 26.0387 65.7952 26.2996C65.373 26.4655 65.1321 26.8105 64.8359 27.0935C63.4035 28.4734 61.9866 29.871 60.5718 31.2708C59.8358 32.0005 59.1196 32.7502 58.3812 33.4777C57.9679 33.8868 57.5192 34.2605 57.1014 34.663C56.3078 35.4237 55.5408 36.2109 54.7317 36.9561C54.2277 37.4183 53.6464 37.7102 52.9103 37.6748C51.8028 37.6195 50.8302 36.6797 50.7727 35.5674C50.7285 34.6939 50.985 33.9885 51.6393 33.3693C52.8064 32.2637 53.9205 31.1005 55.0545 29.9594C56.0094 28.9975 56.9599 28.0311 57.9126 27.067C59.177 25.7888 60.4458 24.5173 61.6992 23.2303C61.9357 22.987 62.1059 22.6819 62.2894 22.4298C62.117 22.0561 62.0065 21.7398 61.582 21.7465C61.2483 21.7509 60.9587 21.7752 60.6912 22.0539C59.9374 22.8389 59.1461 23.5885 58.3591 24.3404C57.7933 24.8822 57.2031 25.3974 56.635 25.937C55.7043 26.8215 54.787 27.7193 53.8586 28.6061C53.0053 29.4199 52.1455 30.227 51.2922 31.0408C50.3041 31.985 49.3205 32.9359 48.3368 33.8868C48.0118 34.2008 47.7046 34.5325 47.3642 34.8288C46.8889 35.2423 46.3053 35.2932 45.7063 35.2534C44.7116 35.1848 44.0727 34.6652 43.7942 33.6878C43.7146 33.4091 43.5599 33.1172 43.5953 32.8519C43.6461 32.487 43.8009 32.1133 43.9954 31.7926C44.4242 31.0916 45.0564 30.5609 45.6289 29.9838C46.4954 29.1081 47.3443 28.2147 48.2064 27.3346C49.1193 26.3992 50.0367 25.466 50.9562 24.5372C51.5597 23.9269 52.2361 23.374 52.76 22.7018C53.4496 21.8172 54.3206 21.1273 55.0766 20.3135C56.677 18.5909 58.3326 16.9213 59.9816 15.2473C61.2416 13.9669 62.5569 12.7396 63.7903 11.4372C64.3054 10.8932 64.7895 10.3293 65.4195 9.91133C65.7974 9.65924 66.2307 9.52435 66.6352 9.33859C67.5128 8.93613 68.4014 9.1064 69.2834 9.08429C70.5522 9.05554 71.8299 9.01795 73.0899 9.13294C74.0492 9.21918 75.0793 9.25456 75.8618 9.97989C76.2089 10.3027 76.5272 10.6521 76.8632 10.986C77.796 11.906 78.7266 12.8303 79.6705 13.7392C80.1877 14.2389 80.8288 14.5109 81.5406 14.5176C83.6936 14.5397 85.8466 14.5242 87.9996 14.5286C89.6199 14.5331 91.238 14.5485 92.8583 14.5507C93.1279 14.5507 93.3954 14.5109 93.6452 14.491C93.738 14.2102 93.6828 14.0642 93.5104 13.8984C92.8163 13.2284 92.1443 12.5362 91.4679 11.8485C90.4533 10.818 89.4386 9.78307 88.4262 8.75037C87.195 7.49433 85.9704 6.22722 84.7303 4.98223C83.9235 4.17067 83.0813 3.3967 82.27 2.58955C81.7793 2.10084 81.3261 1.57233 80.8354 1.08141C80.6055 0.851432 80.3292 0.665678 80.075 0.457811C80.1037 0.404739 80.1325 0.351667 80.159 0.298594C80.2872 0.267635 80.4154 0.21014 80.5436 0.205718C81.0034 0.190238 81.4632 0.194661 81.923 0.185815C82.4889 0.174759 83.0658 0.256579 83.614 0.0332322C83.6626 0.0133301 83.7223 0.0155414 83.7776 0.0155414C84.8806 0.0111187 85.9858 -0.0397423 87.0845 0.0221755C87.8449 0.0641911 88.6163 0.25879 89.2839 0.630297C89.7658 0.89787 90.157 1.33572 90.566 1.72049C91.3374 2.4436 92.1001 3.17777 92.8561 3.91636C93.4816 4.52669 94.105 5.14145 94.7084 5.77611C95.208 6.30241 95.6789 6.85746 96.1585 7.40145C96.6117 7.9167 97.1643 8.32801 97.7611 8.62433C98.232 8.85652 98.7293 9.0865 99.3151 9.07987C102.169 9.04669 105.02 9.05554 107.874 9.05554C117.631 9.05554 127.386 9.05554 137.143 9.05554C137.34 9.05554 137.537 9.07765 137.791 9.09313C137.764 9.32533 137.778 9.5155 137.718 9.67693C137.506 10.2386 137.258 10.7848 137.039 11.3443C136.874 11.7689 136.734 12.2023 136.577 12.6291C136.305 13.3588 136.02 14.0842 135.755 14.8183C135.496 15.5348 135.262 16.2601 135.006 16.9766C134.798 17.5582 134.601 18.1464 134.351 18.7103C134.018 19.4577 133.732 20.2184 133.505 21.0057C133.354 21.5276 133.109 22.0295 133.005 22.558C132.862 23.2812 132.497 23.9136 132.232 24.5792C131.789 25.6827 131.299 26.7839 130.388 27.6132C130.308 27.6862 130.24 27.7702 130.167 27.8498C129.561 28.5088 128.83 28.8891 127.914 28.856C127.486 28.8405 127.433 28.783 127.448 28.3695C127.479 27.5601 127.532 26.7508 127.534 25.9414C127.534 25.1166 127.497 24.3028 127.253 23.4912C126.973 22.547 126.568 21.6779 126.128 20.8C125.6 19.7474 124.806 18.9491 123.991 18.1597C123.63 17.8103 123.186 17.5339 122.749 17.2773C122.249 16.9832 121.725 16.7245 121.192 16.4945C120.693 16.28 120.2 16.0456 119.636 15.997C119.203 15.9594 118.778 15.778 118.345 15.7626C117.483 15.7316 116.619 15.7405 115.757 15.7957C115.231 15.8289 114.7 15.9328 114.196 16.081C113.677 16.2336 113.164 16.4392 112.686 16.6958C111.904 17.1181 111.108 17.525 110.438 18.1353C109.501 18.9889 108.683 19.9464 108.071 21.0455C107.706 21.7022 107.461 22.4298 107.282 23.1905C106.915 24.7451 107.105 26.3041 107.058 27.8586C107.05 28.1483 107.058 28.4402 107.058 28.7255C106.7 28.8737 106.453 28.8206 106.214 28.5795C105.575 27.9338 104.921 27.3036 104.273 26.6667C102.943 25.3598 101.61 24.0573 100.283 22.746C99.1648 21.6381 98.064 20.5125 96.9366 19.4135C96.6249 19.1105 96.216 18.9381 95.8314 18.728C95.082 18.3145 94.2995 18.3675 93.5325 18.4405C92.4272 18.5444 91.4789 19.0022 90.8821 20.0172C90.6235 20.4573 90.3118 20.8641 90.2543 21.3993C90.241 21.5165 90.0841 21.616 89.9736 21.7509V21.762Z" fill="#933490"/>
<path d="M13.4707 28.838C13.2784 28.2542 13.6586 27.8849 13.7802 27.4581C13.8885 27.0822 14.1206 26.7438 14.2753 26.3768C14.576 25.6581 14.8678 24.935 15.1485 24.2096C15.2988 23.8204 15.4005 23.4113 15.553 23.0221C15.7674 22.4671 16.0128 21.9253 16.2338 21.3747C16.4217 20.9037 16.5919 20.426 16.7754 19.9528C16.8793 19.683 16.9854 19.4132 17.1048 19.1501C17.5447 18.1793 17.9801 17.2085 18.3228 16.1935C18.535 15.5633 18.8555 14.9728 19.1141 14.3581C19.3462 13.8052 19.5518 13.2435 19.7773 12.6885C20.3299 11.3329 21.2848 10.3489 22.5669 9.66116C23.6876 9.05968 24.8923 8.96238 26.1302 8.98891C28.0069 9.02872 29.8814 9.05083 31.7581 9.07073C33.1198 9.08621 34.4814 9.07958 35.8453 9.09285C36.4488 9.09948 37.0611 9.01766 37.6446 9.24985C37.7087 9.27639 37.7905 9.26312 37.8635 9.26312C40.9736 9.30735 44.0816 9.35157 47.1917 9.39138C48.591 9.40907 49.9902 9.40907 51.3873 9.42897C51.6039 9.43118 51.8183 9.49531 52.0349 9.52627C52.1985 9.5506 52.3643 9.60146 52.5234 9.58598C53.3369 9.51079 54.1415 9.42897 54.9263 9.12602C55.7463 8.812 56.4205 8.30782 57.0417 7.73287C57.5015 7.30829 57.864 6.77756 58.2818 6.30433C59.3693 5.0704 60.4613 3.83868 61.5555 2.61138C62.0352 2.07402 62.4839 1.49907 63.0211 1.02363C63.5936 0.517231 64.2567 0.141302 65.0857 0.167838C65.6913 0.18774 66.297 0.10592 66.9027 0.10592C69.9952 0.0992861 73.0876 0.0992861 76.1801 0.112554C76.6554 0.112554 77.1417 0.150147 77.6015 0.262926C77.9176 0.340323 78.2381 0.528288 78.4834 0.749423C79.1908 1.38408 79.8716 2.0497 80.5414 2.72637C81.7174 3.91165 82.8823 5.11242 84.0428 6.31318C85.5526 7.87439 87.0557 9.44445 88.5633 11.0079C89.0054 11.4656 89.4652 11.9101 89.9073 12.3701C90.0421 12.5094 90.1416 12.6797 90.3162 12.9163C90.0686 12.9539 89.8984 13.0003 89.7282 13.0003C87.206 13.018 84.6839 13.0246 82.1639 13.0445C81.4057 13.0512 80.8022 12.7084 80.254 12.2374C79.4671 11.5585 78.8283 10.7425 78.1983 9.9221C77.5904 9.13044 76.7946 8.5776 75.9259 8.10216C75.5744 7.90977 75.192 7.89872 74.8339 7.78152C73.4037 7.30829 71.936 7.50289 70.508 7.60903C69.1684 7.70854 67.8289 7.71075 66.4937 7.81026C65.656 7.87218 65.0348 8.35647 64.4756 8.89825C63.2178 10.1145 62.002 11.3772 60.7597 12.6067C59.5152 13.8384 58.2575 15.0546 57.0063 16.2797C55.8237 17.4363 54.6455 18.595 53.4629 19.7516C52.2737 20.9147 51.0756 22.0668 49.893 23.2366C48.5733 24.5413 47.2691 25.8615 45.9517 27.1706C45.4963 27.624 45.0233 28.0618 44.5436 28.5196C44.2872 28.4024 44.3822 28.179 44.3844 27.9977C44.3955 27.206 44.4331 26.4143 44.422 25.6227C44.4154 25.0743 44.4286 24.5148 44.1766 23.9973C44.1457 23.9354 44.1479 23.8536 44.1435 23.7806C44.1037 23.1349 43.865 22.5555 43.5621 21.9961C43.2372 21.3924 42.9542 20.7577 42.5696 20.196C42.2137 19.6786 41.7672 19.2186 41.3229 18.7675C40.9803 18.4203 40.6023 18.0997 40.2022 17.8255C39.6098 17.4186 38.9997 17.0272 38.3631 16.6933C37.6557 16.3217 36.8798 16.1471 36.0973 15.9591C35.107 15.7203 34.13 15.6849 33.1441 15.7512C32.0322 15.8264 30.9645 16.0962 29.9345 16.5716C28.5617 17.2041 27.43 18.124 26.4463 19.2385C26.0794 19.6543 25.8296 20.1717 25.5223 20.6405C25.4538 20.7444 25.3521 20.8329 25.3013 20.9435C25.0736 21.4366 24.8349 21.9275 24.6425 22.4361C24.4348 22.9845 24.3905 23.5794 24.2513 24.1411C23.9882 25.1981 24.0148 26.2551 24.0391 27.3188C24.0479 27.6815 24.1209 28.0441 24.1872 28.4024C24.2491 28.7318 24.1916 28.8314 23.8423 28.8689C23.7141 28.8822 23.5859 28.8756 23.4555 28.8756C20.3454 28.8756 17.233 28.8756 14.1228 28.8756C13.9062 28.8756 13.6896 28.8513 13.4619 28.838H13.4707Z" fill="#512071"/>
<path d="M34.1477 17.2838C34.6251 17.2838 35.1048 17.2683 35.5823 17.2904C35.7768 17.2992 35.9691 17.381 36.1592 17.4385C36.2631 17.4695 36.3559 17.5403 36.462 17.558C37.7309 17.7791 38.8162 18.3784 39.7844 19.1988C40.7858 20.0457 41.6125 21.0453 42.1872 22.2261C42.3994 22.6618 42.4326 23.1792 42.6183 23.6281C43.1024 24.8023 42.8968 26.0186 42.8747 27.2238C42.8702 27.4714 42.7686 27.7191 42.7045 27.9646C42.6824 28.053 42.6315 28.1348 42.616 28.2233C42.3928 29.5302 41.7915 30.6558 40.9051 31.6155C40.3547 32.2126 39.7667 32.7853 39.1301 33.2873C38.7123 33.6168 38.1818 33.8136 37.6911 34.0414C37.2976 34.2249 36.8975 34.435 36.4775 34.5102C35.6353 34.6627 34.7799 34.7822 33.9266 34.8131C33.3673 34.8352 32.797 34.7003 32.2378 34.5942C31.8465 34.519 31.4531 34.404 31.0883 34.2448C30.5247 33.9971 29.9566 33.7384 29.4393 33.4067C28.3849 32.73 27.4676 31.8919 26.7823 30.8261C26.3579 30.1671 26.0352 29.4683 25.7964 28.7142C25.4693 27.6837 25.1863 26.6554 25.2814 25.563C25.2991 25.364 25.3477 25.1672 25.3875 24.9682C25.445 24.6807 25.4958 24.3932 25.5687 24.1102C25.6682 23.7232 25.7456 23.3229 25.9047 22.9603C26.1656 22.3654 26.3557 21.7374 26.7558 21.2001C27.3217 20.4393 27.945 19.7383 28.6634 19.1214C29.1696 18.688 29.709 18.3054 30.339 18.0688C30.7965 17.8963 31.2608 17.7415 31.7205 17.5801C31.7714 17.5624 31.8399 17.5801 31.8819 17.5535C32.5915 17.1157 33.3895 17.3324 34.1432 17.2838H34.1477ZM34.1963 30.7288C36.7803 30.8283 39.0196 28.367 38.9356 25.8859C38.8516 23.3959 36.7096 21.2023 34.0592 21.2421C31.7382 21.2752 29.4039 23.3915 29.4371 26.1137C29.4658 28.6324 31.8156 30.8349 34.1941 30.7288H34.1963Z" fill="#512071"/>
<path d="M117.132 17.2992C117.518 17.2992 117.905 17.2793 118.29 17.3058C118.522 17.3213 118.75 17.4031 118.975 17.4716C119.426 17.6087 119.87 17.779 120.326 17.8962C121.027 18.0731 121.639 18.4115 122.205 18.8471C122.536 19.1036 122.868 19.3646 123.173 19.652C124.039 20.4724 124.767 21.4056 125.226 22.5113C125.441 23.0288 125.483 23.6148 125.684 24.1389C126 24.9615 126.005 25.8129 125.881 26.6399C125.77 27.3674 125.724 28.1281 125.386 28.8137C125.266 29.0569 125.213 29.3311 125.109 29.5832C124.398 31.339 123.102 32.5929 121.546 33.5835C121.018 33.9197 120.357 34.0391 119.786 34.3133C118.991 34.6958 118.133 34.614 117.304 34.6782C116.597 34.7334 115.861 34.6848 115.167 34.5455C114.59 34.4305 114.055 34.1143 113.5 33.8843C113.283 33.7936 113.053 33.7229 112.854 33.599C112.017 33.0838 111.221 32.4956 110.58 31.7503C110.047 31.1312 109.565 30.4589 109.247 29.6938C108.968 29.0259 108.765 28.336 108.568 27.6372C108.367 26.923 108.352 26.2352 108.349 25.5254C108.349 25.3109 108.422 25.0942 108.471 24.8819C108.513 24.7028 108.623 24.5236 108.61 24.3534C108.566 23.8072 108.838 23.356 109.021 22.8894C109.26 22.2858 109.543 21.6909 109.877 21.1336C110.118 20.7334 110.46 20.3906 110.783 20.0479C111.586 19.1943 112.494 18.4734 113.566 17.9935C113.975 17.81 114.433 17.7282 114.866 17.6021C114.919 17.5866 114.983 17.5977 115.027 17.5712C115.686 17.1753 116.422 17.3345 117.127 17.3014L117.132 17.2992ZM117.233 30.7751C117.817 30.7707 118.462 30.784 119.033 30.4103C119.183 30.3107 119.329 30.198 119.495 30.1294C120.302 29.7955 120.909 29.2537 121.292 28.4665C121.38 28.2851 121.458 28.0994 121.537 27.9158C121.774 27.3652 122.046 26.8279 122.019 26.1976C121.999 25.6669 122.032 25.145 121.752 24.6475C121.469 24.1433 121.327 23.5484 120.998 23.0818C120.282 22.0712 119.205 21.525 118.045 21.2508C116.844 20.9678 115.708 21.3282 114.645 21.9364C114.057 22.2725 113.646 22.7568 113.25 23.2875C112.653 24.0946 112.443 25.0256 112.324 25.9831C112.286 26.2772 112.448 26.5912 112.465 26.8986C112.51 27.6262 112.857 28.263 113.261 28.7849C114.231 30.0343 115.494 30.8547 117.231 30.7751H117.233Z" fill="#933490"/>
<path d="M6.06779 48.6981C6.08106 48.8972 6.10537 49.1139 6.10537 49.3284C6.10979 50.6729 6.10537 52.0174 6.10537 53.3619C6.10537 53.51 6.10316 53.656 6.10758 53.8041C6.12527 54.3548 6.17832 54.4167 6.70884 54.4189C8.01524 54.4255 9.32164 54.4255 10.628 54.4189C11.174 54.4167 11.216 54.3703 11.2182 53.8064C11.2249 52.3336 11.2204 50.8586 11.2204 49.3859C11.2204 49.1669 11.2204 48.9502 11.2204 48.6738C11.4636 48.6517 11.6559 48.6185 11.8482 48.6163C12.9712 48.6119 14.0919 48.6141 15.2148 48.6163C15.8779 48.6163 15.8868 48.623 15.8868 49.3018C15.8868 53.4459 15.8868 57.59 15.8868 61.7341C15.8868 62.2139 15.8956 62.6916 15.8824 63.1714C15.8713 63.5252 15.8116 63.5938 15.4535 63.596C14.1295 63.6026 12.8054 63.5938 11.4791 63.5872C11.4282 63.5872 11.3752 63.5562 11.247 63.5164C11.1696 61.6721 11.2669 59.8013 11.1917 57.873C10.964 57.8354 10.7562 57.7735 10.5485 57.7735C9.29732 57.7647 8.04618 57.7647 6.79505 57.7691C6.18937 57.7713 6.10758 57.8598 6.10537 58.4878C6.10095 59.9429 6.10537 61.3979 6.10537 62.853C6.10537 63.0697 6.08106 63.2864 6.06558 63.5496C5.85338 63.5695 5.67654 63.5982 5.4997 63.5982C4.3414 63.6026 3.18089 63.6026 2.0226 63.5982C1.39703 63.596 1.32629 63.5252 1.32629 62.8906C1.32408 59.6863 1.33071 56.4821 1.31966 53.2778C1.31745 52.5238 1.29535 51.7675 1.22682 51.0156C1.16051 50.3036 0.817881 49.7021 0.26968 49.2443C0.0817879 49.0873 -0.048631 48.9547 0.0198942 48.7048C0.439887 48.592 5.49749 48.5809 6.06779 48.7004V48.6981Z" fill="#512071"/>
<path d="M103.358 52.7605C103.06 52.5725 102.859 52.4111 102.633 52.3093C101.784 51.9224 100.911 51.6106 99.9584 51.615C99.797 51.615 99.6356 51.5508 99.4743 51.5287C99.2753 51.5 99.0565 51.4204 98.8796 51.4735C98.1656 51.6924 97.3809 51.6017 96.7089 51.9931C96.006 52.4022 95.3694 52.8865 94.9229 53.5742C94.4896 54.2421 94.2067 54.963 94.2663 55.7856C94.2862 56.0598 94.273 56.3384 94.273 56.6148C94.273 57.8156 94.7792 58.7864 95.6302 59.598C96.2889 60.226 97.0803 60.5466 97.9888 60.5643C98.4066 60.5732 98.8266 60.5709 99.2444 60.5643C99.3129 60.5643 99.3792 60.5135 99.4986 60.4626C99.4986 59.8898 99.503 59.306 99.4986 58.7223C99.4964 58.4237 99.2864 58.3706 99.0432 58.3706C98.5282 58.3706 98.0153 58.3706 97.4229 58.3706C97.3301 57.391 97.3809 56.4468 97.392 55.445C97.602 55.4207 97.7766 55.3831 97.9512 55.3809C99.7904 55.3765 101.632 55.3765 103.471 55.3809C104.023 55.3809 104.209 55.5357 104.214 56.093C104.225 57.7869 104.207 59.4807 104.2 61.1769C104.2 61.4157 104.218 61.6545 104.205 61.8933C104.187 62.2029 104.169 62.5169 104.103 62.8199C104.054 63.0388 103.897 63.1825 103.652 63.2511C103.113 63.4015 102.582 63.5916 102.049 63.7641C101.996 63.7818 101.943 63.7951 101.888 63.8039C100.255 64.0405 98.6144 64.2882 96.9609 64.098C96.3155 64.0229 95.6833 63.8172 95.0511 63.6491C94.6465 63.543 94.2531 63.4015 93.8552 63.2688C93.108 63.0189 92.4537 62.601 91.868 62.0835C91.4126 61.6833 90.9639 61.2653 90.5682 60.8076C90.2057 60.3874 89.8874 59.923 89.7194 59.3724C89.6088 59.0097 89.3812 58.6802 89.3016 58.3132C89.1159 57.4596 88.7843 56.5795 88.9435 55.7281C89.0717 55.0426 89.1137 54.3305 89.3701 53.645C89.6398 52.9241 89.9095 52.2165 90.3693 51.6106C91.1385 50.6 92.078 49.7685 93.2407 49.2179C93.7646 48.9702 94.3061 48.78 94.8654 48.6075C96.3376 48.152 97.8363 47.9309 99.3571 48.1078C100.16 48.2007 100.982 48.2758 101.767 48.5699C102.136 48.7093 102.518 48.822 102.885 48.9768C103.321 49.1604 103.424 49.2931 103.427 49.7508C103.431 50.5978 103.429 51.4447 103.427 52.2916C103.427 52.4133 103.396 52.5349 103.365 52.7627L103.358 52.7605Z" fill="#512071"/>
<path d="M88.5301 63.5429C88.2671 63.5672 88.0748 63.5982 87.8802 63.5982C86.6291 63.6026 85.378 63.6026 84.129 63.5982C83.5256 63.596 83.4836 63.5142 83.3443 62.9193C83.2073 62.3377 82.9995 61.7716 82.805 61.2055C82.7187 60.9534 82.5242 60.8517 82.2457 60.8539C80.9393 60.8628 79.6329 60.8495 78.3287 60.8583C77.9087 60.8605 77.6656 61.106 77.5816 61.5085C77.5351 61.734 77.4379 61.9507 77.3627 62.1697C77.334 62.2559 77.303 62.3422 77.2765 62.4306C77.1638 62.8087 77.0533 63.1891 76.9339 63.5938C75.5059 63.6026 74.1376 63.6026 72.6632 63.5938C72.7561 63.2267 72.8091 62.968 72.8909 62.7159C72.9992 62.3886 73.1473 62.0746 73.249 61.7451C73.3949 61.2763 73.5098 60.7986 73.6469 60.3254C73.7663 59.9075 73.89 59.4895 74.0249 59.076C74.1929 58.563 74.3697 58.0521 74.551 57.5435C74.7101 57.1013 74.8914 56.6678 75.0417 56.2256C75.1832 55.812 75.2871 55.3875 75.4285 54.9739C75.612 54.4322 75.7336 53.8727 75.9966 53.3486C76.2022 52.9373 76.2597 52.453 76.3945 52.0019C76.4896 51.6901 76.6001 51.3827 76.7062 51.0731C76.872 50.591 77.0422 50.1134 77.2036 49.6291C77.25 49.492 77.2633 49.3416 77.2942 49.2001C77.3782 48.8021 77.5705 48.6185 77.964 48.6163C79.655 48.6097 81.3482 48.6097 83.0393 48.6163C83.5101 48.6163 83.5366 48.676 83.6604 49.1382C83.7643 49.523 83.9124 49.8945 84.0406 50.2704C84.2197 50.8011 84.3899 51.3341 84.5756 51.8604C84.7413 52.338 84.9292 52.809 85.095 53.2867C85.2254 53.6648 85.3293 54.0518 85.462 54.4277C85.6189 54.8656 85.8046 55.2946 85.9593 55.7346C86.1052 56.1459 86.2334 56.5661 86.3616 56.9841C86.5849 57.7138 86.7794 58.4524 87.027 59.1733C87.2657 59.8743 87.573 60.551 87.8161 61.2497C87.9775 61.7119 88.0792 62.1962 88.2184 62.6694C88.2582 62.8065 88.3334 62.9348 88.3842 63.0697C88.4329 63.1979 88.4682 63.3328 88.5323 63.5385L88.5301 63.5429ZM80.2518 52.5967C80.1921 52.5967 80.1303 52.5923 80.0706 52.5901C79.9446 53.0368 79.8075 53.4813 79.6948 53.9324C79.5622 54.4587 79.5047 55.0137 79.3102 55.5135C79.0714 56.1238 78.8813 56.7364 78.762 57.3777C78.6713 57.862 78.7774 58.0079 79.2748 58.0167C79.8628 58.03 80.4486 58.0145 81.0366 58.0256C81.3571 58.0322 81.6002 57.9172 81.8058 57.643C81.2908 55.9646 80.7713 54.2796 80.254 52.5945L80.2518 52.5967Z" fill="#512071"/>
<path d="M46.8491 63.5144C46.8491 63.2822 46.8491 63.0677 46.8491 62.851C46.8491 59.4986 46.8314 56.1462 46.8646 52.796C46.8734 51.9579 46.7452 51.1485 46.522 50.3657C46.3982 49.9301 46.1727 49.4591 45.7063 49.2003C45.5273 49.1008 45.2907 48.9925 45.4013 48.663C45.5317 48.6475 45.6731 48.6187 45.8146 48.6187C48.7944 48.6232 51.7763 48.6033 54.7561 48.6497C56.8162 48.6807 58.326 49.6979 59.1726 51.5576C59.4865 52.2498 59.7186 53.0503 59.5617 53.8574C59.2544 55.4408 58.5581 56.7432 57.0373 57.5172C56.4095 57.8357 55.7861 58.0148 55.0965 58.1342C54.1592 58.2934 53.2308 58.2735 52.2958 58.2868C51.7034 58.2934 51.6901 58.3067 51.6879 58.9236C51.6857 60.2305 51.6879 61.5397 51.6879 62.8466C51.6879 63.0633 51.6879 63.28 51.6879 63.4724C51.2281 63.6272 47.6184 63.6603 46.8536 63.5188L46.8491 63.5144ZM51.7321 55.2771C52.3179 55.3788 52.8705 55.4164 53.3657 55.2528C54.0244 55.0383 54.4797 54.8017 54.5284 53.8552C54.5483 53.4903 54.5217 53.1211 54.4886 52.7562C54.4554 52.3891 54.2344 52.1503 53.9293 51.9424C53.2352 51.4648 52.4969 51.6881 51.7012 51.6815C51.6901 52.9132 51.6459 54.0808 51.7299 55.2749L51.7321 55.2771Z" fill="#512071"/>
<path d="M18.1968 48.7162C18.5283 48.6698 18.7184 48.6211 18.9085 48.6211C22.5713 48.6167 26.2341 48.6167 29.8969 48.6167C30.0406 48.6167 30.1842 48.6432 30.4031 48.6653C30.4031 48.9572 30.4031 49.227 30.4031 49.499C30.4031 50.0895 30.4075 50.6777 30.4031 51.2681C30.3987 51.7236 30.3545 51.7723 29.8947 51.7811C29.2691 51.7922 28.6435 51.7834 28.018 51.7834C27.189 51.7834 26.3623 51.7811 25.5334 51.7834C25.3875 51.7834 25.235 51.7767 25.0935 51.8077C24.7575 51.8829 24.6315 52.0399 24.6271 52.3804C24.6204 53.0394 24.6271 53.6962 24.6271 54.4281H30.0715V57.4687H24.6713C24.6536 57.796 24.6293 58.0481 24.6249 58.3024C24.6182 58.7823 24.6204 59.2599 24.6249 59.7398C24.6315 60.2528 24.7973 60.4275 25.3167 60.4474C25.7036 60.4629 26.0904 60.4585 26.4773 60.4496C27.2664 60.4319 28.0555 60.4032 28.8447 60.3855C29.2271 60.3767 29.6095 60.3722 29.9919 60.3899C30.129 60.3966 30.2638 60.4784 30.4163 60.5337V63.5433C30.2152 63.5654 30.0229 63.6052 29.8306 63.6052C26.7558 63.6074 23.6832 63.6052 20.6084 63.6052C20.4802 63.6052 20.3498 63.603 20.2216 63.5986C19.9607 63.5897 19.8082 63.4748 19.817 63.1917C19.8215 63.0435 19.817 62.8976 19.817 62.7494C19.817 59.3771 19.817 56.0048 19.8126 52.6347C19.8126 52.0841 19.7949 51.529 19.7353 50.9806C19.6579 50.2487 19.3307 49.6428 18.7184 49.2049C18.5637 49.0943 18.4355 48.944 18.199 48.7228L18.1968 48.7162Z" fill="#512071"/>
<path d="M138.076 50.9427C137.97 50.9892 137.924 51.0268 137.873 51.0312C136.807 51.0909 135.846 51.5155 134.968 52.044C134.102 52.5681 133.388 53.3177 132.968 54.2863C132.945 54.335 132.937 54.3925 132.934 54.4477C132.932 54.5207 132.943 54.5915 132.948 54.6689C133.169 54.8082 133.359 54.7485 133.571 54.6468C133.779 54.5472 134.009 54.492 134.234 54.43C134.444 54.3726 134.659 54.3217 134.873 54.2907C135.03 54.2664 135.194 54.2576 135.351 54.2775C135.567 54.304 135.775 54.3858 135.992 54.4057C137.378 54.5318 138.31 55.2969 139.055 56.4291C139.668 57.3601 139.67 58.3663 139.628 59.3901C139.553 61.1481 138.582 62.3555 137.137 63.229C136.591 63.5607 135.983 63.7354 135.366 63.9189C134.78 64.0936 134.217 64.1224 133.635 64.1135C132.687 64.0981 131.814 63.773 130.969 63.3705C130.291 63.0477 129.652 62.6563 129.234 62.0128C128.92 61.5285 128.712 60.9734 128.385 60.5002C128.043 60.0026 128.206 59.4189 128.014 58.9213C127.808 58.395 127.853 57.8753 127.846 57.3468C127.846 57.1854 127.901 57.024 127.937 56.8625C127.979 56.6679 128.085 56.4667 128.065 56.2787C127.994 55.6419 128.27 55.0824 128.474 54.5296C128.759 53.7467 129.088 52.9661 129.625 52.3027C130.28 51.4956 130.976 50.7459 131.831 50.1312C132.384 49.7331 132.948 49.3771 133.569 49.1184C134.002 48.9371 134.457 48.8066 134.904 48.6518C135.059 48.5987 135.211 48.5368 135.37 48.4904C136.228 48.2383 136.564 48.2184 136.975 48.9857C137.291 49.5783 137.674 50.1334 138.023 50.7083C138.058 50.7658 138.056 50.8455 138.08 50.9472L138.076 50.9427ZM135.375 59.2486C135.373 58.8616 135.158 58.0478 135.017 57.8289C134.57 57.1367 133.64 57.0439 132.919 57.61C132.705 57.778 132.567 57.9638 132.583 58.2535C132.603 58.6206 132.572 58.9899 132.598 59.3569C132.643 59.9562 132.879 60.4692 133.315 60.9027C133.843 61.429 134.692 61.1592 135.003 60.6064C135.236 60.195 135.465 59.7196 135.373 59.2508L135.375 59.2486Z" fill="#933491"/>
<path d="M116.305 52.02C116.281 51.8519 116.267 51.7436 116.247 51.6396C116.161 51.1929 116.057 50.7485 115.989 50.2996C115.945 50.0121 115.953 49.718 115.936 49.3929C116.528 49.1076 117.105 48.8644 117.691 48.6234C118.482 48.2961 119.331 48.473 120.109 48.1722C120.279 48.1059 120.507 48.1678 120.706 48.1944C120.958 48.2275 121.21 48.3315 121.46 48.327C122.34 48.3071 123.065 48.7229 123.807 49.1054C124.386 49.404 124.89 49.7887 125.145 50.3991C125.536 51.3367 125.863 52.2898 125.406 53.3136C125.295 53.5591 125.271 53.8421 125.176 54.0987C124.966 54.6625 124.53 55.0164 124.013 55.2795C123.869 55.3525 123.721 55.4255 123.79 55.5957C123.843 55.7306 123.958 55.8943 124.084 55.9407C124.893 56.2415 125.306 56.8761 125.677 57.6081C126.089 58.4241 126.033 59.2688 125.898 60.0892C125.753 60.9782 125.224 61.7057 124.574 62.3492C123.973 62.9441 123.233 63.2581 122.474 63.5765C121.988 63.7822 121.486 63.8308 120.978 63.8883C120.651 63.9259 120.33 64.0121 120.005 64.0542C119.809 64.0785 119.601 64.0807 119.404 64.0542C118.971 63.9944 118.54 63.8618 118.106 63.8463C117.295 63.8197 116.588 63.4726 115.863 63.1873C115.75 63.1431 115.635 62.933 115.633 62.8003C115.624 62.232 115.595 61.6637 115.781 61.1064C115.889 60.7814 115.918 60.432 115.982 60.1047C116.413 60.2882 116.818 60.4828 117.238 60.631C117.543 60.7371 117.868 60.8212 118.188 60.8455C118.664 60.8831 119.145 60.8455 119.623 60.8632C120.945 60.914 121.926 59.3396 121.108 58.1123C120.936 57.8535 120.644 57.5926 120.359 57.5108C119.769 57.3405 119.187 57.1149 118.538 57.1636C117.753 57.2211 117.686 57.2742 117.698 56.3233C117.704 55.8456 117.686 55.3658 117.704 54.8881C117.717 54.5277 117.782 54.4724 118.131 54.4547C118.425 54.4414 118.721 54.4237 119.013 54.4547C119.55 54.5055 120.025 54.2977 120.494 54.1031C120.695 54.019 120.912 53.82 120.993 53.6188C121.351 52.7232 121.223 51.4893 119.875 51.3389C118.798 51.2195 117.757 51.3389 116.796 51.8984C116.665 51.9735 116.495 51.978 116.309 52.0244L116.305 52.02Z" fill="#933491"/>
<path d="M72.9661 48.6565C73.1053 49.2359 73.0943 51.7745 72.9528 52.2699C72.7738 52.2787 72.577 52.2964 72.3803 52.2964C71.443 52.2986 70.5036 52.2942 69.5663 52.2986C69.0248 52.3008 68.9607 52.3627 68.9562 52.9001C68.9474 53.7094 68.954 54.521 68.954 55.3304C68.954 57.7783 68.954 60.2285 68.954 62.6765C68.954 62.8246 68.9607 62.9728 68.9496 63.1187C68.9209 63.4615 68.817 63.5743 68.4699 63.592C68.1406 63.6074 67.809 63.5964 67.4774 63.5964C66.5755 63.5964 65.6759 63.6008 64.774 63.5964C64.1528 63.5964 64.1285 63.5721 64.1285 62.9374C64.1263 59.7531 64.1263 56.5665 64.1263 53.3822C64.1263 52.6583 63.7719 52.2964 63.0631 52.2964C62.1435 52.2964 61.2239 52.2964 60.3044 52.2898C60.2138 52.2898 60.1253 52.2699 59.9772 52.2522C59.9198 51.0625 59.9485 49.8794 59.9551 48.6543H72.9705L72.9661 48.6565Z" fill="#512071"/>
<path d="M150.537 48.736C150.548 48.9748 150.565 49.2269 150.568 49.479C150.572 49.9942 150.576 50.5117 150.568 51.0269C150.559 51.5267 150.484 51.6041 149.986 51.6063C148.936 51.6129 147.888 51.6063 146.838 51.6107C146.195 51.6129 146.122 51.6771 146.034 52.3228C146.001 52.5594 145.994 52.8004 145.998 53.0393C146.007 53.4793 146.124 53.6297 146.555 53.7181C146.825 53.7734 147.101 53.8066 147.376 53.8243C148.613 53.9039 149.608 54.4147 150.311 55.4563C150.492 55.7238 150.709 55.9737 150.857 56.259C151.306 57.1258 151.242 58.0701 151.215 59.0033C151.209 59.2045 151.171 59.4079 151.175 59.6092C151.189 60.2394 150.937 60.7746 150.563 61.2544C150.194 61.7277 149.834 62.2186 149.394 62.6166C148.87 63.0921 148.222 63.3685 147.533 63.5874C146.158 64.023 144.769 63.9125 143.386 63.7842C142.707 63.7223 142.046 63.4569 141.414 63.1739C141.164 63.0611 141.18 62.778 141.272 62.5879C141.491 62.1345 141.467 61.6591 141.491 61.1837C141.509 60.8475 141.558 60.5247 141.827 60.2881C142.172 60.4008 142.512 60.476 142.82 60.6198C143.598 60.9824 144.414 60.8984 145.205 60.79C146.096 60.6684 146.814 59.7905 146.819 58.8927C146.823 57.8578 146.049 56.9158 145.013 56.8361C144.246 56.7787 143.47 56.8362 142.696 56.8472C142.532 56.8472 142.369 56.8649 142.214 56.876C142.062 56.4646 142.174 53.4351 142.23 52.8049C142.351 51.4559 142.38 50.0982 142.446 48.7669C142.941 48.6298 149.953 48.6099 150.537 48.736Z" fill="#933491"/>
<path d="M38.5885 60.5226C38.8472 60.5447 39.0439 60.5735 39.2384 60.5735C40.6907 60.5779 42.1452 60.5779 43.5975 60.5801C43.7456 60.5801 43.8915 60.5823 44.0396 60.5868C44.2319 60.5912 44.3756 60.6841 44.3778 60.8765C44.3888 61.7544 44.3822 62.6323 44.3822 63.4925C43.9136 63.6229 34.5632 63.6583 33.7962 63.5367C33.7851 63.3222 33.7608 63.0944 33.7608 62.8645C33.7586 59.2002 33.7608 55.536 33.7564 51.8718C33.7564 51.1288 33.5376 50.4322 33.1927 49.7843C33.08 49.572 32.8722 49.4084 32.7042 49.2271C32.5738 49.0877 32.4367 48.9551 32.2334 48.7494C32.4765 48.6897 32.6092 48.63 32.744 48.63C34.6008 48.6256 36.4598 48.6278 38.3166 48.63C38.3874 48.63 38.4581 48.6587 38.5907 48.6897V60.5271L38.5885 60.5226Z" fill="#512071"/>
<path d="M73.1716 26.9939C73.9564 26.8767 74.52 27.3587 75.0638 27.8541C75.4683 28.2234 75.8286 28.6413 76.2177 29.0283C77.1903 29.9969 78.1696 30.9588 79.1422 31.9252C80.8907 33.6633 82.637 35.4036 84.3832 37.144C84.9314 37.6902 85.2984 38.3713 85.3492 39.1121C85.389 39.7069 85.1613 40.3106 84.6927 40.7883C84.2086 41.2814 83.6317 41.5733 82.973 41.5644C82.3297 41.5556 81.7506 41.2504 81.2841 40.7927C80.2916 39.8175 79.308 38.8334 78.3199 37.8516C77.3318 36.8697 76.3371 35.8901 75.3556 34.9016C74.0558 33.5947 72.7738 32.2724 71.4651 30.9743C71.0606 30.574 70.8661 30.0809 70.6981 29.5657C70.6694 29.4816 70.6649 29.3799 70.6804 29.2915C70.7887 28.701 70.9567 28.1283 71.3811 27.6794C71.8542 27.1774 72.4378 26.9231 73.1761 26.9916L73.1716 26.9939Z" fill="#512071"/>
<path d="M94.2376 20.0128C94.861 19.9088 95.3804 20.2914 95.8579 20.7624C97.1798 22.0693 98.4972 23.3785 99.8147 24.6876C101.605 26.4677 103.389 28.2567 105.191 30.0258C105.765 30.5897 106.179 31.231 106.373 32.0094C106.404 32.131 106.409 32.2681 106.391 32.3941C106.188 33.7541 105.224 34.6364 103.849 34.6011C103.363 34.5878 102.918 34.3866 102.56 34.077C102.032 33.6236 101.543 33.1217 101.048 32.6307C99.8456 31.4366 98.6453 30.2425 97.4495 29.0395C96.4105 27.9958 95.3804 26.9409 94.3459 25.8928C93.7491 25.2868 93.1567 24.6743 92.5444 24.0861C92.0404 23.604 91.8414 23.0357 91.8061 22.3413C91.7574 21.417 92.246 20.8575 92.8981 20.3334C93.2805 20.026 93.6982 20.0194 94.242 20.0106L94.2376 20.0128Z" fill="#512071"/>
<path d="M92.173 36.8984C92.2769 38.5636 90.3162 39.6162 88.9965 39.0302C88.4373 38.7825 88.0239 38.4198 87.615 37.9975C86.2467 36.5933 84.8629 35.2023 83.4814 33.8092C82.5154 32.8362 81.5428 31.8676 80.5746 30.8968C79.8672 30.187 79.1422 29.4926 78.4547 28.7651C77.9087 28.1857 77.4622 27.5356 77.6037 26.6709C77.7363 25.8594 78.1386 25.2291 78.9012 24.8709C79.1134 24.7714 79.3367 24.6719 79.5644 24.6299C80.3182 24.4905 80.9835 24.705 81.5339 25.2291C82.2192 25.8837 82.8867 26.556 83.5587 27.2238C84.5137 28.1702 85.4708 29.1167 86.4235 30.0676C88.0593 31.6973 89.7083 33.316 91.3153 34.9723C91.8326 35.5053 92.299 36.1178 92.1752 36.8984H92.173Z" fill="#512071"/>
<path d="M99.4809 34.6808C99.6025 35.5498 99.1736 36.1668 98.5304 36.5892C97.9402 36.9762 97.2925 37.1973 96.5233 36.8811C95.9994 36.6666 95.5971 36.3592 95.2124 35.9766C92.8141 33.5839 90.4068 31.2001 88.0062 28.8074C87.195 27.9981 86.3484 27.2175 85.599 26.3528C85.0221 25.6894 84.7767 24.9376 85.1039 23.9756C85.473 22.8832 86.7838 22.2508 87.8117 22.4874C88.4041 22.6245 88.9103 22.9673 89.3392 23.3985C90.2985 24.3648 91.238 25.3511 92.1973 26.3152C93.1832 27.3081 94.1846 28.2855 95.1793 29.2696C96.3906 30.4682 97.6086 31.6601 98.8111 32.8697C99.3063 33.3672 99.6091 33.9599 99.4831 34.6763L99.4809 34.6808Z" fill="#512071"/>
<path d="M68.1737 41.5844C66.9226 41.7038 65.6272 40.4345 65.6847 39.1829C65.7157 38.4863 65.8881 37.9003 66.3876 37.4116C67.5482 36.2794 68.7087 35.1449 69.8648 34.0061C70.0703 33.8027 70.2516 33.5727 70.4527 33.3648C70.7843 33.0243 70.8661 33.0309 71.1933 33.3604C72.1128 34.2869 73.0368 35.2091 73.9586 36.1312C74.2526 36.4253 74.2703 36.4894 73.9873 36.7813C73.3706 37.4182 72.7384 38.0396 72.1128 38.6654C71.3834 39.3974 70.665 40.1382 69.9222 40.8546C69.4249 41.3345 68.8612 41.6972 68.1715 41.5844H68.1737Z" fill="#933490"/>
<path d="M85.5084 73.7064C85.4863 73.9806 85.4686 74.2106 85.4443 74.4936C85.2144 74.5113 85.0199 74.5334 84.8253 74.5356C84.4031 74.5423 83.9787 74.5268 83.5565 74.5423C83.1476 74.5577 83.0614 74.6617 82.9928 75.0708C82.9464 75.356 82.8801 75.6391 82.8094 75.9199C82.6613 76.517 82.7939 76.705 83.4062 76.7204C83.9566 76.7337 84.5092 76.7337 85.0597 76.7315C85.3161 76.7315 85.5349 76.7824 85.6609 77.0897C85.5725 77.291 85.4708 77.521 85.3625 77.7664C85.2254 77.7797 85.1017 77.8018 84.9757 77.8018C84.0008 77.804 83.026 77.8084 82.0512 77.8018C81.5914 77.7974 81.4941 77.7089 81.5317 77.2423C81.5781 76.6784 81.682 76.119 81.7461 75.5551C81.7992 75.0973 81.8169 74.6374 81.8721 74.1818C81.976 73.3459 82.2324 72.5299 82.1639 71.6764C82.1374 71.3579 82.0888 71.0395 82.0423 70.6503C82.427 70.522 82.9044 70.6105 83.3686 70.595C83.8461 70.5795 84.3258 70.5773 84.8032 70.595C85.2674 70.6149 85.7471 70.4999 86.1981 70.6813C86.0853 71.4641 86.2688 71.5415 85.3116 71.5437C84.9071 71.5437 84.5026 71.5348 84.0981 71.5503C83.53 71.5746 83.3686 71.7515 83.3288 72.3221C83.3089 72.5963 83.2669 72.8705 83.2471 73.1447C83.2205 73.525 83.32 73.64 83.7135 73.6489C84.2086 73.6599 84.706 73.6533 85.2033 73.6555C85.2741 73.6555 85.3448 73.6776 85.5062 73.7042L85.5084 73.7064Z" fill="#512071"/>
<path d="M37.7353 76.6786C38.0646 76.6985 38.3188 76.7228 38.5731 76.7273C39.0704 76.7361 39.5656 76.7361 40.0629 76.7339C40.337 76.7339 40.4608 76.871 40.4741 77.1386C40.4918 77.5145 40.3768 77.7312 40.1071 77.7865C40.0364 77.802 39.9612 77.7975 39.8861 77.7975C38.9113 77.7975 37.9364 77.8064 36.9616 77.7975C36.3913 77.7931 36.2233 77.5366 36.3515 76.9749C36.4311 76.6189 36.4908 76.2562 36.5217 75.8914C36.5571 75.4535 36.5085 75.0046 36.7538 74.6066C36.7715 74.5756 36.787 74.5358 36.7848 74.5004C36.7516 73.5761 37.0788 72.6938 37.123 71.7827C37.1407 71.42 37.0102 71.0529 36.9461 70.6748C37.2821 70.5598 40.4254 70.5377 41.0156 70.6748V71.4598C40.7769 71.4908 40.5647 71.5372 40.3525 71.5439C39.8551 71.5549 39.36 71.5394 38.8626 71.5505C38.4227 71.5593 38.3542 71.6367 38.2857 72.048C38.2393 72.3355 38.1508 72.6141 38.1066 72.9016C38.0735 73.1117 38.0823 73.3262 38.0691 73.5695C38.8582 73.7596 39.6208 73.5739 40.4011 73.7021C40.4188 73.8459 40.4475 73.9874 40.4498 74.1267C40.452 74.3965 40.3105 74.5292 40.0408 74.5314C39.5435 74.5314 39.0483 74.5314 38.5509 74.5402C38.0293 74.5513 37.7706 74.7857 37.7419 75.3009C37.7176 75.7366 37.7375 76.1744 37.7375 76.6786H37.7353Z" fill="#512071"/>
<path d="M62.5436 76.3338C62.7006 76.9884 62.5016 77.3267 62.0153 77.5722C61.2085 77.9791 60.3375 77.9481 59.5373 77.7889C58.62 77.6076 57.8485 77.11 57.4462 76.1061C57.0041 75.0004 57.1832 73.9699 57.5678 72.9549C57.8507 72.2141 58.4431 71.6657 59.1085 71.2212C59.7893 70.7656 60.5166 70.4826 61.3544 70.5357C61.8119 70.5644 62.2717 70.5511 62.7315 70.5777C63.2443 70.6064 63.4101 70.8386 63.3018 71.3406C63.2753 71.4622 63.2156 71.5772 63.1581 71.7342C62.5436 71.4423 61.907 71.4136 61.2682 71.4733C60.0966 71.5794 59.2721 72.2517 58.7814 73.2578C58.3746 74.0915 58.4034 75.0203 58.7659 75.8805C58.9074 76.2166 59.2058 76.5129 59.5838 76.6412C60.437 76.9287 61.2726 76.8579 62.0905 76.4842C62.2319 76.4179 62.3889 76.3847 62.5436 76.3338Z" fill="#512071"/>
<path d="M144.126 5.6126C144.358 5.01332 144.593 4.41405 144.825 3.81477C144.935 3.52951 145.017 3.22877 145.156 2.95898C145.223 2.83293 145.388 2.70689 145.525 2.68035C145.771 2.63612 146.029 2.66708 146.266 2.66708C146.436 3.36145 146.432 6.55906 146.275 7.12074C145.649 7.25563 145.475 7.12074 145.464 6.48608C145.457 6.13669 145.466 5.78509 145.448 5.43569C145.441 5.30965 145.38 5.18581 145.342 5.06197C145.304 5.06197 145.269 5.06419 145.231 5.0664C144.968 5.74749 144.705 6.42859 144.444 7.10084C143.812 7.27332 143.753 7.24015 143.556 6.67184C143.348 6.07256 143.129 5.47992 142.91 4.88507C142.902 4.86074 142.851 4.84969 142.749 4.7944C142.557 5.56395 142.742 6.33571 142.61 7.14728C142.367 7.15833 142.126 7.16939 141.902 7.18045C141.743 6.71385 141.703 3.52509 141.829 2.77102C142.168 2.58305 142.526 2.67372 142.895 2.69804C143.264 3.6843 143.624 4.64624 143.985 5.60818C144.031 5.60818 144.078 5.6126 144.124 5.61481L144.126 5.6126Z" fill="#512071"/>
<path d="M54.4709 72.9634C54.3781 73.2199 54.3471 73.357 54.283 73.4786C53.9161 74.1818 53.5469 74.8828 53.1645 75.5772C52.9744 75.9221 52.7445 76.2428 52.55 76.5855C52.2582 77.1052 51.9907 77.6359 51.6989 78.1556C51.3895 78.7084 51.0689 79.2524 50.744 79.7964C50.702 79.865 50.6158 79.9357 50.5384 79.9512C50.2533 80.0131 49.9659 80.0419 49.6454 79.8583C49.9372 79.3608 50.2223 78.8853 50.4964 78.4033C50.6843 78.0716 50.8833 77.7421 51.0269 77.3905C51.0888 77.2401 51.0513 77.03 51.0048 76.862C50.8501 76.3025 50.6865 75.7452 50.4986 75.1946C50.3439 74.7346 50.1472 74.2902 49.977 73.8368C49.8885 73.6024 49.8222 73.3592 49.725 73.0518C50.1361 72.855 50.5672 72.9258 51.0026 73.0297C51.2679 73.8766 51.5243 74.7015 51.7874 75.5462C52.0725 75.4533 52.2184 75.3251 52.3311 75.0796C52.6318 74.4228 52.9766 73.786 53.3236 73.1513C53.3745 73.0584 53.527 72.9855 53.642 72.9722C53.8719 72.9434 54.1062 72.9634 54.4687 72.9634H54.4709Z" fill="#512071"/>
<path d="M107.487 73.0654C108.007 72.8863 108.221 72.506 108.307 72.0283C108.46 71.1637 109.51 70.4339 110.372 70.5887C110.582 70.6263 110.712 70.7236 110.71 70.947C110.71 71.0907 110.686 71.2344 110.67 71.4136C110.494 71.4489 110.337 71.4932 110.177 71.5086C109.722 71.5507 109.475 71.8735 109.269 72.2163C109.154 72.4109 109.165 72.6519 109.43 72.7735C109.625 72.8642 109.822 72.9527 110.06 73.0588V73.5807C109.923 73.6094 109.804 73.647 109.68 73.6603C109.229 73.7089 109.028 73.8814 108.937 74.3171C108.933 74.3348 108.931 74.3524 108.929 74.3723C108.818 75.3144 108.714 76.2586 108.59 77.2007C108.546 77.5412 108.433 77.8751 108.383 78.2157C108.327 78.5783 108.281 78.9432 108.279 79.3081C108.279 79.6022 108.124 79.7747 107.894 79.841C107.699 79.8963 107.439 79.9073 107.268 79.8211C107.045 79.7061 107.067 79.401 107.167 79.2218C107.443 78.7243 107.359 78.1847 107.434 77.6628C107.578 76.6876 107.746 75.7168 107.909 74.7461C107.978 74.3392 108.047 73.9411 107.604 73.6868C107.346 73.5387 107.434 73.3153 107.485 73.0654H107.487Z" fill="#512071"/>
<path d="M94.9096 72.9967H96.09C96.342 73.8459 96.5874 74.6751 96.8416 75.5309C97.1002 75.4756 97.2837 75.4026 97.4097 75.1152C97.6793 74.5004 98.0131 73.9144 98.3359 73.3262C98.5547 72.9281 98.8509 72.864 99.4809 73.0741C99.4522 73.2223 99.461 73.3969 99.388 73.5274C98.8487 74.4894 98.2828 75.4336 97.7479 76.3978C97.1776 77.4238 96.6271 78.4631 96.0789 79.5025C95.8181 79.9934 95.6125 80.0752 94.9273 79.9005C94.8521 79.4428 95.1992 79.1332 95.3672 78.7705C95.5551 78.3636 95.8402 78.0054 96.0546 77.6096C96.2536 77.2447 96.1784 76.8732 96.0303 76.4973C95.8468 76.0262 95.6921 75.5442 95.5263 75.0665C95.3605 74.5867 95.1859 74.1112 95.0312 73.6269C94.9737 73.4456 94.9582 73.2488 94.9118 72.9989L94.9096 72.9967Z" fill="#512071"/>
<path d="M75.6187 76.7493C75.8066 77.0721 75.6187 77.2955 75.3976 77.4569C74.6947 77.9721 73.322 77.9766 72.5947 77.4613C72.4223 77.3397 72.2587 77.1473 72.1902 76.9527C71.9691 76.3203 71.6862 75.6922 72.0089 74.9912C72.1504 74.6839 72.1438 74.3301 72.3317 74.0094C72.7517 73.2863 73.4082 72.9325 74.1597 72.7733C74.8538 72.6273 75.5037 72.886 75.8773 73.4853C76.0829 73.8148 76.074 74.288 76.1204 74.7016C76.1425 74.9116 76.0718 75.1328 76.0364 75.3893C75.8088 75.4003 75.612 75.4158 75.4131 75.418C74.7521 75.4225 74.089 75.4136 73.4281 75.4291C73.0611 75.4379 73.0081 75.5419 72.997 75.9067C72.9815 76.3711 73.6049 76.8974 73.9917 76.9306C74.3211 76.9571 74.6416 76.9815 74.9511 76.7847C75.15 76.6586 75.3932 76.5945 75.6231 76.7448L75.6187 76.7493ZM74.1089 74.8232C74.3034 74.8143 74.4736 74.8298 74.6328 74.7944C75.0351 74.706 75.265 74.3079 75.0771 74.0271C74.8605 73.702 74.5554 73.576 74.1487 73.5981C73.7442 73.6202 73.5098 73.8502 73.3374 74.1509C73.1805 74.4229 73.3352 74.706 73.6491 74.7812C73.8083 74.8188 73.9763 74.8121 74.1111 74.8232H74.1089Z" fill="#512071"/>
<path d="M114.961 75.4224H112.043C111.762 76.2937 112.193 76.9416 113.022 76.9438C113.285 76.9438 113.551 76.8443 113.814 76.7824C113.966 76.747 114.117 76.6939 114.333 76.632V77.4104C113.783 77.689 113.266 77.8239 112.68 77.8571C111.647 77.9146 110.743 76.8487 110.726 75.9155C110.704 74.7701 111.086 73.8568 111.986 73.1646C112.786 72.5477 113.893 72.6052 114.514 73.3106C114.762 73.5914 114.963 73.9275 114.961 74.3344C114.961 74.6639 114.961 74.9912 114.961 75.4224ZM114.006 74.3588C113.966 74.2814 113.922 74.1841 113.871 74.089C113.564 73.4897 112.748 73.3968 112.355 73.9474C112.244 74.1 112.229 74.3588 112.253 74.56C112.282 74.7811 112.516 74.7833 112.697 74.7988C112.881 74.8143 113.064 74.7988 113.248 74.8165C113.599 74.8497 113.851 74.7192 114.002 74.361L114.006 74.3588Z" fill="#512071"/>
<path d="M42.1231 74.1446C42.0126 73.636 42.1364 73.2667 42.5586 73.0853C42.9211 72.9305 43.3168 72.8155 43.7058 72.7779C44.4198 72.7094 44.9371 73.0632 45.2089 73.7156C45.2929 73.919 45.315 74.2197 45.2222 74.4077C45.0255 74.8102 45.0321 75.2237 45.0056 75.6416C44.9901 75.8982 44.9658 76.1547 44.9636 76.4134C44.9636 76.6412 44.9105 76.8756 45.2001 77.026C45.3902 77.1255 45.3416 77.3554 45.2023 77.5058C44.8619 77.8729 44.5613 77.9525 44.1324 77.7093C43.75 77.4903 43.4604 77.5058 43.0692 77.7203C42.3176 78.1294 41.3251 77.4638 41.3627 76.7208C41.4003 75.9424 41.8645 75.5399 42.4414 75.2171C42.7664 75.0357 43.1532 74.9495 43.5223 74.8633C43.9224 74.7704 44.1258 74.5957 44.1148 74.2684C44.1059 73.9898 43.834 73.6979 43.5135 73.6514C43.0294 73.5807 42.6426 73.835 42.2491 74.0605C42.2071 74.0849 42.1673 74.1136 42.1187 74.1446H42.1231ZM42.6934 76.9309C43.6085 77.2006 44.075 76.4532 43.7323 75.4625C43.2549 75.3188 42.9211 75.6593 42.6514 75.9181C42.3972 76.1591 42.3088 76.577 42.6934 76.9309Z" fill="#512071"/>
<path d="M65.961 74.724C66.0119 74.3923 66.1202 74.0959 65.7709 73.8239C65.4946 73.6072 65.2293 73.605 64.9508 73.6935C64.6413 73.7908 64.3518 73.9456 64.0357 74.0849C63.8655 73.8726 63.9716 73.6868 64.0865 73.5343C64.2258 73.3507 64.3805 73.1583 64.5706 73.0389C64.7651 72.9173 65.0083 72.8686 65.2382 72.8111C65.7864 72.6718 66.339 72.7492 66.7435 73.1119C67.0928 73.4259 67.3227 73.908 67.137 74.4122C66.8938 75.0689 66.9226 75.7522 66.8651 76.4289C66.8474 76.6434 66.8541 76.8491 67.0906 77.0061C67.1967 77.0768 67.1878 77.3179 67.2276 77.4705C67.0663 77.5744 66.9646 77.654 66.8518 77.7115C66.5578 77.8597 66.2661 77.9149 65.9831 77.6783C65.7024 77.4439 65.4239 77.4882 65.121 77.6628C64.4778 78.0366 63.7969 77.8353 63.4698 77.1741C63.3858 77.0039 63.3195 76.7739 63.3615 76.5992C63.5273 75.8871 63.9141 75.3476 64.6568 75.1308C65.0768 75.0092 65.4924 74.8721 65.961 74.7262V74.724ZM65.6515 75.4272C65.1741 75.4117 64.8403 75.7036 64.5507 76.0043C64.3319 76.2299 64.4225 76.7827 64.6281 76.9132C64.9442 77.1122 65.6029 76.8999 65.6891 76.5306C65.7687 76.1857 65.8638 75.8142 65.6515 75.4294V75.4272Z" fill="#512071"/>
<path d="M89.0872 74.735C89.1822 74.4497 89.2972 74.1424 89.0164 73.8858C88.7048 73.6028 88.3555 73.5453 87.9642 73.7731C87.7056 73.9234 87.416 74.0207 87.0845 74.1645C87.1464 73.7288 87.2525 73.2932 87.6305 73.1141C88.2649 72.8133 88.9346 72.5458 89.653 72.9726C90.0863 73.2291 90.3715 73.5431 90.3096 74.0694C90.2742 74.3746 90.188 74.6753 90.157 74.9805C90.0974 75.5444 90.0576 76.1105 90.0222 76.6788C90.0178 76.7606 90.0598 76.8955 90.1173 76.9198C90.398 77.0392 90.4024 77.2648 90.2919 77.4638C90.1791 77.6673 89.9935 77.853 89.7194 77.8154C89.5293 77.7889 89.3193 77.7601 89.1645 77.6606C88.8595 77.4682 88.5854 77.4904 88.287 77.6474C87.4779 78.0764 86.7507 77.7491 86.5031 76.8822C86.3882 76.4776 86.6402 76.1282 86.8303 75.8119C87.0336 75.4758 87.3586 75.2392 87.7719 75.1375C88.1941 75.0335 88.6053 74.8832 89.0894 74.7328L89.0872 74.735ZM89.0142 75.5466C88.5898 75.2082 88.2781 75.5709 87.9598 75.7611C87.6769 75.9291 87.5354 76.2188 87.6039 76.5594C87.6305 76.6898 87.7056 76.869 87.8073 76.9132C88.3378 77.1498 88.875 76.765 88.8794 76.3427C88.8816 76.0795 88.9656 75.8186 89.0164 75.5466H89.0142Z" fill="#512071"/>
<path d="M91.0037 77.4392C90.9661 76.5945 91.0877 76.5148 91.8635 76.8642C92.2636 77.0434 92.6063 76.9881 92.9179 76.694C93.1368 76.4861 93.1744 76.2429 92.9467 76.0416C92.6792 75.805 92.372 75.6082 92.0669 75.4202C91.4148 75.0178 91.2778 73.9143 91.8215 73.3681C92.5002 72.687 93.349 72.5809 94.3238 73.0895C94.3083 73.3106 94.2907 73.5583 94.2686 73.8944C94.0497 73.8214 93.8861 73.775 93.7314 73.7131C93.3313 73.5539 92.9135 73.6091 92.6748 73.859C92.4648 74.0779 92.4383 74.2239 92.6527 74.4096C92.8693 74.5954 93.1235 74.748 93.3822 74.8696C93.8486 75.0863 94.2575 75.6126 94.2442 76.0328C94.2155 76.9903 93.4219 77.793 92.4604 77.8328C91.9475 77.8527 91.4259 77.8925 91.0037 77.4392Z" fill="#512071"/>
<path d="M46.06 76.6455C46.2368 76.6941 46.4203 76.745 46.6038 76.7936C46.8138 76.8489 47.0215 76.9307 47.2337 76.9462C47.5985 76.9705 47.9234 76.7317 47.9787 76.4442C48.0207 76.2209 47.8085 75.9113 47.53 75.7565C47.1387 75.5376 46.7298 75.3518 46.4667 74.9449C46.2125 74.5513 46.1882 74.0714 46.4402 73.6778C46.9331 72.9105 48.0671 72.508 48.8231 72.926C48.9469 72.9945 49.0972 73.0144 49.2873 73.0697C49.2541 73.3174 49.2232 73.5451 49.1834 73.8525C48.9778 73.8061 48.8165 73.7619 48.6529 73.7375C48.3854 73.6999 48.1157 73.6491 47.8483 73.6535C47.6272 73.6557 47.4703 73.8149 47.4371 74.0361C47.4084 74.2351 47.4194 74.4363 47.656 74.5469C47.8195 74.6243 47.9522 74.7636 48.1157 74.841C48.927 75.2236 49.2254 75.9091 48.9226 76.7273C48.5799 77.6538 47.2426 78.1735 46.3496 77.729C45.8566 77.4858 45.8102 77.331 46.0578 76.6477L46.06 76.6455Z" fill="#512071"/>
<path d="M102.808 70.6105C103.223 70.6061 103.564 70.584 103.904 70.6039C104.132 70.6172 104.194 70.7963 104.172 71.0064C104.105 71.6454 104.123 72.3088 103.953 72.9192C103.758 73.6246 103.842 74.361 103.643 75.0354C103.435 75.7409 103.427 76.4441 103.389 77.1561C103.363 77.6515 102.912 77.9588 102.463 77.7687C102.357 77.7244 102.237 77.5453 102.244 77.437C102.271 77.0212 102.343 76.6077 102.405 76.1942C102.419 76.1035 102.469 76.0195 102.481 75.931C102.591 75.115 102.691 74.2968 102.805 73.4809C102.876 72.9745 102.987 72.4725 103.042 71.9639C103.069 71.7162 103.031 71.4575 102.991 71.2076C102.965 71.0351 102.887 70.8715 102.803 70.6127L102.808 70.6105Z" fill="#512071"/>
<path d="M68.6534 72.9967C68.7109 72.9746 68.8612 72.864 68.996 72.8817C69.2215 72.9082 69.5 72.9569 69.6393 73.1072C69.8647 73.3505 70.0173 73.3217 70.2383 73.147C70.3798 73.0365 70.5412 72.948 70.7025 72.8662C71.0253 72.7026 71.443 72.7711 71.6486 73.0519C71.7171 73.1448 71.7127 73.3328 71.6729 73.4544C71.6221 73.6026 71.4961 73.7242 71.4032 73.8547C71.2397 73.8547 71.096 73.8547 70.9501 73.8547C70.119 73.8414 69.7918 74.1797 69.6105 74.9847C69.4492 75.7011 69.321 76.411 69.279 77.1452C69.2679 77.3353 69.1176 77.5786 68.9584 77.6825C68.8015 77.7842 68.5385 77.7909 68.3484 77.7422C68.2577 77.7201 68.1759 77.4746 68.1715 77.3265C68.1649 77.0722 68.2135 76.8157 68.2511 76.5614C68.3152 76.1301 68.3837 75.6989 68.4545 75.2677C68.5208 74.8719 68.6158 74.4805 68.6578 74.0824C68.691 73.7706 68.66 73.4522 68.6578 72.9945L68.6534 72.9967Z" fill="#512071"/>
<path d="M141.025 2.7002C141.166 3.27957 141.047 3.4609 140.532 3.5007C140.353 3.51397 140.174 3.52061 139.92 3.53609V7.14943C139.601 7.1627 139.358 7.17376 139.075 7.18702C138.927 5.96636 139.08 4.79213 138.976 3.58252C138.781 3.55378 138.607 3.51397 138.43 3.50292C137.791 3.46311 137.714 3.35918 137.873 2.7002H141.027H141.025Z" fill="#512071"/>
<path d="M105.292 73.0562C105.661 72.6802 106.011 72.9655 106.375 72.981C106.532 73.4476 106.504 73.9296 106.371 74.341C106.172 74.9513 106.225 75.5749 106.106 76.183C106.022 76.612 105.962 77.0476 105.871 77.4744C105.814 77.742 105.653 77.8106 105.323 77.8039C105.062 77.7973 104.93 77.6447 104.939 77.4302C104.963 76.8088 104.947 76.1697 105.089 75.5705C105.275 74.7899 105.332 74.0203 105.277 73.2286C105.272 73.1756 105.286 73.1203 105.292 73.0539V73.0562Z" fill="#512071"/>
<path d="M77.2478 77.9986C77.1107 77.8726 76.9825 77.7687 76.872 77.6492C76.6465 77.406 76.6355 77.0411 76.8366 76.8045C77.0046 76.6077 77.4887 76.5192 77.7009 76.6762C77.7894 76.7426 77.8601 76.8819 77.8734 76.9969C77.9441 77.5674 77.838 78.0915 77.3804 78.4896C77.2036 78.6421 77.0201 78.7881 76.8388 78.9385C76.7991 78.8146 76.9354 78.5021 77.2478 78.0008V77.9986Z" fill="#512071"/>
<path d="M106.258 70.7102C106.448 70.8119 106.574 70.8805 106.696 70.9446C106.89 71.3957 106.656 71.8911 106.207 72.0238C105.931 72.1056 105.871 71.8623 105.743 71.7363C105.588 71.5881 105.518 71.3847 105.688 71.2056C105.867 71.0176 106.079 70.865 106.26 70.708L106.258 70.7102Z" fill="#512071"/>
</g>
<defs>
<clipPath id="clip0_47_2124">
<rect width="151.233" height="80" fill="white"/>
</clipPath>
</defs>
</svg>
