<svg width="151" height="45" viewBox="0 0 151 45" fill="none" xmlns="http://www.w3.org/2000/svg">
<g clip-path="url(#clip0_47_2084)">
<path d="M89.9736 21.7619C87.3718 19.6147 84.0119 21.0896 83.2669 24.1612C83.0835 24.2784 82.9398 24.2032 82.7806 24.0816C82.553 23.9069 82.2833 23.7809 82.0622 23.5973C81.136 22.8344 80.0418 22.8742 78.9852 23.0511C78.1917 23.1838 77.5351 23.7101 76.9626 24.2917C76.4056 24.8578 76.1956 25.5942 75.9701 26.3416C75.5767 26.1028 75.2053 25.8595 74.8185 25.6472C74.646 25.5522 74.4471 25.4991 74.2526 25.4526C73.9144 25.373 73.5739 25.3111 73.2335 25.247C73.1252 25.2271 73.0125 25.2072 72.9042 25.2204C71.5801 25.3907 70.4439 25.9325 69.7277 27.0912C69.2989 27.7856 69.0248 28.5839 69.0778 29.4264C69.1132 29.9837 69.248 30.5321 69.5332 31.0319C69.6481 31.2353 69.7034 31.4741 69.7896 31.7063C68.9363 32.5223 68.0853 33.3228 67.2519 34.1366C66.4341 34.9349 65.6361 35.7553 64.8182 36.5558C63.8986 37.4558 62.968 38.3448 62.0396 39.2338C61.6616 39.5942 61.2262 39.78 60.6868 39.8286C59.6854 39.9215 58.9781 39.508 58.3923 38.7451C58.1116 38.378 58.1071 37.9247 57.9215 37.5288C57.8684 37.416 58.0276 37.2214 58.0408 37.0622C58.0895 36.4165 58.4454 35.9543 58.8852 35.5209C60.0015 34.4263 61.1068 33.3206 62.2164 32.2194C63.2731 31.1712 64.3341 30.1274 65.3885 29.077C65.7997 28.6679 66.2064 28.2544 66.6131 27.8409C66.8099 27.6419 66.9624 27.4274 66.9823 27.1311C67.0287 26.4168 66.4562 26.0386 65.7952 26.2996C65.373 26.4654 65.1321 26.8104 64.8359 27.0935C63.4035 28.4733 61.9866 29.8709 60.5718 31.2707C59.8358 32.0004 59.1196 32.7501 58.3812 33.4776C57.9679 33.8867 57.5192 34.2604 57.1014 34.6629C56.3078 35.4236 55.5408 36.2109 54.7317 36.9561C54.2277 37.4183 53.6464 37.7101 52.9103 37.6748C51.8028 37.6195 50.8302 36.6797 50.7727 35.5674C50.7285 34.6939 50.985 33.9884 51.6393 33.3693C52.8064 32.2636 53.9205 31.1004 55.0545 29.9594C56.0094 28.9974 56.9599 28.0311 57.9126 27.0669C59.177 25.7888 60.4458 24.5172 61.6992 23.2302C61.9357 22.987 62.1059 22.6818 62.2894 22.4297C62.117 22.056 62.0065 21.7398 61.582 21.7464C61.2483 21.7508 60.9587 21.7752 60.6912 22.0538C59.9374 22.8388 59.1461 23.5885 58.3591 24.3403C57.7933 24.8821 57.2031 25.3974 56.635 25.9369C55.7043 26.8215 54.787 27.7193 53.8586 28.606C53.0053 29.4198 52.1455 30.2269 51.2922 31.0407C50.3041 31.985 49.3205 32.9358 48.3368 33.8867C48.0118 34.2007 47.7046 34.5324 47.3642 34.8288C46.8889 35.2423 46.3053 35.2931 45.7063 35.2533C44.7116 35.1848 44.0727 34.6651 43.7942 33.6877C43.7146 33.4091 43.5599 33.1172 43.5953 32.8518C43.6461 32.4869 43.8009 32.1132 43.9954 31.7926C44.4242 31.0916 45.0564 30.5609 45.6289 29.9837C46.4954 29.108 47.3443 28.2146 48.2064 27.3345C49.1193 26.3991 50.0367 25.4659 50.9562 24.5371C51.5597 23.9268 52.2361 23.374 52.76 22.7017C53.4496 21.8172 54.3206 21.1272 55.0766 20.3135C56.677 18.5908 58.3326 16.9212 59.9816 15.2473C61.2416 13.9669 62.5569 12.7396 63.7903 11.4371C64.3054 10.8931 64.7895 10.3292 65.4195 9.91127C65.7974 9.65918 66.2307 9.52429 66.6352 9.33853C67.5128 8.93607 68.4014 9.10634 69.2834 9.08423C70.5522 9.05548 71.8299 9.01789 73.0899 9.13288C74.0492 9.21912 75.0793 9.2545 75.8618 9.97982C76.2089 10.3027 76.5272 10.6521 76.8632 10.986C77.796 11.9059 78.7266 12.8303 79.6705 13.7391C80.1877 14.2389 80.8288 14.5109 81.5406 14.5175C83.6936 14.5396 85.8466 14.5241 87.9996 14.5286C89.6199 14.533 91.238 14.5485 92.8583 14.5507C93.1279 14.5507 93.3954 14.5109 93.6452 14.491C93.738 14.2101 93.6828 14.0642 93.5104 13.8983C92.8163 13.2283 92.1443 12.5361 91.4679 11.8484C90.4533 10.8179 89.4386 9.78301 88.4262 8.75031C87.195 7.49427 85.9704 6.22716 84.7303 4.98217C83.9235 4.17061 83.0813 3.39663 82.27 2.58949C81.7793 2.10078 81.3261 1.57227 80.8354 1.08135C80.6055 0.851371 80.3292 0.665617 80.075 0.45775C80.1037 0.404678 80.1325 0.351606 80.159 0.298533C80.2872 0.267574 80.4154 0.210079 80.5436 0.205656C81.0034 0.190177 81.4632 0.1946 81.923 0.185754C82.4889 0.174698 83.0658 0.256518 83.614 0.0331712C83.6626 0.013269 83.7223 0.0154804 83.7776 0.0154804C84.8806 0.0110577 85.9858 -0.0398034 87.0845 0.0221144C87.8449 0.0641301 88.6163 0.258729 89.2839 0.630236C89.7658 0.897809 90.157 1.33566 90.566 1.72043C91.3374 2.44354 92.1001 3.17771 92.8561 3.9163C93.4816 4.52663 94.105 5.14139 94.7084 5.77605C95.208 6.30235 95.6789 6.8574 96.1585 7.40139C96.6117 7.91663 97.1643 8.32794 97.7611 8.62427C98.232 8.85646 98.7293 9.08644 99.3151 9.0798C102.169 9.04663 105.02 9.05548 107.874 9.05548C117.631 9.05548 127.386 9.05548 137.143 9.05548C137.34 9.05548 137.537 9.07759 137.791 9.09307C137.764 9.32526 137.778 9.51544 137.718 9.67687C137.506 10.2386 137.258 10.7848 137.039 11.3442C136.874 11.7688 136.734 12.2022 136.577 12.629C136.305 13.3588 136.02 14.0841 135.755 14.8183C135.496 15.5347 135.262 16.2601 135.006 16.9765C134.798 17.5581 134.601 18.1463 134.351 18.7102C134.018 19.4577 133.732 20.2184 133.505 21.0056C133.354 21.5275 133.109 22.0295 133.005 22.558C132.862 23.2811 132.497 23.9135 132.232 24.5792C131.789 25.6826 131.299 26.7839 130.388 27.6131C130.308 27.6861 130.24 27.7701 130.167 27.8497C129.561 28.5087 128.83 28.8891 127.914 28.8559C127.486 28.8404 127.433 28.7829 127.448 28.3694C127.479 27.5601 127.532 26.7507 127.534 25.9413C127.534 25.1165 127.497 24.3027 127.253 23.4912C126.973 22.5469 126.568 21.6779 126.128 20.8C125.6 19.7474 124.806 18.9491 123.991 18.1596C123.63 17.8102 123.186 17.5338 122.749 17.2773C122.249 16.9832 121.725 16.7244 121.192 16.4945C120.693 16.28 120.2 16.0456 119.636 15.9969C119.203 15.9593 118.778 15.778 118.345 15.7625C117.483 15.7315 116.619 15.7404 115.757 15.7957C115.231 15.8288 114.7 15.9328 114.196 16.0809C113.677 16.2335 113.164 16.4392 112.686 16.6957C111.904 17.1181 111.108 17.525 110.438 18.1353C109.501 18.9889 108.683 19.9464 108.071 21.0454C107.706 21.7022 107.461 22.4297 107.282 23.1904C106.915 24.745 107.105 26.304 107.058 27.8586C107.05 28.1483 107.058 28.4402 107.058 28.7254C106.7 28.8736 106.453 28.8205 106.214 28.5795C105.575 27.9338 104.921 27.3035 104.273 26.6667C102.943 25.3598 101.61 24.0573 100.283 22.7459C99.1648 21.6381 98.064 20.5125 96.9366 19.4134C96.6249 19.1105 96.216 18.938 95.8314 18.7279C95.082 18.3144 94.2995 18.3675 93.5325 18.4404C92.4272 18.5444 91.4789 19.0021 90.8821 20.0171C90.6235 20.4572 90.3118 20.8641 90.2543 21.3992C90.241 21.5164 90.0841 21.6159 89.9736 21.7508V21.7619Z" fill="#933490"/>
<path d="M13.4707 28.8382C13.2784 28.2544 13.6586 27.8851 13.7802 27.4583C13.8885 27.0824 14.1206 26.7441 14.2753 26.377C14.576 25.6583 14.8678 24.9352 15.1485 24.2099C15.2988 23.8207 15.4005 23.4116 15.553 23.0224C15.7674 22.4673 16.0128 21.9255 16.2338 21.3749C16.4217 20.9039 16.5919 20.4262 16.7754 19.953C16.8793 19.6832 16.9854 19.4134 17.1048 19.1503C17.5447 18.1795 17.9801 17.2087 18.3228 16.1937C18.535 15.5635 18.8555 14.973 19.1141 14.3583C19.3462 13.8055 19.5518 13.2438 19.7773 12.6887C20.3299 11.3332 21.2848 10.3491 22.5669 9.66138C23.6876 9.0599 24.8923 8.9626 26.1302 8.98913C28.0069 9.02894 29.8814 9.05105 31.7581 9.07095C33.1198 9.08643 34.4814 9.0798 35.8453 9.09307C36.4488 9.0997 37.0611 9.01788 37.6446 9.25007C37.7087 9.27661 37.7905 9.26334 37.8635 9.26334C40.9736 9.30757 44.0816 9.3518 47.1917 9.3916C48.591 9.40929 49.9902 9.40929 51.3873 9.42919C51.6039 9.4314 51.8183 9.49553 52.0349 9.52649C52.1985 9.55082 52.3643 9.60168 52.5234 9.5862C53.3369 9.51101 54.1415 9.42919 54.9263 9.12624C55.7463 8.81223 56.4205 8.30804 57.0417 7.73309C57.5015 7.30851 57.864 6.77778 58.2818 6.30455C59.3693 5.07062 60.4613 3.8389 61.5555 2.6116C62.0352 2.07424 62.4839 1.49929 63.0211 1.02385C63.5936 0.517452 64.2567 0.141523 65.0857 0.168059C65.6913 0.187961 66.297 0.106141 66.9027 0.106141C69.9952 0.0995073 73.0876 0.0995073 76.1801 0.112775C76.6554 0.112775 77.1417 0.150368 77.6015 0.263147C77.9176 0.340544 78.2381 0.528509 78.4834 0.749644C79.1908 1.3843 79.8716 2.04992 80.5414 2.72659C81.7174 3.91187 82.8823 5.11264 84.0428 6.3134C85.5526 7.87461 87.0557 9.44467 88.5633 11.0081C89.0054 11.4658 89.4652 11.9103 89.9073 12.3703C90.0421 12.5096 90.1416 12.6799 90.3162 12.9165C90.0686 12.9541 89.8984 13.0005 89.7282 13.0005C87.206 13.0182 84.6839 13.0248 82.1639 13.0447C81.4057 13.0514 80.8022 12.7086 80.254 12.2376C79.4671 11.5587 78.8283 10.7427 78.1983 9.92232C77.5904 9.13066 76.7946 8.57782 75.9259 8.10238C75.5744 7.91 75.192 7.89894 74.8339 7.78174C73.4037 7.30851 71.936 7.50311 70.508 7.60925C69.1684 7.70876 67.8289 7.71097 66.4937 7.81048C65.656 7.8724 65.0348 8.35669 64.4756 8.89847C63.2178 10.1147 62.002 11.3774 60.7597 12.6069C59.5152 13.8386 58.2575 15.0549 57.0063 16.28C55.8237 17.4365 54.6455 18.5952 53.4629 19.7518C52.2737 20.9149 51.0756 22.0671 49.893 23.2369C48.5733 24.5416 47.2691 25.8617 45.9517 27.1709C45.4963 27.6242 45.0233 28.062 44.5436 28.5198C44.2872 28.4026 44.3822 28.1792 44.3844 27.9979C44.3955 27.2062 44.4331 26.4146 44.422 25.6229C44.4154 25.0745 44.4286 24.515 44.1766 23.9976C44.1457 23.9356 44.1479 23.8538 44.1435 23.7809C44.1037 23.1351 43.865 22.5558 43.5621 21.9963C43.2372 21.3926 42.9542 20.7579 42.5696 20.1963C42.2137 19.6788 41.7672 19.2188 41.3229 18.7677C40.9803 18.4205 40.6023 18.0999 40.2022 17.8257C39.6098 17.4188 38.9997 17.0274 38.3631 16.6935C37.6557 16.322 36.8798 16.1473 36.0973 15.9593C35.107 15.7205 34.13 15.6851 33.1441 15.7514C32.0322 15.8266 30.9645 16.0964 29.9345 16.5719C28.5617 17.2043 27.43 18.1242 26.4463 19.2387C26.0794 19.6545 25.8296 20.1719 25.5223 20.6407C25.4538 20.7447 25.3521 20.8331 25.3013 20.9437C25.0736 21.4368 24.8349 21.9277 24.6425 22.4363C24.4348 22.9848 24.3905 23.5796 24.2513 24.1413C23.9882 25.1983 24.0148 26.2554 24.0391 27.319C24.0479 27.6817 24.1209 28.0443 24.1872 28.4026C24.2491 28.7321 24.1916 28.8316 23.8423 28.8692C23.7141 28.8824 23.5859 28.8758 23.4555 28.8758C20.3454 28.8758 17.233 28.8758 14.1228 28.8758C13.9062 28.8758 13.6896 28.8515 13.4619 28.8382H13.4707Z" fill="#512071"/>
<path d="M34.1477 17.2839C34.6251 17.2839 35.1048 17.2684 35.5823 17.2905C35.7768 17.2994 35.9691 17.3812 36.1592 17.4387C36.2631 17.4697 36.3559 17.5404 36.462 17.5581C37.7309 17.7793 38.8162 18.3785 39.7844 19.1989C40.7858 20.0459 41.6125 21.0454 42.1872 22.2263C42.3994 22.6619 42.4326 23.1794 42.6183 23.6283C43.1024 24.8025 42.8968 26.0187 42.8747 27.2239C42.8702 27.4716 42.7686 27.7193 42.7045 27.9647C42.6824 28.0532 42.6315 28.135 42.616 28.2235C42.3928 29.5304 41.7915 30.6559 40.9051 31.6157C40.3547 32.2127 39.7667 32.7855 39.1301 33.2874C38.7123 33.6169 38.1818 33.8137 37.6911 34.0415C37.2976 34.2251 36.8975 34.4351 36.4775 34.5103C35.6353 34.6629 34.7799 34.7823 33.9266 34.8133C33.3673 34.8354 32.797 34.7005 32.2378 34.5944C31.8465 34.5192 31.4531 34.4042 31.0883 34.245C30.5247 33.9973 29.9566 33.7386 29.4393 33.4069C28.3849 32.7302 27.4676 31.8921 26.7823 30.8262C26.3579 30.1672 26.0352 29.4684 25.7964 28.7144C25.4693 27.6839 25.1863 26.6556 25.2814 25.5632C25.2991 25.3642 25.3477 25.1674 25.3875 24.9684C25.445 24.6809 25.4958 24.3934 25.5687 24.1103C25.6682 23.7234 25.7456 23.3231 25.9047 22.9604C26.1656 22.3656 26.3557 21.7376 26.7558 21.2002C27.3217 20.4395 27.945 19.7385 28.6634 19.1215C29.1696 18.6881 29.709 18.3056 30.339 18.0689C30.7965 17.8965 31.2608 17.7417 31.7205 17.5802C31.7714 17.5625 31.8399 17.5802 31.8819 17.5537C32.5915 17.1158 33.3895 17.3326 34.1432 17.2839H34.1477ZM34.1963 30.7289C36.7803 30.8284 39.0196 28.3672 38.9356 25.8861C38.8516 23.3961 36.7096 21.2024 34.0592 21.2422C31.7382 21.2754 29.4039 23.3917 29.4371 26.1138C29.4658 28.6326 31.8156 30.8351 34.1941 30.7289H34.1963Z" fill="#512071"/>
<path d="M117.132 17.2994C117.518 17.2994 117.905 17.2795 118.29 17.306C118.522 17.3215 118.75 17.4033 118.975 17.4719C119.426 17.609 119.87 17.7792 120.326 17.8964C121.027 18.0734 121.639 18.4117 122.205 18.8473C122.536 19.1038 122.868 19.3648 123.173 19.6523C124.039 20.4727 124.767 21.4059 125.226 22.5115C125.441 23.029 125.483 23.615 125.684 24.1391C126 24.9617 126.005 25.8131 125.881 26.6401C125.77 27.3677 125.724 28.1284 125.386 28.8139C125.266 29.0571 125.213 29.3313 125.109 29.5834C124.398 31.3392 123.102 32.5931 121.546 33.5838C121.018 33.9199 120.357 34.0393 119.786 34.3135C118.991 34.6961 118.133 34.6143 117.304 34.6784C116.597 34.7337 115.861 34.685 115.167 34.5457C114.59 34.4307 114.055 34.1145 113.5 33.8845C113.283 33.7938 113.053 33.7231 112.854 33.5992C112.017 33.084 111.221 32.4958 110.58 31.7506C110.047 31.1314 109.565 30.4591 109.247 29.694C108.968 29.0262 108.765 28.3362 108.568 27.6374C108.367 26.9232 108.352 26.2354 108.349 25.5256C108.349 25.3111 108.422 25.0944 108.471 24.8821C108.513 24.703 108.623 24.5239 108.61 24.3536C108.566 23.8074 108.838 23.3563 109.021 22.8897C109.26 22.286 109.543 21.6911 109.877 21.1339C110.118 20.7336 110.46 20.3909 110.783 20.0481C111.586 19.1945 112.494 18.4736 113.566 17.9937C113.975 17.8102 114.433 17.7284 114.866 17.6023C114.919 17.5869 114.983 17.5979 115.027 17.5714C115.686 17.1755 116.422 17.3348 117.127 17.3016L117.132 17.2994ZM117.233 30.7754C117.817 30.7709 118.462 30.7842 119.033 30.4105C119.183 30.311 119.329 30.1982 119.495 30.1296C120.302 29.7957 120.909 29.2539 121.292 28.4667C121.38 28.2854 121.458 28.0996 121.537 27.9161C121.774 27.3654 122.046 26.8281 122.019 26.1979C121.999 25.6671 122.032 25.1453 121.752 24.6477C121.469 24.1435 121.327 23.5487 120.998 23.0821C120.282 22.0715 119.205 21.5253 118.045 21.2511C116.844 20.968 115.708 21.3285 114.645 21.9366C114.057 22.2727 113.646 22.757 113.25 23.2877C112.653 24.0949 112.443 25.0258 112.324 25.9834C112.286 26.2775 112.448 26.5915 112.465 26.8989C112.51 27.6264 112.857 28.2633 113.261 28.7851C114.231 30.0345 115.494 30.855 117.231 30.7754H117.233Z" fill="#933490"/>
<path d="M73.1716 26.9939C73.9564 26.8767 74.52 27.3588 75.0638 27.8542C75.4683 28.2235 75.8286 28.6414 76.2177 29.0284C77.1903 29.997 78.1696 30.9589 79.1422 31.9253C80.8907 33.6634 82.637 35.4037 84.3832 37.144C84.9314 37.6902 85.2984 38.3713 85.3492 39.1121C85.389 39.707 85.1613 40.3107 84.6927 40.7883C84.2086 41.2815 83.6317 41.5734 82.973 41.5645C82.3297 41.5557 81.7506 41.2505 81.2841 40.7928C80.2916 39.8176 79.308 38.8335 78.3199 37.8517C77.3318 36.8698 76.3371 35.8902 75.3556 34.9017C74.0558 33.5948 72.7738 32.2724 71.4651 30.9744C71.0606 30.5741 70.8661 30.081 70.6981 29.5657C70.6694 29.4817 70.6649 29.38 70.6804 29.2915C70.7887 28.7011 70.9567 28.1284 71.3811 27.6795C71.8542 27.1775 72.4378 26.9232 73.1761 26.9917L73.1716 26.9939Z" fill="#512071"/>
<path d="M94.2376 20.0127C94.861 19.9088 95.3804 20.2913 95.8579 20.7624C97.1798 22.0693 98.4972 23.3784 99.8147 24.6875C101.605 26.4676 103.389 28.2566 105.191 30.0257C105.765 30.5896 106.179 31.2309 106.373 32.0093C106.404 32.1309 106.409 32.268 106.391 32.3941C106.188 33.754 105.224 34.6364 103.849 34.601C103.363 34.5877 102.918 34.3865 102.56 34.0769C102.032 33.6236 101.543 33.1216 101.048 32.6307C99.8456 31.4366 98.6453 30.2424 97.4495 29.0394C96.4105 27.9957 95.3804 26.9409 94.3459 25.8927C93.7491 25.2868 93.1567 24.6742 92.5444 24.086C92.0404 23.6039 91.8414 23.0356 91.8061 22.3413C91.7574 21.4169 92.246 20.8575 92.8981 20.3334C93.2805 20.026 93.6982 20.0194 94.242 20.0105L94.2376 20.0127Z" fill="#512071"/>
<path d="M92.173 36.8986C92.2769 38.5637 90.3162 39.6163 88.9965 39.0303C88.4373 38.7827 88.0239 38.42 87.615 37.9976C86.2467 36.5934 84.8629 35.2025 83.4814 33.8093C82.5154 32.8363 81.5428 31.8678 80.5746 30.897C79.8672 30.1871 79.1422 29.4928 78.4547 28.7652C77.9087 28.1859 77.4622 27.5357 77.6037 26.6711C77.7363 25.8595 78.1386 25.2293 78.9012 24.8711C79.1134 24.7715 79.3367 24.672 79.5644 24.63C80.3182 24.4907 80.9835 24.7052 81.5339 25.2293C82.2192 25.8839 82.8867 26.5561 83.5587 27.2239C84.5137 28.1704 85.4708 29.1168 86.4235 30.0677C88.0593 31.6975 89.7083 33.3162 91.3153 34.9725C91.8326 35.5054 92.299 36.118 92.1752 36.8986H92.173Z" fill="#512071"/>
<path d="M99.4809 34.6806C99.6025 35.5497 99.1736 36.1666 98.5304 36.589C97.9402 36.976 97.2925 37.1971 96.5233 36.8809C95.9994 36.6664 95.5971 36.359 95.2124 35.9764C92.8141 33.5838 90.4068 31.1999 88.0062 28.8073C87.195 27.9979 86.3484 27.2173 85.599 26.3527C85.0221 25.6892 84.7767 24.9374 85.1039 23.9755C85.473 22.883 86.7838 22.2506 87.8117 22.4872C88.4041 22.6243 88.9103 22.9671 89.3392 23.3983C90.2985 24.3646 91.238 25.3509 92.1973 26.3151C93.1832 27.308 94.1846 28.2854 95.1793 29.2694C96.3906 30.468 97.6086 31.6599 98.8111 32.8695C99.3063 33.3671 99.6091 33.9597 99.4831 34.6762L99.4809 34.6806Z" fill="#512071"/>
<path d="M68.1737 41.5844C66.9226 41.7039 65.6272 40.4345 65.6847 39.1829C65.7157 38.4863 65.8881 37.9003 66.3876 37.4116C67.5482 36.2794 68.7087 35.145 69.8648 34.0061C70.0703 33.8027 70.2516 33.5727 70.4527 33.3649C70.7843 33.0243 70.8661 33.0309 71.1933 33.3604C72.1128 34.287 73.0368 35.2091 73.9586 36.1312C74.2526 36.4254 74.2703 36.4895 73.9873 36.7814C73.3706 37.4183 72.7384 38.0396 72.1128 38.6655C71.3834 39.3974 70.665 40.1382 69.9222 40.8547C69.4249 41.3346 68.8612 41.6972 68.1715 41.5844H68.1737Z" fill="#933490"/>
<path d="M144.126 5.6124C144.358 5.01313 144.593 4.41385 144.825 3.81458C144.935 3.52931 145.017 3.22857 145.156 2.95878C145.223 2.83274 145.388 2.70669 145.525 2.68015C145.771 2.63593 146.029 2.66688 146.266 2.66688C146.436 3.36125 146.432 6.55886 146.275 7.12054C145.649 7.25544 145.475 7.12054 145.464 6.48589C145.457 6.13649 145.466 5.78489 145.448 5.43549C145.441 5.30945 145.38 5.18561 145.342 5.06178C145.304 5.06178 145.269 5.06399 145.231 5.0662C144.968 5.74729 144.705 6.42839 144.444 7.10064C143.812 7.27313 143.753 7.23996 143.556 6.67164C143.348 6.07236 143.129 5.47972 142.91 4.88487C142.902 4.86054 142.851 4.84949 142.749 4.7942C142.557 5.56375 142.742 6.33551 142.61 7.14708C142.367 7.15814 142.126 7.16919 141.902 7.18025C141.743 6.71365 141.703 3.52489 141.829 2.77082C142.168 2.58285 142.526 2.67352 142.895 2.69784C143.264 3.68411 143.624 4.64604 143.985 5.60798C144.031 5.60798 144.078 5.6124 144.124 5.61461L144.126 5.6124Z" fill="#020003"/>
<path d="M141.025 2.70006C141.166 3.27943 141.047 3.46076 140.532 3.50057C140.353 3.51383 140.174 3.52047 139.92 3.53595V7.14929C139.601 7.16256 139.358 7.17362 139.075 7.18689C138.927 5.96622 139.08 4.792 138.976 3.58239C138.781 3.55364 138.607 3.51383 138.43 3.50278C137.791 3.46297 137.714 3.35904 137.873 2.70006H141.027H141.025Z" fill="#020003"/>
</g>
<defs>
<clipPath id="clip0_47_2084">
<rect width="151" height="45" fill="white"/>
</clipPath>
</defs>
</svg>
